<svg width="44" height="44" viewBox="0 0 44 44" fill="none" xmlns="http://www.w3.org/2000/svg">
<path fill-rule="evenodd" clip-rule="evenodd" d="M21.9996 24.122L27.3026 29.425C27.584 29.7064 27.9657 29.8645 28.3636 29.8645C28.7616 29.8645 29.1432 29.7064 29.4246 29.425C29.706 29.1436 29.8641 28.7619 29.8641 28.364C29.8641 27.966 29.706 27.5844 29.4246 27.303L24.1196 22L29.4236 16.697C29.5629 16.5577 29.6733 16.3923 29.7487 16.2102C29.824 16.0282 29.8628 15.8331 29.8627 15.6361C29.8627 15.4391 29.8238 15.2441 29.7484 15.0621C29.673 14.8801 29.5624 14.7148 29.4231 14.5755C29.2838 14.4362 29.1184 14.3258 28.9364 14.2504C28.7543 14.1751 28.5592 14.1363 28.3623 14.1364C28.1653 14.1364 27.9702 14.1753 27.7882 14.2507C27.6062 14.3261 27.4409 14.4367 27.3016 14.576L21.9996 19.879L16.6966 14.576C16.5583 14.4327 16.3928 14.3183 16.2099 14.2396C16.0269 14.1609 15.8301 14.1194 15.6309 14.1176C15.4318 14.1158 15.2342 14.1537 15.0498 14.229C14.8655 14.3043 14.6979 14.4156 14.557 14.5564C14.4161 14.6972 14.3047 14.8646 14.2292 15.0489C14.1536 15.2332 14.1156 15.4307 14.1172 15.6299C14.1189 15.829 14.1602 16.0259 14.2387 16.2089C14.3172 16.392 14.4314 16.5575 14.5746 16.696L19.8796 22L14.5756 27.304C14.4324 27.4424 14.3182 27.608 14.2397 27.791C14.1612 27.9741 14.1199 28.1709 14.1182 28.3701C14.1166 28.5693 14.1546 28.7668 14.2302 28.9511C14.3057 29.1354 14.4171 29.3028 14.558 29.4436C14.6989 29.5844 14.8665 29.6957 15.0508 29.771C15.2352 29.8463 15.4328 29.8842 15.6319 29.8824C15.8311 29.8805 16.0279 29.8391 16.2109 29.7604C16.3938 29.6817 16.5593 29.5673 16.6976 29.424L21.9996 24.122Z" fill="#363636"/>
</svg>
