<svg width="285" height="263" viewBox="0 0 285 263" fill="none" xmlns="http://www.w3.org/2000/svg">
<g opacity="0.32" filter="url(#filter0_f_202_677)">
<path fill-rule="evenodd" clip-rule="evenodd" d="M234.41 17.0975L269.092 235.447L14.5801 244.59L15.4803 27.8516L234.407 17.0952L234.41 17.0975Z" fill="#2E3436"/>
<path fill-rule="evenodd" clip-rule="evenodd" d="M234.41 17.0975L269.092 235.447L14.5801 244.59L15.4803 27.8516L234.407 17.0952L234.41 17.0975Z" stroke="#363636" stroke-width="0.984377"/>
</g>
<path fill-rule="evenodd" clip-rule="evenodd" d="M7.27912 18.7545L247.249 5.35303C252.82 81.4836 258.981 157.738 264.552 232.184C199.576 242.423 94.897 242.437 5.94043 248.369C10.9439 171.831 11.0949 95.2946 7.27734 18.7527L7.27912 18.7545Z" fill="#FCAF3E"/>
<path fill-rule="evenodd" clip-rule="evenodd" d="M6.86213 17.1534L246.832 3.75195C252.403 79.8825 258.564 156.137 264.135 230.583C199.159 240.822 94.48 240.836 5.52344 246.768C10.5269 170.23 10.6779 93.6935 6.86035 17.1516L6.86213 17.1534Z" fill="url(#paint0_linear_202_677)"/>
<path d="M37.0215 50.8707L36.4571 46.462L37.975 46.3834L37.9004 50.8252L37.0215 50.8707ZM39.7539 50.7294L39.1894 46.3206L40.7074 46.2421L40.6327 50.6839L39.7539 50.7294ZM42.5779 57.4405L46.9646 45.9185L48.1151 45.859L53.747 56.8628L52.3728 56.9338L50.8006 53.7949L51.4092 54.0998L44.5224 54.456L45.1442 54.0874L43.9361 57.3702L42.5779 57.4405ZM47.6024 47.4075L45.3279 53.6133L44.9296 53.3455L50.8736 53.0381L50.6009 53.3406L47.6344 47.4059L47.6024 47.4075ZM57.8848 56.793C57.2456 56.826 56.6447 56.7716 56.082 56.6299C55.5187 56.4774 55.0477 56.2508 54.669 55.9499L55.0692 55.016C55.4794 55.3045 55.9173 55.5115 56.3831 55.637C56.8595 55.7619 57.348 55.8114 57.8487 55.7855C58.4878 55.7524 58.9614 55.6158 59.2694 55.3755C59.5875 55.1241 59.7361 54.796 59.7152 54.3912C59.6992 54.0823 59.58 53.8428 59.3576 53.6727C59.1453 53.4914 58.802 53.3597 58.3278 53.2774L56.8261 53.0506C56.1366 52.9368 55.6123 52.7129 55.2533 52.379C54.8937 52.0344 54.6995 51.5852 54.6709 51.0313C54.6467 50.5626 54.7479 50.1461 54.9748 49.7819C55.201 49.407 55.5433 49.1063 56.0015 48.8797C56.4592 48.6424 57.0023 48.5075 57.6308 48.475C58.2167 48.4447 58.7593 48.5074 59.2587 48.6631C59.7682 48.8077 60.1966 49.0365 60.5439 49.3497L60.1268 50.2684C59.7912 49.976 59.4119 49.766 58.9887 49.6384C58.5757 49.4995 58.1508 49.4414 57.714 49.464C57.0855 49.4965 56.6181 49.6488 56.3117 49.921C56.0155 50.182 55.8778 50.5149 55.8988 50.9197C55.9147 51.2286 56.0238 51.4793 56.2261 51.6718C56.4384 51.8531 56.7547 51.9809 57.1751 52.0553L58.6768 52.282C59.4095 52.4043 59.9604 52.6268 60.3295 52.9495C60.7088 53.261 60.913 53.6991 60.9422 54.2637C60.967 54.743 60.8556 55.1707 60.608 55.5466C60.3599 55.9119 60.0011 56.2029 59.5317 56.4194C59.0729 56.6354 58.5239 56.7599 57.8848 56.793ZM70.3615 56.1476C69.6478 56.1846 69.0161 56.0517 68.4664 55.749C67.9161 55.4357 67.4759 54.9778 67.1457 54.3754C66.8261 53.7724 66.644 53.0395 66.5994 52.1767C66.5542 51.3032 66.6594 50.5501 66.9151 49.9173C67.1814 49.2841 67.5723 48.7885 68.0879 48.4308C68.6034 48.073 69.218 47.8757 69.9317 47.8387C70.6561 47.8013 71.2889 47.9555 71.8302 48.3013C72.3815 48.6359 72.7587 49.1131 72.9616 49.7328L72.7699 49.7427L72.8473 47.8321L74.0936 47.7677C74.0776 48.0783 74.0619 48.3942 74.0465 48.7154C74.0412 49.0254 74.0462 49.3295 74.0617 49.6278L74.3807 55.7956L73.0864 55.8625L72.9889 53.977L73.1646 53.9679C73.0267 54.6052 72.7008 55.1188 72.1869 55.5085C71.673 55.8982 71.0645 56.1113 70.3615 56.1476ZM70.5626 55.0798C71.3296 55.0402 71.9233 54.7478 72.3437 54.2027C72.7635 53.6469 72.9473 52.863 72.8949 51.851C72.842 50.8284 72.5784 50.0677 72.104 49.5689C71.6291 49.0594 71.0081 48.8245 70.2411 48.8641C69.4848 48.9033 68.8914 49.201 68.4609 49.7573C68.0405 50.3024 67.8567 51.0863 67.9096 52.1089C67.9619 53.1209 68.2256 53.8816 68.7005 54.3911C69.1856 54.8894 69.8063 55.1189 70.5626 55.0798ZM85.0834 55.3862C84.3591 55.4237 83.7265 55.2748 83.1858 54.9396C82.6446 54.5938 82.2669 54.106 82.0527 53.4762L82.2285 53.4671L82.3277 55.3845L81.0494 55.4507L80.4411 43.6904L81.7354 43.6234L82.0255 49.2319L81.8337 49.2418C81.9829 48.6146 82.309 48.1064 82.8123 47.7173C83.3155 47.3281 83.9293 47.1148 84.6537 47.0773C85.378 47.0398 86.01 47.178 86.5496 47.4919C87.0993 47.7946 87.534 48.2474 87.8535 48.8504C88.1838 49.4528 88.3712 50.1854 88.4158 51.0483C88.4604 51.9111 88.3496 52.6592 88.0833 53.2925C87.817 53.9257 87.4263 54.4266 86.9113 54.795C86.4064 55.1522 85.7971 55.3493 85.0834 55.3862ZM84.7573 54.3457C85.5136 54.3065 86.1073 54.0141 86.5383 53.4685C86.9694 52.9228 87.1585 52.1387 87.1056 51.116C87.0527 50.0934 86.7837 49.333 86.2987 48.8347C85.8131 48.3258 85.1921 48.0908 84.4358 48.13C83.6794 48.1691 83.086 48.4668 82.6555 49.0231C82.2351 49.5682 82.0514 50.3521 82.1043 51.3747C82.1566 52.3867 82.4202 53.1474 82.8952 53.6569C83.3802 54.1552 84.0009 54.3848 84.7573 54.3457ZM93.466 54.9526C92.5179 55.0017 91.7854 54.7779 91.2684 54.2813C90.762 53.7841 90.481 52.9975 90.4254 51.9216L90.1675 46.9363L91.4618 46.8694L91.718 51.8227C91.756 52.5578 91.9332 53.0933 92.2497 53.4294C92.5656 53.7549 93.0378 53.9014 93.6663 53.8688C94.3693 53.8325 94.9221 53.5743 95.3245 53.0942C95.7269 52.6141 95.9082 51.9905 95.8686 51.2236L95.6322 46.6537L96.9265 46.5867L97.3414 54.608L96.079 54.6733L95.9856 52.8677L96.1934 52.857C96.0016 53.4864 95.6642 53.9845 95.1812 54.3512C94.7088 54.7175 94.1371 54.9179 93.466 54.9526ZM102.528 54.4839C101.889 54.517 101.288 54.4626 100.725 54.3208C100.162 54.1684 99.6911 53.9417 99.3124 53.6409L99.7127 52.707C100.123 52.9955 100.561 53.2025 101.027 53.3279C101.503 53.4528 101.991 53.5023 102.492 53.4764C103.131 53.4434 103.605 53.3067 103.913 53.0665C104.231 52.8151 104.38 52.487 104.359 52.0822C104.343 51.7733 104.223 51.5338 104.001 51.3637C103.789 51.1824 103.445 51.0506 102.971 50.9683L101.47 50.7416C100.78 50.6277 100.256 50.4039 99.8967 50.07C99.5371 49.7254 99.343 49.2762 99.3143 48.7222C99.2901 48.2535 99.3914 47.8371 99.6182 47.4729C99.8445 47.098 100.187 46.7973 100.645 46.5706C101.103 46.3333 101.646 46.1984 102.274 46.1659C102.86 46.1356 103.403 46.1984 103.902 46.3541C104.412 46.4986 104.84 46.7275 105.187 47.0406L104.77 47.9594C104.435 47.667 104.055 47.457 103.632 47.3294C103.219 47.1905 102.794 47.1324 102.357 47.155C101.729 47.1875 101.262 47.3398 100.955 47.612C100.659 47.873 100.521 48.2059 100.542 48.6107C100.558 48.9196 100.667 49.1703 100.87 49.3628C101.082 49.544 101.398 49.6719 101.819 49.7463L103.32 49.973C104.053 50.0953 104.604 50.3178 104.973 50.6405C105.352 50.952 105.556 51.39 105.586 51.9546C105.61 52.434 105.499 52.8616 105.251 53.2376C105.003 53.6029 104.645 53.8938 104.175 54.1104C103.716 54.3263 103.167 54.4509 102.528 54.4839ZM107.491 57.7199L107.132 56.665C107.627 56.522 108.035 56.362 108.357 56.1851C108.69 56.0184 108.962 55.8014 109.173 55.5341C109.383 55.2669 109.558 54.9374 109.698 54.5457L110.065 53.5814L110.061 54.1264L106.138 46.1103L107.544 46.0376L110.801 52.9346L110.385 52.9561L112.881 45.7615L114.239 45.6913L110.981 54.5754C110.795 55.0977 110.583 55.536 110.345 55.8901C110.107 56.2548 109.845 56.5514 109.557 56.7799C109.281 57.0185 108.971 57.2108 108.626 57.3568C108.281 57.5028 107.903 57.6238 107.491 57.7199ZM122.954 53.4275C122.315 53.4605 121.714 53.4062 121.151 53.2644C120.588 53.1119 120.117 52.8853 119.738 52.5844L120.139 51.6505C120.549 51.9391 120.987 52.146 121.452 52.2715C121.929 52.3964 122.417 52.4459 122.918 52.42C123.557 52.3869 124.031 52.2503 124.339 52.0101C124.657 51.7586 124.805 51.4305 124.784 51.0257C124.768 50.7168 124.649 50.4773 124.427 50.3072C124.215 50.126 123.871 49.9942 123.397 49.9119L121.895 49.6852C121.206 49.5713 120.682 49.3474 120.323 49.0135C119.963 48.6689 119.769 48.2197 119.74 47.6658C119.716 47.1971 119.817 46.7806 120.044 46.4164C120.27 46.0416 120.613 45.7408 121.071 45.5142C121.528 45.2769 122.072 45.142 122.7 45.1095C123.286 45.0792 123.829 45.1419 124.328 45.2976C124.837 45.4422 125.266 45.671 125.613 45.9842L125.196 46.903C124.86 46.6106 124.481 46.4005 124.058 46.2729C123.645 46.134 123.22 46.0759 122.783 46.0985C122.155 46.131 121.687 46.2834 121.381 46.5555C121.085 46.8165 120.947 47.1494 120.968 47.5542C120.984 47.8631 121.093 48.1138 121.295 48.3063C121.508 48.4876 121.824 48.6154 122.244 48.6898L123.746 48.9165C124.479 49.0389 125.03 49.2614 125.399 49.5841C125.778 49.8956 125.982 50.3336 126.011 50.8982C126.036 51.3775 125.925 51.8052 125.677 52.1811C125.429 52.5464 125.07 52.8374 124.601 53.0539C124.142 53.2699 123.593 53.3944 122.954 53.4275ZM128.205 53.0117L127.79 44.9904L129.084 44.9235L129.499 52.9447L128.205 53.0117ZM127.536 43.1771L127.461 41.723L129.059 41.6404L129.134 43.0945L127.536 43.1771ZM132.013 52.8148L131.693 46.647C131.678 46.3487 131.646 46.046 131.598 45.7387C131.561 45.4202 131.518 45.1074 131.47 44.8001L132.716 44.7356L132.967 46.485L132.775 46.4949C132.977 45.865 133.326 45.377 133.821 45.031C134.326 44.6737 134.919 44.4775 135.601 44.4422C136.549 44.3932 137.276 44.6119 137.782 45.0985C138.298 45.5738 138.584 46.3547 138.64 47.4413L138.899 52.4586L137.605 52.5255L137.35 47.5881C137.311 46.8318 137.128 46.2912 136.801 45.9663C136.485 45.6302 136.007 45.4786 135.368 45.5117C134.622 45.5503 134.043 45.8099 133.63 46.2905C133.217 46.7712 133.03 47.395 133.07 48.1619L133.307 52.7478L132.013 52.8148ZM145.091 55.7111C144.398 55.7469 143.755 55.6948 143.16 55.5546C142.565 55.4145 142.024 55.1808 141.538 54.8535L141.871 53.859C142.213 54.0762 142.547 54.2458 142.874 54.3678C143.201 54.4897 143.536 54.5739 143.881 54.6202C144.225 54.6771 144.589 54.6956 144.973 54.6758C145.761 54.635 146.347 54.3965 146.73 53.9601C147.114 53.5237 147.285 52.922 147.246 52.155L147.124 49.8062L147.284 49.7979C147.146 50.4352 146.82 50.9541 146.307 51.3545C145.793 51.7442 145.179 51.9575 144.466 51.9944C143.731 52.0324 143.083 51.9057 142.524 51.6142C141.974 51.3116 141.534 50.8697 141.205 50.2886C140.886 49.6962 140.706 48.99 140.663 48.1697C140.621 47.3601 140.729 46.6496 140.985 46.0382C141.253 45.4263 141.645 44.9467 142.161 44.5996C142.687 44.2413 143.318 44.0431 144.053 44.0051C144.777 43.9676 145.409 44.1165 145.95 44.4517C146.501 44.7863 146.879 45.2688 147.082 45.8991L146.914 45.7476L146.968 43.9985L148.23 43.9332C148.204 44.2443 148.188 44.5602 148.183 44.8809C148.178 45.1909 148.183 45.4951 148.198 45.7933L148.515 51.9132C148.577 53.1062 148.314 54.0223 147.728 54.6615C147.152 55.3001 146.273 55.65 145.091 55.7111ZM144.651 50.9274C145.429 50.8872 146.028 50.5999 146.449 50.0654C146.869 49.5203 147.055 48.779 147.007 47.8416C146.958 46.9042 146.697 46.1914 146.223 45.7032C145.749 45.2151 145.124 44.9911 144.346 45.0313C143.579 45.071 142.98 45.3583 142.548 45.8933C142.116 46.4283 141.925 47.1645 141.973 48.102C142.022 49.0394 142.289 49.7572 142.774 50.2555C143.258 50.7431 143.884 50.9671 144.651 50.9274ZM151.003 51.8326L150.394 40.0723L151.689 40.0053L152.297 51.7656L151.003 51.8326ZM158.381 51.5951C157.124 51.6602 156.114 51.3492 155.353 50.6623C154.59 49.9648 154.175 48.9662 154.108 47.6666C154.065 46.825 154.187 46.0871 154.474 45.4527C154.761 44.8077 155.184 44.2999 155.741 43.9292C156.298 43.548 156.95 43.338 157.695 43.2995C158.43 43.2615 159.056 43.384 159.573 43.667C160.09 43.95 160.496 44.3722 160.792 44.9337C161.087 45.4845 161.255 46.1487 161.296 46.9264L161.32 47.4057L155.105 47.7272L155.063 46.9123L160.431 46.6346L160.17 46.8564C160.126 46.0042 159.9 45.3483 159.492 44.8888C159.084 44.4293 158.501 44.2191 157.745 44.2582C156.946 44.2995 156.338 44.614 155.919 45.2017C155.501 45.7788 155.316 46.5414 155.365 47.4894L155.372 47.6333C155.424 48.6346 155.708 49.3836 156.225 49.8802C156.752 50.3656 157.463 50.5852 158.358 50.5389C158.838 50.5141 159.281 50.4217 159.69 50.2618C160.108 50.0906 160.5 49.83 160.867 49.4799L161.361 50.3675C161.028 50.7266 160.594 51.0161 160.061 51.2359C159.537 51.4445 158.977 51.5643 158.381 51.5951ZM168.083 50.9491L167.721 43.9345L166.155 44.0155L166.103 43.0088L168.02 42.9097L167.686 43.2634L167.616 41.9212C167.57 41.0157 167.763 40.3115 168.196 39.8084C168.629 39.3054 169.272 39.0318 170.124 38.9877C170.337 38.9767 170.557 38.9867 170.783 39.0178C171.019 39.0376 171.213 39.0756 171.365 39.1318L171.421 40.2024C171.29 40.1557 171.128 40.1214 170.935 40.0994C170.752 40.0661 170.564 40.0544 170.372 40.0644C170.042 40.0814 169.763 40.1653 169.536 40.3159C169.308 40.4558 169.143 40.662 169.039 40.9344C168.936 41.2067 168.895 41.5506 168.917 41.9661L168.977 43.1325L168.755 42.8716L171.2 42.7452L171.252 43.7518L169.015 43.8675L169.378 50.8822L168.083 50.9491ZM176.048 50.6813C175.335 50.7183 174.703 50.5854 174.153 50.2827C173.603 49.9694 173.163 49.5115 172.833 48.9091C172.513 48.3061 172.331 47.5732 172.286 46.7104C172.241 45.8369 172.346 45.0838 172.602 44.451C172.868 43.8178 173.259 43.3223 173.775 42.9645C174.29 42.6067 174.905 42.4094 175.619 42.3725C176.343 42.335 176.976 42.4892 177.517 42.835C178.068 43.1696 178.446 43.6468 178.648 44.2665L178.457 44.2764L178.534 42.3659L179.78 42.3014C179.764 42.612 179.749 42.9279 179.733 43.2491C179.728 43.5591 179.733 43.8633 179.749 44.1615L180.068 50.3293L178.773 50.3962L178.676 48.5107L178.851 48.5016C178.714 49.139 178.388 49.6525 177.874 50.0422C177.36 50.4319 176.751 50.645 176.048 50.6813ZM176.249 49.6135C177.016 49.5739 177.61 49.2815 178.031 48.7364C178.45 48.1806 178.634 47.3967 178.582 46.3848C178.529 45.3621 178.265 44.6014 177.791 44.1026C177.316 43.5931 176.695 43.3582 175.928 43.3978C175.172 43.437 174.578 43.7347 174.148 44.291C173.727 44.8361 173.544 45.62 173.596 46.6426C173.649 47.6546 173.912 48.4153 174.387 48.9248C174.872 49.4231 175.493 49.6527 176.249 49.6135ZM185.422 50.1966C184.633 50.2373 184.02 50.0448 183.581 49.6188C183.142 49.1823 182.899 48.5059 182.851 47.5898L182.623 43.1637L181.057 43.2447L181.005 42.2381L182.57 42.1571L182.457 39.968L183.733 39.5336L183.865 42.0901L186.166 41.9711L186.218 42.9778L183.917 43.0968L184.138 47.3791C184.171 48.0182 184.302 48.4708 184.529 48.7367C184.766 48.9914 185.104 49.1075 185.54 49.0849C185.743 49.0745 185.923 49.0491 186.081 49.0089C186.239 48.958 186.38 48.9027 186.505 48.8428L186.561 49.9293C186.415 50.001 186.237 50.0583 186.025 50.1012C185.825 50.1543 185.624 50.1861 185.422 50.1966ZM188.156 49.9109L187.548 38.1506L188.842 38.0837L189.127 43.5963L188.92 43.6071C189.111 42.967 189.459 42.4737 189.965 42.1271C190.48 41.7693 191.084 41.5726 191.776 41.5367C192.735 41.4872 193.462 41.7112 193.958 42.209C194.453 42.696 194.728 43.4615 194.782 44.5055L195.043 49.5547L193.749 49.6217L193.492 44.6523C193.453 43.9066 193.276 43.3711 192.96 43.0456C192.655 42.7196 192.177 42.5734 191.527 42.607C190.782 42.6456 190.197 42.9055 189.773 43.3867C189.36 43.8673 189.173 44.4805 189.212 45.2261L189.45 49.844L188.156 49.9109ZM201.089 49.3862C199.832 49.4512 198.823 49.1403 198.061 48.4534C197.299 47.7558 196.884 46.7572 196.817 45.4576C196.773 44.6161 196.895 43.8781 197.183 43.2438C197.47 42.5987 197.892 42.0909 198.45 41.7203C199.007 41.339 199.658 41.1291 200.404 41.0905C201.139 41.0525 201.765 41.175 202.281 41.458C202.798 41.7411 203.204 42.1633 203.501 42.7248C203.796 43.2756 203.964 43.9398 204.004 44.7174L204.029 45.1968L197.813 45.5182L197.771 44.7033L203.14 44.4257L202.879 44.6474C202.835 43.7952 202.609 43.1394 202.2 42.6798C201.792 42.2203 201.21 42.0101 200.454 42.0492C199.655 42.0906 199.046 42.4051 198.628 42.9928C198.209 43.5699 198.024 44.3324 198.073 45.2805L198.081 45.4243C198.133 46.4256 198.417 47.1746 198.934 47.6712C199.461 48.1567 200.172 48.3762 201.067 48.3299C201.546 48.3052 201.99 48.2128 202.398 48.0528C202.817 47.8816 203.209 47.621 203.575 47.271L204.07 48.1586C203.736 48.5177 203.302 48.8071 202.769 49.0269C202.246 49.2356 201.686 49.3553 201.089 49.3862ZM206.178 48.9788L205.863 42.8909C205.847 42.5714 205.819 42.247 205.781 41.9179C205.753 41.5882 205.715 41.2697 205.667 40.9625L206.914 40.898L207.174 42.8391L206.952 42.8667C207.033 42.3818 207.199 41.978 207.45 41.6553C207.7 41.3326 208.002 41.0874 208.357 40.9195C208.711 40.741 209.085 40.6415 209.479 40.6211C209.639 40.6129 209.778 40.611 209.895 40.6156C210.024 40.6197 210.142 40.6402 210.251 40.6773L210.294 41.8286C210.132 41.7836 209.981 41.7594 209.842 41.7559C209.713 41.7412 209.563 41.7383 209.393 41.7471C208.924 41.7713 208.52 41.9044 208.18 42.1463C207.851 42.3876 207.605 42.6887 207.442 43.0496C207.289 43.41 207.223 43.7872 207.244 44.1813L207.488 48.911L206.178 48.9788ZM212.197 50.4939L211.566 50.062C211.838 49.7488 212.01 49.4569 212.081 49.1862C212.164 48.9255 212.198 48.6621 212.185 48.3958L212.486 48.6525L211.432 48.7071L211.347 47.0773L212.977 46.993L213.037 48.1434C213.059 48.5695 213.01 48.9726 212.891 49.3526C212.772 49.7432 212.541 50.1237 212.197 50.4939ZM219.633 48.2829L219.05 37.0179L220.377 36.9493L220.959 48.2143L219.633 48.2829ZM40.8311 84.5669L37.4442 76.6993L38.8184 76.6283L41.6604 83.5627L41.2449 83.5842L43.4362 76.3894L44.5547 76.3316L47.4286 83.2644L47.0292 83.285L49.1566 76.0936L50.4668 76.0258L47.8937 84.2016L46.6473 84.2661L43.6877 77.2255L44.3269 77.1925L42.0934 84.5016L40.8311 84.5669ZM55.481 83.9534C54.7673 83.9903 54.1356 83.8574 53.5859 83.5547C53.0356 83.2414 52.5954 82.7835 52.2652 82.1811C51.9456 81.5781 51.7635 80.8452 51.7189 79.9824C51.6737 79.1089 51.7789 78.3558 52.0346 77.7231C52.3009 77.0898 52.6918 76.5943 53.2074 76.2365C53.7229 75.8787 54.3375 75.6814 55.0512 75.6445C55.7756 75.607 56.4084 75.7612 56.9497 76.107C57.501 76.4417 57.8782 76.9188 58.0811 77.5385L57.8894 77.5484L57.9668 75.6379L59.2131 75.5734C59.1971 75.884 59.1814 76.1999 59.166 76.5211C59.1607 76.8311 59.1657 77.1353 59.1812 77.4335L59.5002 83.6013L58.2059 83.6682L58.1084 81.7828L58.2841 81.7737C58.1462 82.411 57.8203 82.9245 57.3064 83.3142C56.7925 83.704 56.184 83.917 55.481 83.9534ZM55.6821 82.8856C56.4491 82.8459 57.0428 82.5535 57.4632 82.0084C57.883 81.4526 58.0668 80.6688 58.0144 79.6568C57.9615 78.6341 57.6979 77.8734 57.2235 77.3746C56.7485 76.8651 56.1276 76.6302 55.3606 76.6699C54.6043 76.709 54.0109 77.0067 53.5804 77.563C53.16 78.1081 52.9762 78.892 53.0291 79.9146C53.0814 80.9266 53.3451 81.6873 53.82 82.1968C54.3051 82.6951 54.9258 82.9247 55.6821 82.8856ZM62.0026 83.4719L61.6836 77.3041C61.6681 77.0058 61.6365 76.7031 61.5885 76.3958C61.5507 76.0773 61.5078 75.7645 61.4599 75.4572L62.7062 75.3927L62.9569 77.1421L62.7652 77.152C62.9676 76.5221 63.3161 76.0341 63.8109 75.6881C64.3158 75.3309 64.9091 75.1346 65.5909 75.0993C66.539 75.0503 67.2659 75.2691 67.7717 75.7556C68.2876 76.2309 68.5737 77.0118 68.6299 78.0984L68.8894 83.1157L67.5951 83.1826L67.3397 78.2452C67.3006 77.4889 67.1178 76.9483 66.7912 76.6234C66.4748 76.2873 65.997 76.1358 65.3578 76.1688C64.6122 76.2074 64.0328 76.467 63.6197 76.9476C63.2067 77.4283 63.02 78.0521 63.0597 78.8191L63.2968 83.4049L62.0026 83.4719ZM74.2167 82.9843C73.4284 83.0251 72.815 82.8325 72.3764 82.4066C71.9373 81.97 71.694 81.2937 71.6466 80.3776L71.4177 75.9515L69.8518 76.0325L69.7997 75.0259L71.3656 74.9449L71.2524 72.7558L72.5277 72.3213L72.6599 74.8779L74.9608 74.7589L75.0129 75.7656L72.712 75.8846L72.9334 80.1669C72.9665 80.806 73.0967 81.2585 73.3241 81.5245C73.5616 81.7792 73.8987 81.8953 74.3354 81.8727C74.5378 81.8622 74.7181 81.8369 74.8762 81.7967C75.0338 81.7458 75.1751 81.6904 75.3002 81.6306L75.3564 82.7171C75.2106 82.7887 75.032 82.846 74.8206 82.889C74.6204 82.9421 74.4191 82.9739 74.2167 82.9843ZM83.9693 82.4799C83.181 82.5207 82.5676 82.3281 82.129 81.9022C81.6898 81.4656 81.4466 80.7893 81.3992 79.8732L81.1703 75.4471L79.6044 75.5281L79.5523 74.5214L81.1182 74.4404L81.005 72.2514L82.2803 71.8169L82.4125 74.3735L84.7134 74.2545L84.7655 75.2611L82.4646 75.3802L82.686 79.6624C82.7191 80.3016 82.8493 80.7541 83.0767 81.0201C83.3142 81.2748 83.6513 81.3909 84.088 81.3683C84.2904 81.3578 84.4707 81.3325 84.6288 81.2923C84.7864 81.2414 84.9277 81.186 85.0528 81.1261L85.109 82.2127C84.9632 82.2843 84.7846 82.3416 84.5732 82.3846C84.373 82.4377 84.1717 82.4694 83.9693 82.4799ZM89.9249 82.1719C89.158 82.2115 88.4783 82.0811 87.886 81.7807C87.3038 81.469 86.8423 81.0122 86.5014 80.4104C86.16 79.7978 85.9672 79.0655 85.9231 78.2133C85.8785 77.3504 85.9947 76.6021 86.2716 75.9683C86.5486 75.3345 86.9608 74.8379 87.5083 74.4784C88.0659 74.1078 88.7282 73.9026 89.4952 73.863C90.2728 73.8228 90.9527 73.9585 91.5349 74.2702C92.1273 74.5706 92.5939 75.0218 92.9347 75.6237C93.2863 76.225 93.4843 76.9571 93.529 77.8199C93.573 78.6721 93.4515 79.4207 93.1645 80.0657C92.8875 80.6996 92.4702 81.2018 91.9126 81.5724C91.3651 81.9318 90.7026 82.1317 89.9249 82.1719ZM89.8704 81.1173C90.6374 81.0776 91.2311 80.7852 91.6515 80.2401C92.0713 79.6844 92.2551 78.9005 92.2027 77.8885C92.1498 76.8659 91.8809 76.1054 91.3958 75.6071C90.9209 75.0977 90.3052 74.8625 89.5489 74.9016C88.7926 74.9407 88.2045 75.2382 87.7846 75.7939C87.3642 76.339 87.1805 77.1229 87.2334 78.1455C87.2857 79.1575 87.5494 79.9182 88.0243 80.4277C88.4987 80.9265 89.1141 81.1564 89.8704 81.1173ZM103.491 81.4702C102.234 81.5352 101.225 81.2243 100.463 80.5374C99.7007 79.8398 99.2859 78.8412 99.2187 77.5416C99.1752 76.7001 99.2972 75.9622 99.5848 75.3278C99.8719 74.6828 100.294 74.1749 100.852 73.8043C101.409 73.423 102.06 73.2131 102.806 73.1745C103.541 73.1365 104.167 73.259 104.683 73.542C105.2 73.8251 105.606 74.2473 105.902 74.8088C106.198 75.3596 106.366 76.0238 106.406 76.8014L106.431 77.2808L100.215 77.6023L100.173 76.7873L105.542 76.5097L105.281 76.7314C105.237 75.8792 105.011 75.2234 104.602 74.7639C104.194 74.3043 103.612 74.0941 102.855 74.1332C102.057 74.1746 101.448 74.4891 101.03 75.0768C100.611 75.6539 100.426 76.4164 100.475 77.3645L100.483 77.5083C100.534 78.5096 100.819 79.2586 101.336 79.7552C101.863 80.2407 102.574 80.4602 103.469 80.414C103.948 80.3892 104.392 80.2968 104.8 80.1368C105.219 79.9656 105.611 79.705 105.977 79.355L106.472 80.2426C106.138 80.6017 105.704 80.8911 105.171 81.111C104.648 81.3196 104.088 81.4393 103.491 81.4702ZM107.463 81.1206L110.828 76.4766L110.861 77.1157L107.24 73.0894L108.806 73.0084L111.548 76.151L111.085 76.1749L113.472 72.7671L115.022 72.6869L111.883 77.0469L111.852 76.4557L115.644 80.6974L114.062 80.7793L111.133 77.4221L111.612 77.3973L109.013 81.0404L107.463 81.1206ZM120.308 80.6004C119.52 80.6412 118.824 80.5063 118.22 80.1957C117.628 79.8846 117.155 79.423 116.803 78.8111C116.462 78.1986 116.269 77.4609 116.224 76.598C116.179 75.7245 116.3 74.9759 116.588 74.3522C116.876 73.7178 117.299 73.226 117.858 72.8767C118.427 72.5268 119.101 72.3317 119.878 72.2915C120.39 72.2651 120.89 72.33 121.378 72.4863C121.878 72.642 122.296 72.8768 122.632 73.1905L122.217 74.1412C121.881 73.8488 121.518 73.638 121.127 73.5087C120.746 73.3788 120.375 73.3232 120.013 73.342C119.182 73.385 118.551 73.6793 118.12 74.2249C117.689 74.7706 117.499 75.5441 117.551 76.5454C117.602 77.5361 117.871 78.2912 118.357 78.8108C118.843 79.3304 119.502 79.5687 120.333 79.5257C120.684 79.5075 121.043 79.4196 121.408 79.2618C121.785 79.1035 122.13 78.856 122.443 78.5193L122.954 79.4062C122.641 79.7641 122.245 80.0463 121.764 80.2527C121.283 80.4592 120.798 80.5751 120.308 80.6004ZM124.84 80.2218L124.232 68.4615L125.526 68.3946L125.812 73.9072L125.604 73.918C125.795 73.2779 126.143 72.7846 126.649 72.438C127.164 72.0802 127.768 71.8834 128.461 71.8476C129.419 71.798 130.147 72.0221 130.642 72.5198C131.138 73.0069 131.412 73.7724 131.466 74.8164L131.727 79.8656L130.433 79.9325L130.176 74.9632C130.137 74.2175 129.96 73.682 129.644 73.3565C129.339 73.0305 128.861 72.8843 128.212 72.9179C127.466 72.9565 126.881 73.2164 126.458 73.6976C126.045 74.1782 125.857 74.7914 125.896 75.537L126.135 80.1549L124.84 80.2218ZM137.262 79.7235C136.549 79.7604 135.917 79.6275 135.367 79.3249C134.817 79.0115 134.377 78.5537 134.046 77.9513C133.727 77.3483 133.545 76.6154 133.5 75.7525C133.455 74.879 133.56 74.1259 133.816 73.4932C134.082 72.8599 134.473 72.3644 134.989 72.0067C135.504 71.6489 136.119 71.4515 136.833 71.4146C137.557 71.3772 138.19 71.5313 138.731 71.8772C139.282 72.2118 139.659 72.689 139.862 73.3086L139.671 73.3186L139.748 71.408L140.994 71.3436C140.978 71.6541 140.963 71.97 140.947 72.2913C140.942 72.6013 140.947 72.9054 140.962 73.2037L141.281 79.3714L139.987 79.4384L139.89 77.5529L140.065 77.5438C139.928 78.1811 139.602 78.6946 139.088 79.0844C138.574 79.4741 137.965 79.6871 137.262 79.7235ZM137.463 78.6557C138.23 78.616 138.824 78.3236 139.244 77.7785C139.664 77.2228 139.848 76.4389 139.796 75.4269C139.743 74.4043 139.479 73.6436 139.005 73.1447C138.53 72.6352 137.909 72.4003 137.142 72.44C136.386 72.4791 135.792 72.7768 135.362 73.3332C134.941 73.8783 134.758 74.6621 134.81 75.6848C134.863 76.6967 135.126 77.4575 135.601 77.967C136.086 78.4652 136.707 78.6948 137.463 78.6557ZM143.784 79.242L143.465 73.0743C143.449 72.776 143.418 72.4732 143.37 72.166C143.332 71.8475 143.289 71.5346 143.241 71.2273L144.488 71.1629L144.738 72.9123L144.546 72.9222C144.749 72.2922 145.097 71.8042 145.592 71.4582C146.097 71.101 146.69 70.9048 147.372 70.8695C148.32 70.8205 149.047 71.0392 149.553 71.5257C150.069 72.001 150.355 72.782 150.411 73.8685L150.671 78.8858L149.376 78.9528L149.121 74.0154C149.082 73.259 148.899 72.7184 148.573 72.3935C148.256 72.0574 147.778 71.9059 147.139 71.939C146.393 71.9775 145.814 72.2371 145.401 72.7178C144.988 73.1984 144.801 73.8222 144.841 74.5892L145.078 79.1751L143.784 79.242ZM156.862 82.1384C156.17 82.1742 155.526 82.122 154.931 81.9819C154.337 81.8417 153.796 81.608 153.309 81.2807L153.642 80.2862C153.984 80.5035 154.319 80.6731 154.646 80.7951C154.972 80.917 155.308 81.0011 155.652 81.0474C155.997 81.1043 156.361 81.1229 156.744 81.1031C157.533 81.0623 158.118 80.8237 158.502 80.3873C158.885 79.951 159.057 79.3493 159.017 78.5823L158.896 76.2334L159.055 76.2252C158.918 76.8625 158.592 77.3813 158.079 77.7817C157.565 78.1714 156.951 78.3848 156.237 78.4217C155.502 78.4597 154.855 78.333 154.295 78.0415C153.745 77.7388 153.306 77.2969 152.977 76.7158C152.658 76.1235 152.477 75.4172 152.434 74.597C152.393 73.7874 152.5 73.0769 152.757 72.4655C153.024 71.8535 153.416 71.374 153.932 71.0269C154.458 70.6685 155.089 70.4704 155.824 70.4324C156.548 70.3949 157.181 70.5438 157.722 70.8789C158.273 71.2136 158.65 71.6961 158.854 72.3264L158.686 72.1749L158.739 70.4258L160.002 70.3605C159.975 70.6716 159.959 70.9875 159.955 71.3082C159.949 71.6182 159.954 71.9223 159.97 72.2206L160.286 78.3404C160.348 79.5335 160.086 80.4496 159.499 81.0887C158.923 81.7273 158.044 82.0772 156.862 82.1384ZM156.422 77.3547C157.2 77.3145 157.799 77.0271 158.22 76.4927C158.641 75.9476 158.827 75.2063 158.778 74.2689C158.73 73.3315 158.468 72.6187 157.995 72.1305C157.521 71.6423 156.895 71.4184 156.117 71.4586C155.35 71.4982 154.751 71.7856 154.319 72.3206C153.888 72.8556 153.696 73.5918 153.745 74.5292C153.793 75.4666 154.06 76.1845 154.545 76.6828C155.03 77.1704 155.655 77.3944 156.422 77.3547ZM166.345 78.2193C165.088 78.2843 164.078 77.9734 163.317 77.2865C162.554 76.5889 162.139 75.5904 162.072 74.2908C162.029 73.4492 162.151 72.7113 162.438 72.0769C162.725 71.4319 163.148 70.9241 163.705 70.5534C164.262 70.1721 164.914 69.9622 165.659 69.9236C166.394 69.8856 167.02 70.0081 167.537 70.2912C168.054 70.5742 168.46 70.9964 168.756 71.5579C169.051 72.1087 169.219 72.7729 169.26 73.5505L169.284 74.0299L163.069 74.3514L163.026 73.5365L168.395 73.2588L168.134 73.4806C168.09 72.6284 167.864 71.9725 167.456 71.513C167.048 71.0535 166.465 70.8433 165.709 70.8824C164.91 70.9237 164.301 71.2382 163.883 71.8259C163.465 72.403 163.28 73.1656 163.329 74.1136L163.336 74.2574C163.388 75.2588 163.672 76.0077 164.189 76.5044C164.716 76.9898 165.427 77.2094 166.322 77.1631C166.802 77.1383 167.245 77.0459 167.654 76.8859C168.072 76.7148 168.464 76.4541 168.831 76.1041L169.325 76.9917C168.991 77.3508 168.558 77.6402 168.024 77.8601C167.501 78.0687 166.941 78.1885 166.345 78.2193ZM43.4635 111.611C42.6753 111.652 41.9794 111.517 41.3758 111.206C40.783 110.895 40.3105 110.434 39.9584 109.822C39.617 109.209 39.424 108.471 39.3793 107.609C39.3342 106.735 39.4557 105.987 39.7438 105.363C40.0314 104.728 40.4546 104.237 41.0133 103.887C41.5827 103.537 42.2562 103.342 43.0338 103.302C43.5451 103.276 44.0451 103.341 44.5338 103.497C45.0332 103.653 45.4512 103.887 45.7879 104.201L45.3724 105.152C45.0369 104.859 44.6735 104.649 44.2823 104.519C43.9018 104.389 43.5304 104.334 43.1682 104.353C42.3373 104.396 41.7064 104.69 41.2753 105.236C40.8442 105.781 40.6546 106.555 40.7064 107.556C40.7576 108.547 41.0263 109.302 41.5125 109.821C41.9986 110.341 42.6572 110.579 43.4881 110.536C43.8396 110.518 44.1982 110.43 44.5639 110.272C44.9402 110.114 45.2852 109.867 45.5989 109.53L46.1094 110.417C45.7968 110.775 45.4002 111.057 44.9195 111.263C44.4389 111.47 43.9535 111.586 43.4635 111.611ZM50.8316 111.23C49.8835 111.279 49.151 111.055 48.6339 110.559C48.1276 110.061 47.8466 109.275 47.7909 108.199L47.5331 103.214L48.8274 103.147L49.0836 108.1C49.1216 108.835 49.2988 109.371 49.6153 109.707C49.9312 110.032 50.4034 110.179 51.0318 110.146C51.7349 110.11 52.2876 109.852 52.69 109.371C53.0924 108.891 53.2738 108.268 53.2341 107.501L52.9978 102.931L54.2921 102.864L54.7069 110.885L53.4446 110.951L53.3512 109.145L53.559 109.134C53.3672 109.764 53.0298 110.262 52.5468 110.629C52.0744 110.995 51.5027 111.195 50.8316 111.23ZM57.186 110.757L56.8711 104.669C56.8546 104.35 56.8271 104.025 56.7887 103.696C56.761 103.367 56.7232 103.048 56.6752 102.741L57.9216 102.676L58.1822 104.617L57.9593 104.645C58.041 104.16 58.2071 103.756 58.4574 103.434C58.7077 103.111 59.0101 102.866 59.3646 102.698C59.7185 102.519 60.0926 102.42 60.4867 102.399C60.6465 102.391 60.7852 102.389 60.903 102.394C61.0314 102.398 61.1499 102.419 61.2586 102.456L61.3022 103.607C61.1396 103.562 60.9888 103.538 60.8498 103.534C60.7209 103.52 60.5712 103.517 60.4007 103.525C59.932 103.55 59.5277 103.683 59.1877 103.925C58.8584 104.166 58.6123 104.467 58.4494 104.828C58.2972 105.188 58.2312 105.565 58.2516 105.96L58.4962 110.689L57.186 110.757ZM62.9907 110.457L62.6759 104.369C62.6593 104.049 62.6319 103.725 62.5935 103.396C62.5658 103.066 62.5279 102.748 62.48 102.441L63.7263 102.376L63.9869 104.317L63.7641 104.345C63.8458 103.86 64.0118 103.456 64.2622 103.133C64.5125 102.811 64.8149 102.565 65.1694 102.398C65.5233 102.219 65.8973 102.12 66.2914 102.099C66.4512 102.091 66.59 102.089 66.7077 102.094C66.8361 102.098 66.9546 102.118 67.0634 102.155L67.1069 103.307C66.9444 103.262 66.7936 103.237 66.6545 103.234C66.5256 103.219 66.3759 103.216 66.2055 103.225C65.7368 103.249 65.3324 103.382 64.9925 103.624C64.6632 103.866 64.4171 104.167 64.2542 104.528C64.1019 104.888 64.036 105.265 64.0564 105.659L64.301 110.389L62.9907 110.457ZM72.3045 110.119C71.0475 110.184 70.0381 109.873 69.2763 109.186C68.5139 108.489 68.0991 107.49 68.0319 106.191C67.9883 105.349 68.1104 104.611 68.398 103.977C68.6851 103.332 69.1074 102.824 69.665 102.453C70.222 102.072 70.8734 101.862 71.6191 101.824C72.3541 101.786 72.9799 101.908 73.4966 102.191C74.0132 102.474 74.4196 102.896 74.7156 103.458C75.0111 104.009 75.179 104.673 75.2192 105.451L75.244 105.93L69.0283 106.251L68.9862 105.436L74.355 105.159L74.0941 105.381C74.05 104.528 73.8238 103.873 73.4156 103.413C73.0073 102.953 72.425 102.743 71.6687 102.782C70.8697 102.824 70.2612 103.138 69.843 103.726C69.4242 104.303 69.2393 105.066 69.2884 106.014L69.2958 106.157C69.3476 107.159 69.632 107.908 70.149 108.404C70.6761 108.89 71.3871 109.109 72.2819 109.063C72.7613 109.038 73.2051 108.946 73.6134 108.786C74.0317 108.615 74.4241 108.354 74.7905 108.004L75.285 108.892C74.9512 109.251 74.5175 109.54 73.9842 109.76C73.4609 109.969 72.901 110.088 72.3045 110.119ZM77.4253 109.71L77.1063 103.543C77.0909 103.244 77.0592 102.941 77.0113 102.634C76.9734 102.316 76.9305 102.003 76.8826 101.696L78.1289 101.631L78.3796 103.381L78.1879 103.39C78.3903 102.76 78.7389 102.272 79.2337 101.926C79.7386 101.569 80.3319 101.373 81.0136 101.338C81.9617 101.289 82.6886 101.507 83.1944 101.994C83.7104 102.469 83.9964 103.25 84.0526 104.337L84.3121 109.354L83.0178 109.421L82.7625 104.484C82.7233 103.727 82.5405 103.187 82.214 102.862C81.8975 102.526 81.4197 102.374 80.7806 102.407C80.0349 102.446 79.4555 102.705 79.0425 103.186C78.6294 103.667 78.4427 104.29 78.4824 105.057L78.7196 109.643L77.4253 109.71ZM90.1667 109.195C89.3784 109.236 88.6826 109.101 88.079 108.791C87.4862 108.48 87.0137 108.018 86.6616 107.406C86.3202 106.794 86.1272 106.056 86.0825 105.193C86.0374 104.32 86.1589 103.571 86.447 102.947C86.7346 102.313 87.1578 101.821 87.7165 101.472C88.2859 101.122 88.9594 100.927 89.737 100.887C90.2483 100.86 90.7483 100.925 91.237 101.081C91.7364 101.237 92.1544 101.472 92.4911 101.786L92.0756 102.736C91.7401 102.444 91.3767 102.233 90.9855 102.104C90.605 101.974 90.2336 101.918 89.8714 101.937C89.0405 101.98 88.4096 102.274 87.9785 102.82C87.5474 103.366 87.3578 104.139 87.4096 105.14C87.4608 106.131 87.7295 106.886 88.2157 107.406C88.7018 107.925 89.3604 108.164 90.1912 108.121C90.5428 108.103 90.9014 108.015 91.2671 107.857C91.6434 107.699 91.9884 107.451 92.3021 107.114L92.8126 108.001C92.5 108.359 92.1034 108.641 91.6227 108.848C91.1421 109.054 90.6567 109.17 90.1667 109.195ZM94.6295 112.457L94.2706 111.402C94.7652 111.259 95.1735 111.099 95.4954 110.923C95.8286 110.756 96.1004 110.539 96.3109 110.272C96.5214 110.004 96.6966 109.675 96.8365 109.283L97.2032 108.319L97.1994 108.864L93.2761 100.848L94.6822 100.775L97.9388 107.672L97.5233 107.693L100.019 100.499L101.377 100.429L98.1198 109.313C97.9332 109.835 97.7209 110.273 97.4828 110.627C97.2454 110.992 96.983 111.289 96.6957 111.517C96.4197 111.756 96.1092 111.948 95.7643 112.094C95.4194 112.24 95.0411 112.361 94.6295 112.457ZM107.416 108.159L107.002 100.138L108.296 100.071L108.711 108.092L107.416 108.159ZM106.748 98.3245L106.672 96.8704L108.27 96.7878L108.345 98.2419L106.748 98.3245ZM111.224 107.962L110.905 101.794C110.889 101.496 110.858 101.193 110.81 100.886C110.772 100.568 110.729 100.255 110.681 99.9475L111.928 99.883L112.178 101.632L111.986 101.642C112.189 101.012 112.537 100.524 113.032 100.178C113.537 99.8211 114.13 99.6249 114.812 99.5896C115.76 99.5406 116.487 99.7593 116.993 100.246C117.509 100.721 117.795 101.502 117.851 102.589L118.111 107.606L116.816 107.673L116.561 102.736C116.522 101.979 116.339 101.439 116.013 101.114C115.696 100.778 115.218 100.626 114.579 100.659C113.833 100.698 113.254 100.957 112.841 101.438C112.428 101.919 112.241 102.542 112.281 103.309L112.518 107.895L111.224 107.962ZM123.262 107.484C122.623 107.517 122.022 107.462 121.459 107.321C120.896 107.168 120.425 106.942 120.046 106.641L120.447 105.707C120.857 105.995 121.295 106.202 121.761 106.328C122.237 106.453 122.725 106.502 123.226 106.476C123.865 106.443 124.339 106.307 124.647 106.066C124.965 105.815 125.114 105.487 125.093 105.082C125.077 104.773 124.957 104.534 124.735 104.363C124.523 104.182 124.179 104.05 123.705 103.968L122.204 103.741C121.514 103.628 120.99 103.404 120.631 103.07C120.271 102.725 120.077 102.276 120.048 101.722C120.024 101.253 120.125 100.837 120.352 100.473C120.578 100.098 120.921 99.7971 121.379 99.5704C121.837 99.3331 122.38 99.1982 123.008 99.1657C123.594 99.1354 124.137 99.1981 124.636 99.3539C125.146 99.4984 125.574 99.7273 125.921 100.04L125.504 100.959C125.169 100.667 124.789 100.457 124.366 100.329C123.953 100.19 123.528 100.132 123.091 100.155C122.463 100.187 121.996 100.34 121.689 100.612C121.393 100.873 121.255 101.206 121.276 101.61C121.292 101.919 121.401 102.17 121.604 102.363C121.816 102.544 122.132 102.672 122.553 102.746L124.054 102.973C124.787 103.095 125.338 103.318 125.707 103.64C126.086 103.952 126.29 104.39 126.32 104.954C126.344 105.434 126.233 105.861 125.985 106.237C125.737 106.603 125.379 106.894 124.909 107.11C124.45 107.326 123.901 107.451 123.262 107.484ZM131.287 107.069C130.499 107.109 129.885 106.917 129.447 106.491C129.007 106.054 128.764 105.378 128.717 104.462L128.488 100.036L126.922 100.117L126.87 99.1102L128.436 99.0292L128.323 96.8401L129.598 96.4057L129.73 98.9623L132.031 98.8432L132.083 99.8499L129.782 99.9689L130.004 104.251C130.037 104.89 130.167 105.343 130.394 105.609C130.632 105.864 130.969 105.98 131.406 105.957C131.608 105.947 131.788 105.921 131.946 105.881C132.104 105.83 132.245 105.775 132.37 105.715L132.427 106.801C132.281 106.873 132.102 106.93 131.891 106.973C131.691 107.026 131.489 107.058 131.287 107.069ZM137.081 106.769C136.367 106.806 135.735 106.673 135.186 106.37C134.636 106.057 134.195 105.599 133.865 104.997C133.545 104.394 133.363 103.661 133.319 102.798C133.274 101.925 133.379 101.171 133.634 100.539C133.901 99.9054 134.292 99.4099 134.807 99.0521C135.323 98.6943 135.937 98.497 136.651 98.4601C137.376 98.4226 138.008 98.5768 138.55 98.9227C139.101 99.2573 139.478 99.7344 139.681 100.354L139.489 100.364L139.567 98.4535L140.813 98.389C140.797 98.6996 140.781 99.0155 140.766 99.3367C140.761 99.6467 140.766 99.9509 140.781 100.249L141.1 106.417L139.806 106.484L139.708 104.598L139.884 104.589C139.746 105.227 139.42 105.74 138.906 106.13C138.392 106.52 137.784 106.733 137.081 106.769ZM137.282 105.701C138.049 105.662 138.643 105.369 139.063 104.824C139.483 104.268 139.667 103.484 139.614 102.472C139.561 101.45 139.298 100.689 138.823 100.19C138.348 99.6807 137.727 99.4458 136.961 99.4855C136.204 99.5246 135.611 99.8223 135.18 100.379C134.76 100.924 134.576 101.708 134.629 102.73C134.681 103.742 134.945 104.503 135.42 105.012C135.905 105.511 136.526 105.74 137.282 105.701ZM143.602 106.287L143.283 100.12C143.268 99.8215 143.236 99.5187 143.188 99.2114C143.151 98.893 143.108 98.5801 143.06 98.2728L144.306 98.2084L144.557 99.9577L144.365 99.9677C144.567 99.3377 144.916 98.8497 145.411 98.5037C145.916 98.1465 146.509 97.9502 147.191 97.915C148.139 97.8659 148.866 98.0847 149.372 98.5712C149.888 99.0465 150.174 99.8274 150.23 100.914L150.489 105.931L149.195 105.998L148.94 101.061C148.901 100.305 148.718 99.7639 148.391 99.439C148.075 99.1029 147.597 98.9514 146.958 98.9844C146.212 99.023 145.633 99.2826 145.22 99.7632C144.807 100.244 144.62 100.868 144.66 101.635L144.897 106.221L143.602 106.287ZM155.817 105.8C155.028 105.841 154.415 105.648 153.976 105.222C153.537 104.786 153.294 104.109 153.247 103.193L153.018 98.7671L151.452 98.8481L151.4 97.8415L152.966 97.7605L152.852 95.5714L154.128 95.137L154.26 97.6935L156.561 97.5745L156.613 98.5812L154.312 98.7002L154.533 102.982C154.566 103.622 154.697 104.074 154.924 104.34C155.161 104.595 155.499 104.711 155.935 104.688C156.138 104.678 156.318 104.653 156.476 104.612C156.634 104.561 156.775 104.506 156.9 104.446L156.956 105.533C156.81 105.604 156.632 105.662 156.42 105.705C156.22 105.758 156.019 105.789 155.817 105.8ZM158.551 105.514L157.943 93.754L159.237 93.6871L159.846 105.447L158.551 105.514ZM162.227 108.961L161.868 107.906C162.362 107.763 162.771 107.603 163.093 107.426C163.426 107.26 163.698 107.043 163.908 106.775C164.119 106.508 164.294 106.179 164.434 105.787L164.8 104.823L164.797 105.368L160.873 97.3515L162.279 97.2788L165.536 104.176L165.12 104.197L167.616 97.0027L168.974 96.9325L165.717 105.817C165.53 106.339 165.318 106.777 165.08 107.131C164.843 107.496 164.58 107.793 164.293 108.021C164.017 108.26 163.706 108.452 163.361 108.598C163.017 108.744 162.638 108.865 162.227 108.961ZM178.313 104.636C177.546 104.676 176.866 104.546 176.274 104.245C175.692 103.934 175.23 103.477 174.889 102.875C174.548 102.262 174.355 101.53 174.311 100.678C174.266 99.815 174.382 99.0667 174.659 98.4328C174.936 97.799 175.349 97.3024 175.896 96.943C176.454 96.5723 177.116 96.3672 177.883 96.3275C178.661 96.2873 179.34 96.423 179.923 96.7347C180.515 97.0352 180.982 97.4863 181.322 98.0882C181.674 98.6895 181.872 99.4216 181.917 100.284C181.961 101.137 181.839 101.885 181.552 102.53C181.275 103.164 180.858 103.666 180.3 104.037C179.753 104.396 179.09 104.596 178.313 104.636ZM178.258 103.582C179.025 103.542 179.619 103.25 180.039 102.705C180.459 102.149 180.643 101.365 180.59 100.353C180.538 99.3304 180.269 98.57 179.784 98.0717C179.309 97.5622 178.693 97.327 177.937 97.3661C177.18 97.4053 176.592 97.7027 176.172 98.2585C175.752 98.8036 175.568 99.5874 175.621 100.61C175.673 101.622 175.937 102.383 176.412 102.892C176.886 103.391 177.502 103.621 178.258 103.582ZM184.142 104.191L183.823 98.023C183.808 97.7247 183.776 97.4219 183.728 97.1147C183.69 96.7962 183.647 96.4833 183.599 96.176L184.846 96.1116L185.096 97.861L184.905 97.8709C185.107 97.2409 185.456 96.7529 185.95 96.4069C186.455 96.0497 187.049 95.8535 187.73 95.8182C188.678 95.7692 189.405 95.9879 189.911 96.4744C190.427 96.9497 190.713 97.7307 190.769 98.8172L191.029 103.835L189.735 103.901L189.479 98.9641C189.44 98.2077 189.257 97.6671 188.931 97.3422C188.614 97.0061 188.136 96.8546 187.497 96.8877C186.752 96.9262 186.172 97.1858 185.759 97.6665C185.346 98.1471 185.159 98.7709 185.199 99.5379L185.436 104.124L184.142 104.191ZM197.671 103.491L197.352 97.3232C197.336 97.025 197.305 96.7222 197.257 96.4149C197.219 96.0965 197.176 95.7836 197.128 95.4763L198.374 95.4119L198.625 97.1612L198.433 97.1712C198.615 96.553 198.926 96.0669 199.367 95.713C199.819 95.3585 200.375 95.1642 201.035 95.13C201.707 95.0953 202.258 95.227 202.69 95.5251C203.133 95.8226 203.446 96.3031 203.63 96.9665L203.39 96.9789C203.561 96.3612 203.893 95.8634 204.386 95.4854C204.879 95.1075 205.467 94.9008 206.149 94.8656C207.033 94.8198 207.712 95.0411 208.186 95.5292C208.659 96.0068 208.924 96.7888 208.98 97.8754L209.239 102.893L207.945 102.96L207.69 98.0222C207.651 97.2659 207.489 96.7241 207.205 96.397C206.921 96.0593 206.485 95.9056 205.9 95.9359C205.228 95.9706 204.708 96.2325 204.338 96.7216C203.978 97.1995 203.818 97.8272 203.859 98.6048L204.094 103.159L202.8 103.226L202.545 98.2883C202.505 97.532 202.344 96.9903 202.06 96.6632C201.776 96.3254 201.34 96.1717 200.754 96.202C200.083 96.2367 199.568 96.4983 199.209 96.9869C198.849 97.4647 198.689 98.0925 198.73 98.8701L198.965 103.424L197.671 103.491ZM211.489 106.413L211.13 105.358C211.625 105.215 212.033 105.055 212.355 104.878C212.688 104.712 212.96 104.495 213.17 104.227C213.381 103.96 213.556 103.631 213.696 103.239L214.063 102.275L214.059 102.82L210.135 94.8036L211.542 94.7308L214.798 101.628L214.383 101.649L216.878 94.4548L218.237 94.3846L214.979 103.269C214.793 103.791 214.58 104.229 214.342 104.583C214.105 104.948 213.842 105.245 213.555 105.473C213.279 105.712 212.969 105.904 212.624 106.05C212.279 106.196 211.901 106.317 211.489 106.413ZM41.6577 142.057L41.1602 132.438C41.1448 132.14 41.1131 131.837 41.0652 131.529C41.0273 131.211 40.9844 130.898 40.9365 130.591L42.1828 130.526L42.457 132.419L42.2652 132.429C42.4031 131.791 42.7237 131.278 43.227 130.889C43.7297 130.489 44.3432 130.27 45.0675 130.233C45.7919 130.196 46.4236 130.328 46.9627 130.632C47.5124 130.934 47.9523 131.387 48.2826 131.989C48.6128 132.592 48.8005 133.33 48.8457 134.203C48.8903 135.066 48.7794 135.814 48.5131 136.447C48.2575 137.08 47.8721 137.581 47.3572 137.949C46.8416 138.307 46.2217 138.504 45.4973 138.542C44.7836 138.579 44.1564 138.43 43.6157 138.095C43.075 137.759 42.7031 137.282 42.5002 136.662L42.676 136.653L42.952 141.99L41.6577 142.057ZM45.1871 137.501C45.9541 137.461 46.5478 137.168 46.9682 136.623C47.3987 136.067 47.5877 135.283 47.5354 134.271C47.4825 133.248 47.2135 132.488 46.7285 131.99C46.2535 131.48 45.6326 131.245 44.8656 131.285C44.1093 131.324 43.5159 131.622 43.0854 132.178C42.665 132.723 42.4812 133.507 42.5341 134.53C42.5864 135.542 42.8501 136.302 43.325 136.812C43.8101 137.31 44.4308 137.54 45.1871 137.501ZM51.0602 138.11L50.4519 126.35L51.7462 126.283L52.0313 131.795L51.8236 131.806C52.0148 131.166 52.3631 130.673 52.8685 130.326C53.3841 129.968 53.988 129.772 54.6804 129.736C55.6392 129.686 56.3664 129.91 56.8621 130.408C57.3572 130.895 57.6318 131.661 57.6858 132.705L57.947 137.754L56.6527 137.821L56.3957 132.851C56.3571 132.106 56.1799 131.57 55.864 131.245C55.5587 130.919 55.0812 130.773 54.4314 130.806C53.6857 130.845 53.101 131.105 52.6773 131.586C52.2643 132.066 52.077 132.68 52.1156 133.425L52.3544 138.043L51.0602 138.11ZM63.7217 137.599C62.9547 137.639 62.2751 137.509 61.6828 137.208C61.1005 136.896 60.639 136.44 60.2981 135.838C59.9567 135.225 59.7639 134.493 59.7199 133.641C59.6752 132.778 59.7914 132.03 60.0684 131.396C60.3453 130.762 60.7576 130.265 61.3051 129.906C61.8627 129.535 62.525 129.33 63.2919 129.29C64.0696 129.25 64.7495 129.386 65.3317 129.698C65.924 129.998 66.3906 130.449 66.7315 131.051C67.083 131.652 67.2811 132.385 67.3257 133.247C67.3698 134.1 67.2483 134.848 66.9612 135.493C66.6843 136.127 66.267 136.629 65.7094 137C65.1619 137.359 64.4993 137.559 63.7217 137.599ZM63.6671 136.545C64.4341 136.505 65.0278 136.213 65.4482 135.668C65.8681 135.112 66.0518 134.328 65.9995 133.316C65.9466 132.293 65.6776 131.533 65.1926 131.035C64.7176 130.525 64.102 130.29 63.3457 130.329C62.5893 130.368 62.0012 130.666 61.5814 131.221C61.161 131.766 60.9772 132.55 61.0301 133.573C61.0825 134.585 61.3461 135.346 61.8211 135.855C62.2955 136.354 62.9108 136.584 63.6671 136.545ZM69.5511 137.154L69.2321 130.986C69.2166 130.688 69.185 130.385 69.137 130.078C69.0992 129.759 69.0563 129.446 69.0084 129.139L70.2547 129.075L70.5054 130.824L70.3137 130.834C70.516 130.204 70.8646 129.716 71.3594 129.37C71.8643 129.013 72.4576 128.816 73.1394 128.781C74.0875 128.732 74.8144 128.951 75.3202 129.437C75.8361 129.913 76.1222 130.694 76.1784 131.78L76.4379 136.797L75.1436 136.864L74.8882 131.927C74.8491 131.171 74.6663 130.63 74.3397 130.305C74.0233 129.969 73.5455 129.818 72.9063 129.851C72.1607 129.889 71.5813 130.149 71.1682 130.629C70.7552 131.11 70.5685 131.734 70.6082 132.501L70.8453 137.087L69.5511 137.154ZM82.4842 136.629C81.2272 136.694 80.2178 136.383 79.456 135.696C78.6936 134.999 78.2788 134 78.2116 132.7C78.1681 131.859 78.2901 131.121 78.5777 130.486C78.8648 129.841 79.2871 129.334 79.8447 128.963C80.4018 128.582 81.0532 128.372 81.7988 128.333C82.5338 128.295 83.1597 128.418 83.6763 128.701C84.193 128.984 84.5993 129.406 84.8954 129.967C85.1909 130.518 85.3587 131.182 85.399 131.96L85.4238 132.439L79.2081 132.761L79.1659 131.946L84.5347 131.668L84.2738 131.89C84.2298 131.038 84.0036 130.382 83.5953 129.923C83.187 129.463 82.6047 129.253 81.8484 129.292C81.0495 129.333 80.4409 129.648 80.0227 130.236C79.604 130.813 79.4191 131.575 79.4681 132.523L79.4756 132.667C79.5274 133.668 79.8118 134.417 80.3288 134.914C80.8559 135.399 81.5668 135.619 82.4616 135.573C82.941 135.548 83.3848 135.455 83.7931 135.296C84.2115 135.124 84.6039 134.864 84.9703 134.514L85.4648 135.401C85.1309 135.76 84.6973 136.05 84.1639 136.27C83.6407 136.478 83.0808 136.598 82.4842 136.629ZM88.1147 138.02L87.4836 137.588C87.7558 137.275 87.9276 136.983 87.999 136.712C88.0817 136.452 88.1161 136.188 88.1023 135.922L88.404 136.179L87.3494 136.233L87.2651 134.603L88.8949 134.519L88.9544 135.669C88.9765 136.096 88.9279 136.499 88.8087 136.879C88.69 137.269 88.4587 137.65 88.1147 138.02ZM98.083 135.822C97.4439 135.855 96.8429 135.801 96.2802 135.659C95.7169 135.507 95.2459 135.28 94.8672 134.979L95.2675 134.045C95.6776 134.334 96.1155 134.541 96.5813 134.666C97.0577 134.791 97.5463 134.841 98.0469 134.815C98.6861 134.782 99.1596 134.645 99.4676 134.405C99.7857 134.153 99.9343 133.825 99.9134 133.42C99.8974 133.111 99.7782 132.872 99.5558 132.702C99.3435 132.521 99.0002 132.389 98.526 132.307L97.0243 132.08C96.3348 131.966 95.8106 131.742 95.4515 131.408C95.0919 131.064 94.8978 130.614 94.8691 130.06C94.8449 129.592 94.9462 129.175 95.173 128.811C95.3993 128.436 95.7415 128.135 96.1997 127.909C96.6574 127.672 97.2005 127.537 97.829 127.504C98.4149 127.474 98.9575 127.537 99.4569 127.692C99.9664 127.837 100.395 128.066 100.742 128.379L100.325 129.298C99.9894 129.005 99.6101 128.795 99.1869 128.668C98.7739 128.529 98.349 128.471 97.9122 128.493C97.2837 128.526 96.8163 128.678 96.51 128.95C96.2137 129.211 96.076 129.544 96.097 129.949C96.113 130.258 96.2221 130.508 96.4243 130.701C96.6366 130.882 96.9529 131.01 97.3733 131.084L98.8751 131.311C99.6077 131.433 100.159 131.656 100.528 131.979C100.907 132.29 101.111 132.728 101.14 133.293C101.165 133.772 101.054 134.2 100.806 134.576C100.558 134.941 100.199 135.232 99.7299 135.449C99.2711 135.665 98.7221 135.789 98.083 135.822ZM106.633 135.38C105.866 135.42 105.186 135.289 104.594 134.989C104.012 134.677 103.55 134.22 103.21 133.618C102.868 133.006 102.675 132.273 102.631 131.421C102.587 130.558 102.703 129.81 102.98 129.176C103.257 128.542 103.669 128.046 104.216 127.686C104.774 127.316 105.436 127.111 106.203 127.071C106.981 127.031 107.661 127.166 108.243 127.478C108.835 127.779 109.302 128.23 109.643 128.832C109.994 129.433 110.192 130.165 110.237 131.028C110.281 131.88 110.16 132.629 109.873 133.274C109.596 133.908 109.178 134.41 108.621 134.78C108.073 135.14 107.411 135.34 106.633 135.38ZM106.579 134.325C107.346 134.286 107.939 133.993 108.36 133.448C108.779 132.892 108.963 132.108 108.911 131.097C108.858 130.074 108.589 129.313 108.104 128.815C107.629 128.306 107.013 128.07 106.257 128.11C105.501 128.149 104.913 128.446 104.493 129.002C104.072 129.547 103.889 130.331 103.942 131.354C103.994 132.366 104.257 133.126 104.732 133.636C105.207 134.135 105.822 134.364 106.579 134.325ZM119.48 134.715C118.692 134.756 118.079 134.564 117.64 134.138C117.201 133.701 116.958 133.025 116.91 132.109L116.681 127.683L115.115 127.764L115.063 126.757L116.629 126.676L116.516 124.487L117.791 124.052L117.924 126.609L120.225 126.49L120.277 127.497L117.976 127.616L118.197 131.898C118.23 132.537 118.36 132.99 118.588 133.256C118.825 133.51 119.162 133.626 119.599 133.604C119.802 133.593 119.982 133.568 120.14 133.528C120.298 133.477 120.439 133.421 120.564 133.362L120.62 134.448C120.474 134.52 120.296 134.577 120.084 134.62C119.884 134.673 119.683 134.705 119.48 134.715ZM122.215 134.43L121.607 122.669L122.901 122.603L123.186 128.115L122.978 128.126C123.17 127.486 123.518 126.993 124.023 126.646C124.539 126.288 125.143 126.091 125.835 126.056C126.794 126.006 127.521 126.23 128.017 126.728C128.512 127.215 128.787 127.98 128.841 129.024L129.102 134.074L127.808 134.141L127.551 129.171C127.512 128.425 127.335 127.89 127.019 127.564C126.714 127.238 126.236 127.092 125.586 127.126C124.841 127.164 124.256 127.424 123.832 127.906C123.419 128.386 123.232 128.999 123.27 129.745L123.509 134.363L122.215 134.43ZM134.637 133.931C133.923 133.968 133.291 133.836 132.742 133.533C132.192 133.22 131.751 132.762 131.421 132.159C131.101 131.556 130.919 130.823 130.875 129.961C130.83 129.087 130.935 128.334 131.19 127.701C131.457 127.068 131.848 126.572 132.363 126.215C132.879 125.857 133.493 125.66 134.207 125.623C134.932 125.585 135.564 125.739 136.106 126.085C136.657 126.42 137.034 126.897 137.237 127.517L137.045 127.527L137.123 125.616L138.369 125.552C138.353 125.862 138.337 126.178 138.322 126.499C138.317 126.809 138.322 127.113 138.337 127.412L138.656 133.579L137.362 133.646L137.264 131.761L137.44 131.752C137.302 132.389 136.976 132.903 136.462 133.292C135.948 133.682 135.34 133.895 134.637 133.931ZM134.838 132.864C135.605 132.824 136.199 132.532 136.619 131.987C137.039 131.431 137.223 130.647 137.17 129.635C137.117 128.612 136.854 127.852 136.379 127.353C135.904 126.843 135.283 126.608 134.517 126.648C133.76 126.687 133.167 126.985 132.736 127.541C132.316 128.086 132.132 128.87 132.185 129.893C132.237 130.905 132.501 131.665 132.976 132.175C133.461 132.673 134.082 132.903 134.838 132.864ZM144.01 133.447C143.222 133.487 142.608 133.295 142.17 132.869C141.731 132.432 141.487 131.756 141.44 130.84L141.211 126.414L139.645 126.495L139.593 125.488L141.159 125.407L141.046 123.218L142.321 122.784L142.453 125.34L144.754 125.221L144.806 126.228L142.505 126.347L142.727 130.629C142.76 131.268 142.89 131.721 143.118 131.987C143.355 132.242 143.692 132.358 144.129 132.335C144.331 132.325 144.512 132.299 144.67 132.259C144.827 132.208 144.969 132.153 145.094 132.093L145.15 133.179C145.004 133.251 144.825 133.308 144.614 133.351C144.414 133.404 144.213 133.436 144.01 133.447ZM151.055 132.938L150.472 121.673L151.798 121.605L152.381 132.87L151.055 132.938ZM162.591 132.486C161.803 132.526 161.107 132.392 160.504 132.081C159.911 131.77 159.438 131.308 159.086 130.696C158.745 130.084 158.552 129.346 158.507 128.483C158.462 127.61 158.584 126.861 158.872 126.237C159.159 125.603 159.582 125.111 160.141 124.762C160.711 124.412 161.384 124.217 162.162 124.177C162.673 124.15 163.173 124.215 163.662 124.372C164.161 124.527 164.579 124.762 164.916 125.076L164.5 126.026C164.165 125.734 163.801 125.523 163.41 125.394C163.03 125.264 162.658 125.208 162.296 125.227C161.465 125.27 160.834 125.564 160.403 126.11C159.972 126.656 159.782 127.429 159.834 128.431C159.886 129.421 160.154 130.176 160.64 130.696C161.127 131.216 161.785 131.454 162.616 131.411C162.967 131.393 163.326 131.305 163.692 131.147C164.068 130.989 164.413 130.741 164.727 130.405L165.237 131.291C164.925 131.649 164.528 131.932 164.047 132.138C163.567 132.344 163.081 132.46 162.591 132.486ZM170.121 132.096C169.407 132.133 168.775 132 168.226 131.698C167.675 131.384 167.235 130.926 166.905 130.324C166.585 129.721 166.403 128.988 166.359 128.125C166.313 127.252 166.419 126.499 166.674 125.866C166.941 125.233 167.332 124.737 167.847 124.379C168.363 124.022 168.977 123.824 169.691 123.787C170.415 123.75 171.048 123.904 171.589 124.25C172.141 124.585 172.518 125.062 172.721 125.681L172.529 125.691L172.607 123.781L173.853 123.716C173.837 124.027 173.821 124.343 173.806 124.664C173.8 124.974 173.805 125.278 173.821 125.576L174.14 131.744L172.846 131.811L172.748 129.926L172.924 129.917C172.786 130.554 172.46 131.067 171.946 131.457C171.432 131.847 170.824 132.06 170.121 132.096ZM170.322 131.028C171.089 130.989 171.682 130.696 172.103 130.151C172.523 129.595 172.707 128.812 172.654 127.8C172.601 126.777 172.338 126.016 171.863 125.517C171.388 125.008 170.767 124.773 170 124.813C169.244 124.852 168.651 125.15 168.22 125.706C167.8 126.251 167.616 127.035 167.669 128.057C167.721 129.069 167.985 129.83 168.46 130.34C168.945 130.838 169.566 131.068 170.322 131.028ZM176.642 131.615L176.323 125.447C176.308 125.149 176.276 124.846 176.228 124.539C176.19 124.22 176.148 123.907 176.1 123.6L177.346 123.536L177.597 125.285L177.405 125.295C177.607 124.665 177.956 124.177 178.451 123.831C178.956 123.474 179.549 123.277 180.231 123.242C181.179 123.193 181.906 123.412 182.411 123.898C182.927 124.374 183.213 125.155 183.27 126.241L183.529 131.259L182.235 131.325L181.979 126.388C181.94 125.632 181.757 125.091 181.431 124.766C181.114 124.43 180.637 124.279 179.998 124.312C179.252 124.35 178.673 124.61 178.259 125.09C177.846 125.571 177.66 126.195 177.699 126.962L177.937 131.548L176.642 131.615ZM190.587 130.893L190.224 123.879L188.658 123.96L188.606 122.953L190.523 122.854L190.189 123.208L190.12 121.866C190.073 120.96 190.266 120.256 190.699 119.753C191.132 119.25 191.775 118.976 192.627 118.932C192.84 118.921 193.06 118.931 193.286 118.962C193.522 118.982 193.716 119.02 193.869 119.076L193.924 120.147C193.793 120.1 193.631 120.066 193.438 120.044C193.255 120.01 193.067 119.999 192.875 120.009C192.545 120.026 192.266 120.11 192.039 120.26C191.811 120.4 191.646 120.606 191.543 120.879C191.439 121.151 191.398 121.495 191.42 121.91L191.48 123.077L191.258 122.816L193.703 122.69L193.755 123.696L191.518 123.812L191.881 130.827L190.587 130.893ZM198.651 130.621C197.884 130.66 197.204 130.53 196.612 130.229C196.03 129.918 195.568 129.461 195.227 128.859C194.886 128.247 194.693 127.514 194.649 126.662C194.604 125.799 194.72 125.051 194.997 124.417C195.274 123.783 195.687 123.287 196.234 122.927C196.792 122.557 197.454 122.351 198.221 122.312C198.999 122.271 199.678 122.407 200.261 122.719C200.853 123.019 201.32 123.471 201.66 124.072C202.012 124.674 202.21 125.406 202.255 126.269C202.299 127.121 202.177 127.869 201.89 128.514C201.613 129.148 201.196 129.65 200.638 130.021C200.091 130.381 199.428 130.58 198.651 130.621ZM198.596 129.566C199.363 129.526 199.957 129.234 200.377 128.689C200.797 128.133 200.981 127.349 200.928 126.337C200.876 125.315 200.607 124.554 200.122 124.056C199.647 123.546 199.031 123.311 198.275 123.35C197.518 123.389 196.93 123.687 196.51 124.243C196.09 124.788 195.906 125.572 195.959 126.594C196.011 127.606 196.275 128.367 196.75 128.876C197.224 129.375 197.84 129.605 198.596 129.566ZM207.859 130.144C207.071 130.185 206.375 130.05 205.771 129.74C205.178 129.428 204.706 128.967 204.354 128.355C204.012 127.742 203.819 127.005 203.775 126.142C203.73 125.268 203.851 124.52 204.139 123.896C204.427 123.262 204.85 122.77 205.409 122.421C205.978 122.071 206.652 121.876 207.429 121.835C207.941 121.809 208.441 121.874 208.929 122.03C209.429 122.186 209.847 122.421 210.183 122.734L209.768 123.685C209.432 123.393 209.069 123.182 208.678 123.053C208.297 122.923 207.926 122.867 207.564 122.886C206.733 122.929 206.102 123.223 205.671 123.769C205.24 124.314 205.05 125.088 205.102 126.089C205.153 127.08 205.422 127.835 205.908 128.355C206.394 128.874 207.053 129.113 207.884 129.07C208.235 129.051 208.594 128.963 208.959 128.806C209.336 128.647 209.681 128.4 209.994 128.063L210.505 128.95C210.192 129.308 209.796 129.59 209.315 129.797C208.834 130.003 208.349 130.119 207.859 130.144ZM215.227 129.763C214.279 129.812 213.546 129.588 213.029 129.092C212.523 128.595 212.242 127.808 212.186 126.732L211.929 121.747L213.223 121.68L213.479 126.633C213.517 127.368 213.694 127.904 214.011 128.24C214.327 128.565 214.799 128.712 215.427 128.679C216.13 128.643 216.683 128.385 217.086 127.905C217.488 127.425 217.669 126.801 217.63 126.034L217.393 121.464L218.688 121.397L219.102 129.419L217.84 129.484L217.747 127.678L217.954 127.668C217.763 128.297 217.425 128.795 216.942 129.162C216.47 129.528 215.898 129.729 215.227 129.763ZM224.289 129.295C223.65 129.328 223.049 129.273 222.486 129.131C221.923 128.979 221.452 128.752 221.073 128.452L221.474 127.518C221.884 127.806 222.322 128.013 222.788 128.139C223.264 128.263 223.753 128.313 224.253 128.287C224.892 128.254 225.366 128.117 225.674 127.877C225.992 127.626 226.141 127.298 226.12 126.893C226.104 126.584 225.985 126.344 225.762 126.174C225.55 125.993 225.207 125.861 224.732 125.779L223.231 125.552C222.541 125.438 222.017 125.214 221.658 124.881C221.298 124.536 221.104 124.087 221.075 123.533C221.051 123.064 221.152 122.648 221.379 122.283C221.606 121.909 221.948 121.608 222.406 121.381C222.864 121.144 223.407 121.009 224.035 120.977C224.621 120.946 225.164 121.009 225.663 121.165C226.173 121.309 226.601 121.538 226.948 121.851L226.531 122.77C226.196 122.478 225.816 122.268 225.393 122.14C224.98 122.001 224.555 121.943 224.119 121.966C223.49 121.998 223.023 122.15 222.716 122.423C222.42 122.684 222.282 123.016 222.303 123.421C222.319 123.73 222.428 123.981 222.631 124.173C222.843 124.355 223.159 124.482 223.58 124.557L225.081 124.784C225.814 124.906 226.365 125.128 226.734 125.451C227.113 125.763 227.318 126.201 227.347 126.765C227.372 127.245 227.26 127.672 227.013 128.048C226.764 128.413 226.406 128.704 225.936 128.921C225.477 129.137 224.928 129.261 224.289 129.295ZM46.1729 165.543C45.4059 165.583 44.7263 165.452 44.1339 165.152C43.5517 164.84 43.0902 164.383 42.7493 163.782C42.4079 163.169 42.2151 162.437 42.1711 161.584C42.1264 160.722 42.2426 159.973 42.5196 159.339C42.7965 158.706 43.2088 158.209 43.7563 157.85C44.3139 157.479 44.9761 157.274 45.7431 157.234C46.5208 157.194 47.2007 157.33 47.7829 157.641C48.3752 157.942 48.8418 158.393 49.1827 158.995C49.5342 159.596 49.7323 160.328 49.7769 161.191C49.821 162.043 49.6995 162.792 49.4124 163.437C49.1354 164.071 48.7182 164.573 48.1606 164.944C47.6131 165.303 46.9505 165.503 46.1729 165.543ZM46.1183 164.488C46.8853 164.449 47.479 164.156 47.8994 163.611C48.3193 163.056 48.503 162.272 48.4507 161.26C48.3978 160.237 48.1288 159.477 47.6438 158.978C47.1688 158.469 46.5532 158.234 45.7968 158.273C45.0405 158.312 44.4524 158.609 44.0326 159.165C43.6122 159.71 43.4284 160.494 43.4813 161.517C43.5337 162.529 43.7973 163.289 44.2722 163.799C44.7466 164.298 45.362 164.528 46.1183 164.488ZM52.0023 165.097L51.6833 158.93C51.6678 158.631 51.6361 158.329 51.5882 158.021C51.5504 157.703 51.5075 157.39 51.4596 157.083L52.7059 157.018L52.9566 158.768L52.7648 158.778C52.9672 158.148 53.3158 157.66 53.8106 157.314C54.3155 156.956 54.9088 156.76 55.5906 156.725C56.5387 156.676 57.2656 156.895 57.7714 157.381C58.2873 157.856 58.5734 158.637 58.6296 159.724L58.8891 164.741L57.5948 164.808L57.3394 159.871C57.3003 159.114 57.1175 158.574 56.7909 158.249C56.4745 157.913 55.9967 157.761 55.3575 157.794C54.6118 157.833 54.0325 158.092 53.6194 158.573C53.2064 159.054 53.0197 159.678 53.0593 160.445L53.2965 165.03L52.0023 165.097ZM65.531 164.398L65.212 158.23C65.1966 157.932 65.1649 157.629 65.117 157.322C65.0792 157.003 65.0363 156.69 64.9883 156.383L66.2347 156.319L66.4854 158.068L66.2936 158.078C66.4753 157.46 66.7866 156.974 67.2276 156.62C67.6792 156.265 68.2352 156.071 68.8957 156.037C69.5668 156.002 70.1183 156.134 70.5503 156.432C70.9929 156.729 71.3062 157.21 71.49 157.873L71.2503 157.886C71.4213 157.268 71.7534 156.77 72.2465 156.392C72.7396 156.014 73.3271 155.807 74.0088 155.772C74.893 155.726 75.572 155.948 76.0458 156.436C76.5191 156.913 76.7839 157.695 76.8401 158.782L77.0996 163.799L75.8053 163.866L75.5499 158.929C75.5108 158.173 75.3493 157.631 75.0654 157.304C74.7809 156.966 74.3457 156.812 73.7598 156.843C73.0887 156.877 72.5682 157.139 72.1983 157.628C71.8385 158.106 71.6787 158.734 71.7189 159.511L71.9545 164.065L70.6602 164.132L70.4048 159.195C70.3657 158.439 70.2042 157.897 69.9202 157.57C69.6357 157.232 69.2006 157.078 68.6147 157.109C67.9436 157.143 67.4284 157.405 67.0691 157.894C66.7094 158.371 66.5496 158.999 66.5898 159.777L66.8253 164.331L65.531 164.398ZM79.3492 167.32L78.9902 166.265C79.4848 166.122 79.8931 165.962 80.2151 165.785C80.5482 165.618 80.82 165.401 81.0305 165.134C81.241 164.867 81.4162 164.537 81.5562 164.146L81.9229 163.181L81.919 163.726L77.9957 155.71L79.4018 155.637L82.6584 162.534L82.243 162.556L84.7387 155.361L86.0969 155.291L82.8394 164.175C82.6528 164.698 82.4405 165.136 82.2025 165.49C81.965 165.855 81.7026 166.151 81.4154 166.38C81.1393 166.618 80.8289 166.811 80.4839 166.957C80.139 167.103 79.7608 167.224 79.3492 167.32ZM95.515 162.991C94.7268 163.032 94.0309 162.897 93.4274 162.586C92.8345 162.275 92.362 161.814 92.0099 161.202C91.6685 160.589 91.4755 159.851 91.4309 158.989C91.3857 158.115 91.5072 157.367 91.7953 156.743C92.083 156.108 92.5061 155.617 93.0648 155.267C93.6342 154.917 94.3077 154.722 95.0853 154.682C95.5966 154.656 96.0966 154.721 96.5854 154.877C97.0847 155.033 97.5028 155.267 97.8394 155.581L97.424 156.532C97.0884 156.239 96.725 156.029 96.3338 155.899C95.9533 155.769 95.5819 155.714 95.2197 155.733C94.3888 155.776 93.7579 156.07 93.3268 156.616C92.8958 157.161 92.7061 157.935 92.7579 158.936C92.8092 159.927 93.0778 160.682 93.564 161.201C94.0502 161.721 94.7087 161.959 95.5396 161.916C95.8911 161.898 96.2497 161.81 96.6154 161.652C96.9917 161.494 97.3367 161.247 97.6504 160.91L98.1609 161.797C97.8483 162.155 97.4517 162.437 96.971 162.643C96.4904 162.85 96.0051 162.966 95.515 162.991ZM100.047 162.612L99.4392 150.852L100.733 150.785L101.019 156.298L100.811 156.309C101.002 155.668 101.35 155.175 101.856 154.829C102.371 154.471 102.975 154.274 103.668 154.238C104.626 154.189 105.354 154.413 105.849 154.91C106.344 155.398 106.619 156.163 106.673 157.207L106.934 162.256L105.64 162.323L105.383 157.354C105.344 156.608 105.167 156.073 104.851 155.747C104.546 155.421 104.068 155.275 103.419 155.309C102.673 155.347 102.088 155.607 101.665 156.088C101.252 156.569 101.064 157.182 101.103 157.928L101.342 162.545L100.047 162.612ZM109.41 162.128L108.995 154.107L110.289 154.04L110.704 162.061L109.41 162.128ZM108.741 152.294L108.666 150.84L110.264 150.757L110.339 152.211L108.741 152.294ZM113.217 161.931L112.609 150.171L113.903 150.104L114.512 161.864L113.217 161.931ZM120.068 161.721C119.365 161.757 118.739 161.624 118.189 161.322C117.639 161.008 117.198 160.55 116.868 159.948C116.549 159.345 116.367 158.612 116.322 157.749C116.277 156.876 116.382 156.123 116.638 155.49C116.904 154.857 117.295 154.361 117.81 154.003C118.326 153.646 118.935 153.449 119.638 153.412C120.363 153.375 120.995 153.524 121.536 153.859C122.087 154.193 122.47 154.665 122.683 155.273L122.491 155.283L122.201 149.675L123.495 149.608L124.103 161.368L122.825 161.434L122.726 159.517L122.902 159.508C122.764 160.156 122.439 160.68 121.925 161.08C121.412 161.47 120.792 161.684 120.068 161.721ZM120.285 160.652C121.042 160.613 121.635 160.321 122.066 159.775C122.497 159.219 122.686 158.435 122.634 157.423C122.581 156.4 122.312 155.64 121.827 155.141C121.341 154.633 120.72 154.398 119.964 154.437C119.207 154.476 118.614 154.774 118.183 155.33C117.763 155.875 117.579 156.659 117.632 157.682C117.685 158.694 117.948 159.454 118.423 159.964C118.908 160.462 119.529 160.692 120.285 160.652ZM126.574 161.24L126.259 155.153C126.242 154.833 126.215 154.509 126.176 154.18C126.149 153.85 126.111 153.531 126.063 153.224L127.309 153.16L127.57 155.101L127.347 155.128C127.429 154.643 127.595 154.24 127.845 153.917C128.095 153.594 128.398 153.349 128.752 153.181C129.106 153.003 129.48 152.903 129.874 152.883C130.034 152.875 130.173 152.873 130.291 152.877C130.419 152.881 130.538 152.902 130.646 152.939L130.69 154.09C130.527 154.045 130.377 154.021 130.238 154.018C130.109 154.003 129.959 154 129.788 154.009C129.32 154.033 128.915 154.166 128.575 154.408C128.246 154.649 128 154.95 127.837 155.311C127.685 155.672 127.619 156.049 127.639 156.443L127.884 161.173L126.574 161.24ZM135.887 160.903C134.63 160.968 133.621 160.657 132.859 159.97C132.097 159.273 131.682 158.274 131.615 156.974C131.571 156.133 131.693 155.395 131.981 154.76C132.268 154.115 132.69 153.608 133.248 153.237C133.805 152.856 134.456 152.646 135.202 152.607C135.937 152.569 136.563 152.692 137.08 152.975C137.596 153.258 138.003 153.68 138.299 154.241C138.594 154.792 138.762 155.456 138.802 156.234L138.827 156.713L132.611 157.035L132.569 156.22L137.938 155.942L137.677 156.164C137.633 155.312 137.407 154.656 136.999 154.197C136.59 153.737 136.008 153.527 135.252 153.566C134.453 153.607 133.844 153.922 133.426 154.509C133.007 155.087 132.822 155.849 132.871 156.797L132.879 156.941C132.931 157.942 133.215 158.691 133.732 159.188C134.259 159.673 134.97 159.893 135.865 159.847C136.344 159.822 136.788 159.729 137.196 159.57C137.615 159.398 138.007 159.138 138.374 158.788L138.868 159.675C138.534 160.034 138.1 160.324 137.567 160.544C137.044 160.752 136.484 160.872 135.887 160.903ZM141.008 160.494L140.689 154.326C140.674 154.028 140.642 153.725 140.594 153.418C140.556 153.099 140.514 152.786 140.466 152.479L141.712 152.415L141.963 154.164L141.771 154.174C141.973 153.544 142.322 153.056 142.817 152.71C143.322 152.353 143.915 152.157 144.597 152.121C145.545 152.072 146.272 152.291 146.777 152.778C147.293 153.253 147.579 154.034 147.636 155.12L147.895 160.138L146.601 160.205L146.345 155.267C146.306 154.511 146.123 153.97 145.797 153.645C145.48 153.309 145.003 153.158 144.364 153.191C143.618 153.229 143.039 153.489 142.625 153.97C142.212 154.45 142.026 155.074 142.065 155.841L142.303 160.427L141.008 160.494ZM154.537 159.794L154.122 151.773L155.416 151.706L155.831 159.727L154.537 159.794ZM153.868 149.96L153.793 148.505L155.391 148.423L155.466 149.877L153.868 149.96ZM158.344 159.597L158.025 153.429C158.01 153.131 157.978 152.828 157.93 152.521C157.893 152.203 157.85 151.89 157.802 151.583L159.048 151.518L159.299 153.267L159.107 153.277C159.309 152.647 159.658 152.159 160.153 151.813C160.658 151.456 161.251 151.26 161.933 151.225C162.881 151.176 163.608 151.394 164.114 151.881C164.63 152.356 164.916 153.137 164.972 154.224L165.231 159.241L163.937 159.308L163.682 154.371C163.643 153.614 163.46 153.074 163.133 152.749C162.817 152.413 162.339 152.261 161.7 152.294C160.954 152.333 160.375 152.592 159.962 153.073C159.549 153.554 159.362 154.177 159.402 154.944L159.639 159.53L158.344 159.597ZM170.383 159.119C169.744 159.152 169.143 159.097 168.58 158.956C168.017 158.803 167.546 158.577 167.167 158.276L167.567 157.342C167.977 157.63 168.415 157.837 168.881 157.963C169.358 158.088 169.846 158.137 170.347 158.111C170.986 158.078 171.459 157.942 171.767 157.701C172.086 157.45 172.234 157.122 172.213 156.717C172.197 156.408 172.078 156.169 171.856 155.998C171.643 155.817 171.3 155.685 170.826 155.603L169.324 155.376C168.635 155.263 168.11 155.039 167.751 154.705C167.392 154.36 167.198 153.911 167.169 153.357C167.145 152.888 167.246 152.472 167.473 152.108C167.699 151.733 168.041 151.432 168.5 151.205C168.957 150.968 169.5 150.833 170.129 150.801C170.715 150.77 171.257 150.833 171.757 150.989C172.266 151.133 172.695 151.362 173.042 151.675L172.625 152.594C172.289 152.302 171.91 152.092 171.487 151.964C171.074 151.825 170.649 151.767 170.212 151.79C169.584 151.822 169.116 151.975 168.81 152.247C168.514 152.508 168.376 152.841 168.397 153.245C168.413 153.554 168.522 153.805 168.724 153.998C168.936 154.179 169.253 154.307 169.673 154.381L171.175 154.608C171.908 154.73 172.458 154.953 172.828 155.275C173.207 155.587 173.411 156.025 173.44 156.589C173.465 157.069 173.354 157.496 173.106 157.872C172.858 158.238 172.499 158.529 172.03 158.745C171.571 158.961 171.022 159.086 170.383 159.119ZM178.407 158.704C177.619 158.744 177.006 158.552 176.567 158.126C176.128 157.689 175.885 157.013 175.837 156.097L175.608 151.671L174.043 151.752L173.991 150.745L175.556 150.664L175.443 148.475L176.718 148.041L176.851 150.597L179.152 150.478L179.204 151.485L176.903 151.604L177.124 155.886C177.157 156.525 177.288 156.978 177.515 157.244C177.752 157.499 178.089 157.615 178.526 157.592C178.729 157.582 178.909 157.556 179.067 157.516C179.225 157.465 179.366 157.41 179.491 157.35L179.547 158.436C179.401 158.508 179.223 158.565 179.011 158.608C178.811 158.661 178.61 158.693 178.407 158.704ZM184.635 158.382C183.378 158.447 182.368 158.136 181.607 157.449C180.844 156.751 180.429 155.753 180.362 154.453C180.319 153.612 180.441 152.874 180.728 152.239C181.015 151.594 181.438 151.086 181.995 150.716C182.552 150.334 183.204 150.124 183.949 150.086C184.684 150.048 185.31 150.17 185.827 150.453C186.344 150.736 186.75 151.159 187.046 151.72C187.341 152.271 187.509 152.935 187.55 153.713L187.574 154.192L181.359 154.514L181.316 153.699L186.685 153.421L186.424 153.643C186.38 152.791 186.154 152.135 185.746 151.675C185.338 151.216 184.755 151.006 183.999 151.045C183.2 151.086 182.591 151.4 182.173 151.988C181.755 152.565 181.57 153.328 181.619 154.276L181.626 154.42C181.678 155.421 181.962 156.17 182.479 156.667C183.006 157.152 183.717 157.372 184.612 157.325C185.092 157.301 185.535 157.208 185.944 157.048C186.362 156.877 186.754 156.616 187.121 156.266L187.615 157.154C187.281 157.513 186.848 157.803 186.314 158.022C185.791 158.231 185.231 158.351 184.635 158.382ZM192.815 157.959C192.101 157.995 191.47 157.863 190.92 157.56C190.37 157.247 189.929 156.789 189.599 156.186C189.28 155.583 189.097 154.85 189.053 153.988C189.008 153.114 189.113 152.361 189.369 151.728C189.635 151.095 190.026 150.599 190.541 150.242C191.057 149.884 191.672 149.687 192.385 149.65C193.11 149.612 193.742 149.766 194.284 150.112C194.835 150.447 195.212 150.924 195.415 151.544L195.223 151.554L195.301 149.643L196.547 149.579C196.531 149.889 196.515 150.205 196.5 150.526C196.495 150.836 196.5 151.14 196.515 151.439L196.834 157.606L195.54 157.673L195.442 155.788L195.618 155.779C195.48 156.416 195.154 156.93 194.64 157.319C194.127 157.709 193.518 157.922 192.815 157.959ZM193.016 156.891C193.783 156.851 194.377 156.559 194.797 156.014C195.217 155.458 195.401 154.674 195.348 153.662C195.296 152.639 195.032 151.879 194.557 151.38C194.083 150.87 193.462 150.635 192.695 150.675C191.938 150.714 191.345 151.012 190.914 151.568C190.494 152.113 190.31 152.897 190.363 153.92C190.415 154.932 190.679 155.692 191.154 156.202C191.639 156.7 192.26 156.93 193.016 156.891ZM202.38 157.464C201.677 157.5 201.051 157.367 200.501 157.064C199.951 156.751 199.51 156.293 199.18 155.691C198.861 155.088 198.678 154.355 198.634 153.492C198.589 152.618 198.694 151.865 198.95 151.233C199.216 150.599 199.607 150.104 200.122 149.746C200.638 149.388 201.247 149.191 201.95 149.155C202.675 149.117 203.307 149.266 203.848 149.601C204.399 149.936 204.781 150.408 204.994 151.016L204.803 151.026L204.513 145.418L205.807 145.351L206.415 157.111L205.137 157.177L205.038 155.26L205.213 155.25C205.076 155.898 204.751 156.423 204.237 156.823C203.723 157.213 203.104 157.426 202.38 157.464ZM202.597 156.395C203.353 156.356 203.947 156.064 204.378 155.518C204.809 154.962 204.998 154.178 204.945 153.166C204.892 152.143 204.623 151.382 204.138 150.884C203.653 150.375 203.032 150.14 202.276 150.179C201.519 150.219 200.926 150.516 200.495 151.073C200.075 151.618 199.891 152.402 199.944 153.424C199.996 154.436 200.26 155.197 200.735 155.706C201.22 156.205 201.841 156.434 202.597 156.395ZM216.383 156.74C215.616 156.779 214.936 156.649 214.344 156.348C213.762 156.037 213.3 155.58 212.959 154.978C212.618 154.366 212.425 153.633 212.381 152.781C212.336 151.918 212.453 151.17 212.73 150.536C213.007 149.902 213.419 149.406 213.966 149.046C214.524 148.675 215.186 148.47 215.953 148.431C216.731 148.39 217.411 148.526 217.993 148.838C218.585 149.138 219.052 149.589 219.393 150.191C219.744 150.793 219.942 151.525 219.987 152.388C220.031 153.24 219.909 153.988 219.622 154.633C219.345 155.267 218.928 155.769 218.371 156.14C217.823 156.499 217.16 156.699 216.383 156.74ZM216.328 155.685C217.095 155.645 217.689 155.353 218.109 154.808C218.529 154.252 218.713 153.468 218.661 152.456C218.608 151.434 218.339 150.673 217.854 150.175C217.379 149.665 216.763 149.43 216.007 149.469C215.251 149.508 214.662 149.806 214.243 150.362C213.822 150.907 213.638 151.691 213.691 152.713C213.744 153.725 214.007 154.486 214.482 154.995C214.957 155.494 215.572 155.724 216.328 155.685ZM222.55 156.276L222.187 149.262L220.621 149.343L220.569 148.336L222.486 148.237L222.152 148.591L222.083 147.248C222.036 146.343 222.229 145.639 222.662 145.136C223.096 144.633 223.738 144.359 224.591 144.315C224.804 144.304 225.023 144.314 225.249 144.345C225.485 144.365 225.679 144.403 225.832 144.459L225.887 145.53C225.756 145.483 225.594 145.449 225.401 145.427C225.218 145.393 225.03 145.382 224.838 145.392C224.508 145.409 224.23 145.493 224.002 145.643C223.775 145.783 223.609 145.989 223.506 146.262C223.402 146.534 223.361 146.878 223.383 147.293L223.443 148.46L223.221 148.199L225.666 148.072L225.718 149.079L223.481 149.195L223.844 156.209L222.55 156.276ZM44.2365 192.535L43.9216 186.447C43.9051 186.128 43.8776 185.803 43.8393 185.474C43.8115 185.145 43.7737 184.826 43.7258 184.519L44.9721 184.454L45.2327 186.395L45.0098 186.423C45.0916 185.938 45.2576 185.534 45.5079 185.212C45.7583 184.889 46.0607 184.644 46.4151 184.476C46.769 184.297 47.1431 184.198 47.5372 184.177C47.697 184.169 47.8358 184.167 47.9535 184.172C48.0819 184.176 48.2004 184.197 48.3091 184.234L48.3527 185.385C48.1901 185.34 48.0393 185.316 47.9003 185.312C47.7714 185.298 47.6217 185.295 47.4513 185.303C46.9825 185.328 46.5782 185.461 46.2383 185.703C45.9089 185.944 45.6628 186.245 45.4999 186.606C45.3477 186.966 45.2817 187.344 45.3021 187.738L45.5467 192.467L44.2365 192.535ZM52.9089 192.231C51.9608 192.28 51.2282 192.056 50.7112 191.559C50.2049 191.062 49.9239 190.276 49.8682 189.2L49.6104 184.214L50.9047 184.147L51.1609 189.101C51.1989 189.836 51.3761 190.371 51.6926 190.708C52.0084 191.033 52.4806 191.179 53.1091 191.147C53.8122 191.111 54.3649 190.852 54.7673 190.372C55.1697 189.892 55.3511 189.269 55.3114 188.502L55.0751 183.932L56.3694 183.865L56.7842 191.886L55.5219 191.951L55.4285 190.146L55.6362 190.135C55.4445 190.764 55.1071 191.263 54.6241 191.629C54.1517 191.996 53.58 192.196 52.9089 192.231ZM59.2952 191.756L58.9762 185.589C58.9608 185.29 58.9291 184.987 58.8812 184.68C58.8434 184.362 58.8005 184.049 58.7525 183.742L59.9989 183.677L60.2496 185.427L60.0578 185.436C60.2602 184.806 60.6088 184.318 61.1036 183.972C61.6085 183.615 62.2018 183.419 62.8836 183.384C63.8316 183.335 64.5586 183.553 65.0644 184.04C65.5803 184.515 65.8663 185.296 65.9225 186.383L66.182 191.4L64.8878 191.467L64.6324 186.53C64.5933 185.773 64.4104 185.233 64.0839 184.908C63.7674 184.572 63.2896 184.42 62.6505 184.453C61.9048 184.492 61.3255 184.751 60.9124 185.232C60.4993 185.713 60.3127 186.336 60.3523 187.103L60.5895 191.689L59.2952 191.756ZM68.6577 191.272L68.3387 185.104C68.3233 184.806 68.2916 184.503 68.2437 184.196C68.2058 183.877 68.163 183.565 68.115 183.257L69.3614 183.193L69.6121 184.942L69.4203 184.952C69.6227 184.322 69.9713 183.834 70.4661 183.488C70.971 183.131 71.5643 182.935 72.2461 182.899C73.1941 182.85 73.9211 183.069 74.4269 183.556C74.9428 184.031 75.2288 184.812 75.285 185.899L75.5445 190.916L74.2503 190.983L73.9949 186.045C73.9558 185.289 73.7729 184.748 73.4464 184.424C73.1299 184.087 72.6521 183.936 72.013 183.969C71.2673 184.008 70.688 184.267 70.2749 184.748C69.8618 185.228 69.6751 185.852 69.7148 186.619L69.952 191.205L68.6577 191.272ZM78.0202 190.788L77.6053 182.766L78.8996 182.7L79.3145 190.721L78.0202 190.788ZM77.3513 180.953L77.2761 179.499L78.874 179.416L78.9492 180.871L77.3513 180.953ZM81.8276 190.591L81.5086 184.423C81.4932 184.125 81.4615 183.822 81.4136 183.515C81.3757 183.196 81.3329 182.883 81.2849 182.576L82.5313 182.512L82.7819 184.261L82.5902 184.271C82.7926 183.641 83.1412 183.153 83.636 182.807C84.1409 182.45 84.7342 182.254 85.416 182.218C86.364 182.169 87.091 182.388 87.5968 182.875C88.1127 183.35 88.3987 184.131 88.4549 185.217L88.7144 190.235L87.4201 190.302L87.1648 185.364C87.1257 184.608 86.9428 184.067 86.6163 183.742C86.2998 183.406 85.822 183.255 85.1829 183.288C84.4372 183.326 83.8578 183.586 83.4448 184.067C83.0317 184.547 82.845 185.171 82.8847 185.938L83.1219 190.524L81.8276 190.591ZM94.9057 193.487C94.2133 193.523 93.5697 193.471 92.975 193.331C92.3803 193.191 91.8395 192.957 91.3526 192.63L91.6857 191.635C92.0281 191.852 92.3626 192.022 92.6893 192.144C93.0161 192.266 93.3515 192.35 93.6957 192.396C94.0405 192.453 94.4046 192.472 94.7881 192.452C95.5763 192.411 96.1621 192.173 96.5454 191.736C96.9287 191.3 97.1006 190.698 97.0609 189.931L96.9394 187.582L97.0992 187.574C96.9612 188.211 96.6356 188.73 96.1223 189.131C95.6084 189.52 94.9946 189.734 94.2809 189.771C93.5459 189.809 92.8984 189.682 92.3386 189.39C91.7889 189.088 91.3495 188.646 91.0204 188.065C90.7014 187.472 90.5207 186.766 90.4782 185.946C90.4364 185.136 90.5438 184.426 90.8006 183.814C91.068 183.202 91.4597 182.723 91.9758 182.376C92.502 182.017 93.1326 181.819 93.8677 181.781C94.592 181.744 95.2246 181.893 95.7653 182.228C96.3166 182.562 96.694 183.045 96.8975 183.675L96.7295 183.524L96.7832 181.775L98.0455 181.709C98.0189 182.02 98.0032 182.336 97.9984 182.657C97.9931 182.967 97.9981 183.271 98.0136 183.569L98.3301 189.689C98.3918 190.882 98.1294 191.798 97.543 192.438C96.9672 193.076 96.0881 193.426 94.9057 193.487ZM94.466 188.704C95.2436 188.663 95.8429 188.376 96.2639 187.842C96.6843 187.296 96.8702 186.555 96.8218 185.618C96.7733 184.68 96.5121 183.968 96.0383 183.479C95.5644 182.991 94.9387 182.767 94.1611 182.807C93.3941 182.847 92.7948 183.134 92.3632 183.669C91.9316 184.204 91.74 184.941 91.7885 185.878C91.837 186.815 92.1037 187.533 92.5888 188.032C93.0733 188.519 93.699 188.743 94.466 188.704ZM108.555 189.353C107.298 189.418 106.288 189.107 105.527 188.42C104.764 187.722 104.349 186.724 104.282 185.424C104.239 184.583 104.361 183.845 104.648 183.21C104.935 182.565 105.358 182.057 105.915 181.687C106.472 181.305 107.124 181.096 107.869 181.057C108.604 181.019 109.23 181.141 109.747 181.425C110.264 181.708 110.67 182.13 110.966 182.691C111.261 183.242 111.429 183.906 111.47 184.684L111.494 185.163L105.279 185.485L105.237 184.67L110.605 184.392L110.344 184.614C110.3 183.762 110.074 183.106 109.666 182.646C109.258 182.187 108.675 181.977 107.919 182.016C107.12 182.057 106.512 182.372 106.093 182.959C105.675 183.536 105.49 184.299 105.539 185.247L105.546 185.391C105.598 186.392 105.882 187.141 106.399 187.638C106.926 188.123 107.637 188.343 108.532 188.296C109.012 188.272 109.455 188.179 109.864 188.019C110.282 187.848 110.674 187.587 111.041 187.237L111.535 188.125C111.202 188.484 110.768 188.774 110.235 188.993C109.711 189.202 109.151 189.322 108.555 189.353ZM113.644 188.945L113.329 182.857C113.312 182.538 113.285 182.213 113.246 181.884C113.219 181.555 113.181 181.236 113.133 180.929L114.379 180.864L114.64 182.806L114.417 182.833C114.499 182.348 114.665 181.945 114.915 181.622C115.165 181.299 115.468 181.054 115.822 180.886C116.176 180.707 116.55 180.608 116.944 180.588C117.104 180.579 117.243 180.578 117.361 180.582C117.489 180.586 117.608 180.607 117.716 180.644L117.76 181.795C117.597 181.75 117.447 181.726 117.308 181.722C117.179 181.708 117.029 181.705 116.858 181.714C116.39 181.738 115.985 181.871 115.645 182.113C115.316 182.354 115.07 182.655 114.907 183.016C114.755 183.376 114.689 183.754 114.709 184.148L114.954 188.877L113.644 188.945ZM119.448 188.645L119.134 182.557C119.117 182.238 119.09 181.913 119.051 181.584C119.023 181.254 118.986 180.936 118.938 180.629L120.184 180.564L120.445 182.505L120.222 182.533C120.304 182.048 120.47 181.644 120.72 181.322C120.97 180.999 121.273 180.754 121.627 180.586C121.981 180.407 122.355 180.308 122.749 180.287C122.909 180.279 123.048 180.277 123.165 180.282C123.294 180.286 123.412 180.306 123.521 180.344L123.565 181.495C123.402 181.45 123.251 181.426 123.112 181.422C122.983 181.407 122.834 181.405 122.663 181.413C122.195 181.438 121.79 181.571 121.45 181.813C121.121 182.054 120.875 182.355 120.712 182.716C120.56 183.076 120.494 183.453 120.514 183.848L120.759 188.577L119.448 188.645ZM128.266 188.333C127.553 188.37 126.921 188.237 126.371 187.935C125.821 187.621 125.381 187.163 125.051 186.561C124.731 185.958 124.549 185.225 124.504 184.362C124.459 183.489 124.564 182.736 124.82 182.103C125.086 181.47 125.477 180.974 125.993 180.616C126.508 180.259 127.123 180.061 127.837 180.024C128.561 179.987 129.194 180.141 129.735 180.487C130.287 180.821 130.664 181.299 130.867 181.918L130.675 181.928L130.752 180.018L131.999 179.953C131.983 180.264 131.967 180.58 131.952 180.901C131.946 181.211 131.951 181.515 131.967 181.813L132.286 187.981L130.991 188.048L130.894 186.163L131.07 186.153C130.932 186.791 130.606 187.304 130.092 187.694C129.578 188.084 128.97 188.297 128.266 188.333ZM128.468 187.265C129.235 187.226 129.828 186.933 130.249 186.388C130.669 185.832 130.852 185.049 130.8 184.037C130.747 183.014 130.483 182.253 130.009 181.754C129.534 181.245 128.913 181.01 128.146 181.05C127.39 181.089 126.796 181.386 126.366 181.943C125.945 182.488 125.762 183.272 125.815 184.294C125.867 185.306 126.131 186.067 126.606 186.577C127.091 187.075 127.711 187.304 128.468 187.265ZM134.788 187.852L134.469 181.684C134.454 181.386 134.422 181.083 134.374 180.776C134.336 180.457 134.293 180.144 134.245 179.837L135.492 179.773L135.742 181.522L135.551 181.532C135.753 180.902 136.102 180.414 136.596 180.068C137.101 179.711 137.695 179.514 138.376 179.479C139.324 179.43 140.051 179.649 140.557 180.135C141.073 180.611 141.359 181.392 141.415 182.478L141.675 187.495L140.381 187.562L140.125 182.625C140.086 181.869 139.903 181.328 139.577 181.003C139.26 180.667 138.782 180.516 138.143 180.549C137.398 180.587 136.818 180.847 136.405 181.327C135.992 181.808 135.805 182.432 135.845 183.199L136.082 187.785L134.788 187.852ZM147.194 187.354C146.491 187.391 145.865 187.257 145.315 186.955C144.765 186.641 144.324 186.184 143.994 185.581C143.675 184.978 143.492 184.245 143.448 183.382C143.403 182.509 143.508 181.756 143.764 181.123C144.03 180.49 144.421 179.994 144.936 179.637C145.452 179.279 146.061 179.082 146.764 179.045C147.489 179.008 148.121 179.157 148.662 179.492C149.213 179.827 149.595 180.298 149.808 180.907L149.617 180.916L149.327 175.308L150.621 175.241L151.229 187.001L149.951 187.067L149.852 185.15L150.027 185.141C149.89 185.789 149.565 186.313 149.051 186.713C148.537 187.103 147.918 187.317 147.194 187.354ZM147.411 186.286C148.167 186.246 148.761 185.954 149.192 185.408C149.623 184.852 149.812 184.068 149.759 183.056C149.706 182.033 149.437 181.273 148.952 180.775C148.467 180.266 147.846 180.031 147.09 180.07C146.333 180.109 145.74 180.407 145.309 180.963C144.889 181.508 144.705 182.292 144.758 183.315C144.81 184.327 145.074 185.087 145.549 185.597C146.034 186.095 146.655 186.325 147.411 186.286ZM156.407 186.878C155.768 186.911 155.167 186.856 154.605 186.715C154.041 186.562 153.57 186.335 153.192 186.035L153.592 185.101C154.002 185.389 154.44 185.596 154.906 185.722C155.382 185.847 155.871 185.896 156.371 185.87C157.01 185.837 157.484 185.7 157.792 185.46C158.11 185.209 158.259 184.881 158.238 184.476C158.222 184.167 158.103 183.927 157.88 183.757C157.668 183.576 157.325 183.444 156.85 183.362L155.349 183.135C154.659 183.021 154.135 182.798 153.776 182.464C153.416 182.119 153.222 181.67 153.193 181.116C153.169 180.647 153.271 180.231 153.497 179.867C153.724 179.492 154.066 179.191 154.524 178.964C154.982 178.727 155.525 178.592 156.153 178.56C156.739 178.529 157.282 178.592 157.781 178.748C158.291 178.892 158.719 179.121 159.066 179.434L158.649 180.353C158.314 180.061 157.934 179.851 157.511 179.723C157.098 179.584 156.673 179.526 156.237 179.549C155.608 179.581 155.141 179.734 154.834 180.006C154.538 180.267 154.4 180.6 154.421 181.004C154.437 181.313 154.546 181.564 154.749 181.756C154.961 181.938 155.277 182.066 155.698 182.14L157.199 182.367C157.932 182.489 158.483 182.712 158.852 183.034C159.231 183.346 159.436 183.784 159.465 184.348C159.49 184.828 159.378 185.255 159.131 185.631C158.883 185.997 158.524 186.288 158.054 186.504C157.595 186.72 157.047 186.845 156.407 186.878ZM161.325 186.479L161.24 184.849L162.87 184.765L162.955 186.395L161.325 186.479ZM164.942 179.435L164.378 175.026L165.896 174.948L165.821 179.389L164.942 179.435ZM167.675 179.294L167.11 174.885L168.628 174.806L168.554 179.248L167.675 179.294Z" fill="#363636"/>
<defs>
<filter id="filter0_f_202_677" x="5.98594" y="8.49326" width="271.779" height="244.707" filterUnits="userSpaceOnUse" color-interpolation-filters="sRGB">
<feFlood flood-opacity="0" result="BackgroundImageFix"/>
<feBlend mode="normal" in="SourceGraphic" in2="BackgroundImageFix" result="shape"/>
<feGaussianBlur stdDeviation="4.05" result="effect1_foregroundBlur_202_677"/>
</filter>
<linearGradient id="paint0_linear_202_677" x1="134.834" y1="212.815" x2="240.482" y2="-24.0406" gradientUnits="userSpaceOnUse">
<stop stop-color="#FCE94F"/>
<stop offset="1" stop-color="#F5F54D" stop-opacity="0.96078"/>
</linearGradient>
</defs>
</svg>
