<svg width="285" height="263" viewBox="0 0 285 263" fill="none" xmlns="http://www.w3.org/2000/svg">
<g opacity="0.32" filter="url(#filter0_f_202_699)">
<path fill-rule="evenodd" clip-rule="evenodd" d="M234.41 17.0975L269.092 235.447L14.5801 244.59L15.4803 27.8516L234.407 17.0952L234.41 17.0975Z" fill="#2E3436"/>
<path fill-rule="evenodd" clip-rule="evenodd" d="M234.41 17.0975L269.092 235.447L14.5801 244.59L15.4803 27.8516L234.407 17.0952L234.41 17.0975Z" stroke="#363636" stroke-width="0.984377"/>
</g>
<path fill-rule="evenodd" clip-rule="evenodd" d="M7.27912 18.7545L247.249 5.35303C252.82 81.4836 258.981 157.738 264.552 232.184C199.576 242.423 94.897 242.437 5.94043 248.369C10.9439 171.831 11.0949 95.2946 7.27734 18.7527L7.27912 18.7545Z" fill="#6693B4"/>
<path fill-rule="evenodd" clip-rule="evenodd" d="M6.86213 17.1534L246.832 3.75195C252.403 79.8825 258.564 156.137 264.135 230.583C199.159 240.822 94.48 240.836 5.52344 246.768C10.5269 170.23 10.6779 93.6935 6.86035 17.1516L6.86213 17.1534Z" fill="#BFE4FF"/>
<path d="M37.0215 50.8707L36.4571 46.462L37.975 46.3834L37.9004 50.8252L37.0215 50.8707ZM39.7539 50.7294L39.1894 46.3206L40.7074 46.2421L40.6327 50.6839L39.7539 50.7294ZM42.5779 57.4405L46.9646 45.9185L48.1151 45.859L53.747 56.8628L52.3728 56.9338L50.8006 53.7949L51.4092 54.0998L44.5224 54.456L45.1442 54.0874L43.9361 57.3702L42.5779 57.4405ZM47.6024 47.4075L45.3279 53.6133L44.9296 53.3455L50.8736 53.0381L50.6009 53.3406L47.6344 47.4059L47.6024 47.4075ZM57.8848 56.793C57.2456 56.826 56.6447 56.7716 56.082 56.6299C55.5187 56.4774 55.0477 56.2508 54.669 55.9499L55.0692 55.016C55.4794 55.3045 55.9173 55.5115 56.3831 55.637C56.8595 55.7619 57.348 55.8114 57.8487 55.7855C58.4878 55.7524 58.9614 55.6158 59.2694 55.3755C59.5875 55.1241 59.7361 54.796 59.7152 54.3912C59.6992 54.0823 59.58 53.8428 59.3576 53.6727C59.1453 53.4914 58.802 53.3597 58.3278 53.2774L56.8261 53.0506C56.1366 52.9368 55.6123 52.7129 55.2533 52.379C54.8937 52.0344 54.6995 51.5852 54.6709 51.0313C54.6467 50.5626 54.7479 50.1461 54.9748 49.7819C55.201 49.407 55.5433 49.1063 56.0015 48.8797C56.4592 48.6424 57.0023 48.5075 57.6308 48.475C58.2167 48.4447 58.7593 48.5074 59.2587 48.6631C59.7682 48.8077 60.1966 49.0365 60.5439 49.3497L60.1268 50.2684C59.7912 49.976 59.4119 49.766 58.9887 49.6384C58.5757 49.4995 58.1508 49.4414 57.714 49.464C57.0855 49.4965 56.6181 49.6488 56.3117 49.921C56.0155 50.182 55.8778 50.5149 55.8988 50.9197C55.9147 51.2286 56.0238 51.4793 56.2261 51.6718C56.4384 51.8531 56.7547 51.9809 57.1751 52.0553L58.6768 52.282C59.4095 52.4043 59.9604 52.6268 60.3295 52.9495C60.7088 53.261 60.913 53.6991 60.9422 54.2637C60.967 54.743 60.8556 55.1707 60.608 55.5466C60.3599 55.9119 60.0011 56.2029 59.5317 56.4194C59.0729 56.6354 58.5239 56.7599 57.8848 56.793ZM70.3615 56.1476C69.6478 56.1846 69.0161 56.0517 68.4664 55.749C67.9161 55.4357 67.4759 54.9778 67.1457 54.3754C66.8261 53.7724 66.644 53.0395 66.5994 52.1767C66.5542 51.3032 66.6594 50.5501 66.9151 49.9173C67.1814 49.2841 67.5723 48.7885 68.0879 48.4308C68.6034 48.073 69.218 47.8757 69.9317 47.8387C70.6561 47.8013 71.2889 47.9555 71.8302 48.3013C72.3815 48.6359 72.7587 49.1131 72.9616 49.7328L72.7699 49.7427L72.8473 47.8321L74.0936 47.7677C74.0776 48.0783 74.0619 48.3942 74.0465 48.7154C74.0412 49.0254 74.0462 49.3295 74.0617 49.6278L74.3807 55.7956L73.0864 55.8625L72.9889 53.977L73.1646 53.9679C73.0267 54.6052 72.7008 55.1188 72.1869 55.5085C71.673 55.8982 71.0645 56.1113 70.3615 56.1476ZM70.5626 55.0798C71.3296 55.0402 71.9233 54.7478 72.3437 54.2027C72.7635 53.6469 72.9473 52.863 72.8949 51.851C72.842 50.8284 72.5784 50.0677 72.104 49.5689C71.6291 49.0594 71.0081 48.8245 70.2411 48.8641C69.4848 48.9033 68.8914 49.201 68.4609 49.7573C68.0405 50.3024 67.8567 51.0863 67.9096 52.1089C67.9619 53.1209 68.2256 53.8816 68.7005 54.3911C69.1856 54.8894 69.8063 55.1189 70.5626 55.0798ZM83.7252 55.4564C83.0861 55.4895 82.4852 55.4351 81.9224 55.2933C81.3591 55.1409 80.8881 54.9143 80.5094 54.6134L80.9097 53.6795C81.3198 53.968 81.7578 54.175 82.2235 54.3005C82.7 54.4254 83.1885 54.4749 83.6892 54.449C84.3283 54.4159 84.8019 54.2793 85.1099 54.039C85.428 53.7876 85.5766 53.4595 85.5556 53.0547C85.5397 52.7458 85.4205 52.5063 85.198 52.3362C84.9857 52.1549 84.6425 52.0232 84.1683 51.9409L82.6665 51.7141C81.9771 51.6003 81.4528 51.3764 81.0937 51.0425C80.7341 50.6979 80.54 50.2487 80.5114 49.6948C80.4871 49.2261 80.5884 48.8096 80.8152 48.4454C81.0415 48.0705 81.3838 47.7698 81.842 47.5432C82.2997 47.3059 82.8428 47.171 83.4713 47.1385C84.0571 47.1082 84.5998 47.1709 85.0992 47.3266C85.6086 47.4712 86.037 47.7 86.3843 48.0132L85.9672 48.9319C85.6317 48.6395 85.2523 48.4295 84.8292 48.3019C84.4161 48.163 83.9912 48.1049 83.5545 48.1275C82.926 48.16 82.4585 48.3123 82.1522 48.5845C81.8559 48.8455 81.7183 49.1784 81.7392 49.5832C81.7552 49.8921 81.8643 50.1428 82.0665 50.3353C82.2788 50.5166 82.5952 50.6444 83.0156 50.7188L84.5173 50.9455C85.2499 51.0678 85.8008 51.2903 86.17 51.613C86.5493 51.9245 86.7535 52.3626 86.7827 52.9271C86.8075 53.4065 86.6961 53.8342 86.4485 54.2101C86.2004 54.5754 85.8416 54.8663 85.3722 55.0829C84.9134 55.2989 84.3644 55.4234 83.7252 55.4564ZM89.1548 58.492L88.6573 48.8729C88.6418 48.5746 88.6102 48.2719 88.5622 47.9646C88.5244 47.6461 88.4815 47.3333 88.4336 47.026L89.6799 46.9615L89.954 48.8539L89.7623 48.8638C89.9002 48.2265 90.2208 47.7133 90.724 47.3241C91.2267 46.9243 91.8402 46.7056 92.5646 46.6681C93.289 46.6307 93.9207 46.7636 94.4597 47.0668C95.0094 47.3695 95.4494 47.822 95.7796 48.4244C96.1098 49.0268 96.2975 49.7648 96.3427 50.6383C96.3873 51.5011 96.2765 52.2492 96.0102 52.8825C95.7545 53.5152 95.3692 54.0157 94.8542 54.3842C94.3387 54.7419 93.7187 54.9396 92.9944 54.977C92.2806 55.0139 91.6534 54.8648 91.1127 54.5296C90.572 54.1944 90.2002 53.717 89.9973 53.0973L90.173 53.0882L90.4491 58.4251L89.1548 58.492ZM92.6842 53.9357C93.4511 53.896 94.0448 53.6036 94.4652 53.0585C94.8957 52.5022 95.0848 51.718 95.0325 50.7061C94.9796 49.6834 94.7106 48.923 94.2256 48.4247C93.7506 47.9152 93.1296 47.6803 92.3627 47.72C91.6063 47.7591 91.0129 48.0568 90.5824 48.6131C90.162 49.1582 89.9783 49.9421 90.0312 50.9647C90.0835 51.9767 90.3471 52.7374 90.8221 53.2469C91.3071 53.7452 91.9278 53.9748 92.6842 53.9357ZM101.856 54.5187C101.089 54.5583 100.41 54.4279 99.8173 54.1275C99.2351 53.8158 98.7736 53.359 98.4327 52.7572C98.0913 52.1446 97.8985 51.4123 97.8545 50.5601C97.8098 49.6973 97.926 48.9489 98.203 48.3151C98.4799 47.6813 98.8922 47.1847 99.4397 46.8252C99.9973 46.4546 100.66 46.2495 101.427 46.2098C102.204 46.1696 102.884 46.3053 103.466 46.617C104.059 46.9174 104.525 47.3686 104.866 47.9705C105.218 48.5718 105.416 49.3039 105.46 50.1667C105.504 51.0189 105.383 51.7675 105.096 52.4125C104.819 53.0464 104.402 53.5486 103.844 53.9192C103.296 54.2786 102.634 54.4785 101.856 54.5187ZM101.802 53.4641C102.569 53.4244 103.162 53.132 103.583 52.5869C104.003 52.0312 104.186 51.2473 104.134 50.2353C104.081 49.2127 103.812 48.4522 103.327 47.9539C102.852 47.4445 102.237 47.2093 101.48 47.2484C100.724 47.2875 100.136 47.585 99.716 48.1407C99.2956 48.6858 99.1118 49.4697 99.1647 50.4923C99.217 51.5043 99.4807 52.265 99.9556 52.7745C100.43 53.2734 101.045 53.5032 101.802 53.4641ZM107.686 54.073L107.367 47.9052C107.351 47.607 107.32 47.3042 107.272 46.9969C107.234 46.6785 107.191 46.3656 107.143 46.0583L108.389 45.9939L108.64 47.7432L108.448 47.7532C108.651 47.1232 108.999 46.6352 109.494 46.2892C109.999 45.932 110.592 45.7357 111.274 45.7005C112.222 45.6514 112.949 45.8702 113.455 46.3567C113.971 46.832 114.257 47.6129 114.313 48.6995L114.572 53.7168L113.278 53.7837L113.023 48.8463C112.984 48.09 112.801 47.5494 112.474 47.2245C112.158 46.8884 111.68 46.7369 111.041 46.7699C110.295 46.8085 109.716 47.0681 109.303 47.5487C108.89 48.0294 108.703 48.6532 108.743 49.4202L108.98 54.006L107.686 54.073ZM119.9 53.5854C119.111 53.6262 118.498 53.4336 118.059 53.0077C117.62 52.5712 117.377 51.8948 117.33 50.9787L117.101 46.5526L115.535 46.6336L115.483 45.627L117.049 45.546L116.935 43.3569L118.211 42.9224L118.343 45.479L120.644 45.36L120.696 46.3667L118.395 46.4857L118.617 50.768C118.65 51.4071 118.78 51.8597 119.007 52.1256C119.245 52.3803 119.582 52.4964 120.019 52.4738C120.221 52.4634 120.401 52.438 120.559 52.3978C120.717 52.3469 120.858 52.2915 120.983 52.2317L121.039 53.3182C120.894 53.3898 120.715 53.4471 120.504 53.4901C120.303 53.5432 120.102 53.575 119.9 53.5854ZM125.694 53.2858C124.98 53.3227 124.348 53.1898 123.799 52.8871C123.248 52.5738 122.808 52.1159 122.478 51.5135C122.158 50.9105 121.976 50.1776 121.932 49.3148C121.886 48.4413 121.992 47.6882 122.247 47.0555C122.514 46.4222 122.905 45.9267 123.42 45.5689C123.936 45.2111 124.55 45.0138 125.264 44.9769C125.988 44.9394 126.621 45.0936 127.162 45.4394C127.714 45.7741 128.091 46.2512 128.294 46.8709L128.102 46.8808L128.18 44.9703L129.426 44.9058C129.41 45.2164 129.394 45.5323 129.379 45.8535C129.373 46.1635 129.379 46.4677 129.394 46.7659L129.713 52.9337L128.419 53.0006L128.321 51.1152L128.497 51.1061C128.359 51.7434 128.033 52.2569 127.519 52.6466C127.005 53.0364 126.397 53.2494 125.694 53.2858ZM125.895 52.218C126.662 52.1783 127.256 51.8859 127.676 51.3408C128.096 50.785 128.28 50.0012 128.227 48.9892C128.174 47.9665 127.911 47.2058 127.436 46.707C126.961 46.1975 126.34 45.9626 125.573 46.0023C124.817 46.0414 124.224 46.3391 123.793 46.8954C123.373 47.4405 123.189 48.2244 123.242 49.247C123.294 50.259 123.558 51.0197 124.033 51.5292C124.518 52.0275 125.139 52.2571 125.895 52.218ZM132.215 52.8043L131.896 46.6365C131.881 46.3382 131.849 46.0355 131.801 45.7282C131.763 45.4097 131.721 45.0969 131.673 44.7896L132.919 44.7251L133.17 46.4745L132.978 46.4844C133.18 45.8545 133.529 45.3665 134.024 45.0205C134.529 44.6632 135.122 44.467 135.804 44.4317C136.752 44.3827 137.479 44.6015 137.984 45.088C138.5 45.5633 138.786 46.3442 138.843 47.4308L139.102 52.4481L137.808 52.515L137.553 47.5776C137.513 46.8213 137.331 46.2807 137.004 45.9558C136.688 45.6197 136.21 45.4682 135.571 45.5012C134.825 45.5398 134.246 45.7994 133.833 46.28C133.419 46.7607 133.233 47.3845 133.272 48.1515L133.51 52.7373L132.215 52.8043ZM145.149 52.2795C143.892 52.3445 142.882 52.0336 142.12 51.3467C141.358 50.6492 140.943 49.6506 140.876 48.351C140.832 47.5094 140.954 46.7715 141.242 46.1371C141.529 45.4921 141.951 44.9843 142.509 44.6136C143.066 44.2324 143.717 44.0224 144.463 43.9839C145.198 43.9458 145.824 44.0684 146.341 44.3514C146.857 44.6344 147.264 45.0566 147.56 45.6181C147.855 46.1689 148.023 46.8331 148.063 47.6108L148.088 48.0901L141.872 48.4116L141.83 47.5967L147.199 47.319L146.938 47.5408C146.894 46.6886 146.668 46.0327 146.26 45.5732C145.851 45.1137 145.269 44.9035 144.513 44.9426C143.714 44.9839 143.105 45.2984 142.687 45.8861C142.268 46.4632 142.083 47.2258 142.132 48.1738L142.14 48.3177C142.192 49.319 142.476 50.068 142.993 50.5646C143.52 51.05 144.231 51.2696 145.126 51.2233C145.605 51.1985 146.049 51.1061 146.457 50.9461C146.876 50.775 147.268 50.5144 147.635 50.1643L148.129 51.0519C147.795 51.411 147.362 51.7005 146.828 51.9203C146.305 52.1289 145.745 52.2487 145.149 52.2795ZM153.568 51.844C152.801 51.8837 152.122 51.7533 151.529 51.4528C150.947 51.1412 150.486 50.6844 150.145 50.0825C149.803 49.47 149.611 48.7377 149.567 47.8855C149.522 47.0226 149.638 46.2743 149.915 45.6405C150.192 45.0066 150.604 44.51 151.152 44.1506C151.709 43.78 152.372 43.5748 153.139 43.5352C153.916 43.4949 154.596 43.6307 155.178 43.9423C155.771 44.2428 156.237 44.694 156.578 45.2958C156.93 45.8972 157.128 46.6292 157.172 47.4921C157.216 48.3443 157.095 49.0929 156.808 49.7379C156.531 50.3717 156.114 50.8739 155.556 51.2446C155.009 51.604 154.346 51.8038 153.568 51.844ZM153.514 50.7895C154.281 50.7498 154.875 50.4574 155.295 49.9123C155.715 49.3565 155.899 48.5727 155.846 47.5607C155.793 46.538 155.524 45.7776 155.039 45.2793C154.564 44.7698 153.949 44.5346 153.192 44.5738C152.436 44.6129 151.848 44.9103 151.428 45.4661C151.008 46.0112 150.824 46.7951 150.877 47.8177C150.929 48.8297 151.193 49.5904 151.668 50.0999C152.142 50.5987 152.758 50.8286 153.514 50.7895ZM162.233 51.3959C161.285 51.4449 160.553 51.2211 160.036 50.7245C159.529 50.2273 159.248 49.4408 159.193 48.3649L158.935 43.3796L160.229 43.3126L160.485 48.266C160.523 49.001 160.701 49.5366 161.017 49.8727C161.333 50.1981 161.805 50.3446 162.434 50.3121C163.137 50.2757 163.69 50.0175 164.092 49.5374C164.494 49.0573 164.676 48.4338 164.636 47.6668L164.4 43.0969L165.694 43.03L166.109 51.0512L164.846 51.1165L164.753 49.3109L164.961 49.3002C164.769 49.9296 164.432 50.4277 163.949 50.7945C163.476 51.1607 162.905 51.3612 162.233 51.3959ZM171.296 50.9272C170.657 50.9602 170.056 50.9059 169.493 50.7641C168.93 50.6116 168.459 50.385 168.08 50.0841L168.48 49.1502C168.89 49.4388 169.328 49.6457 169.794 49.7712C170.27 49.8961 170.759 49.9456 171.26 49.9197C171.899 49.8866 172.372 49.75 172.68 49.5098C172.998 49.2583 173.147 48.9302 173.126 48.5254C173.11 48.2165 172.991 47.977 172.768 47.8069C172.556 47.6256 172.213 47.4939 171.739 47.4116L170.237 47.1849C169.548 47.071 169.023 46.8471 168.664 46.5132C168.305 46.1686 168.11 45.7194 168.082 45.1655C168.058 44.6968 168.159 44.2803 168.386 43.9161C168.612 43.5413 168.954 43.2405 169.412 43.0139C169.87 42.7766 170.413 42.6417 171.042 42.6092C171.628 42.5789 172.17 42.6416 172.67 42.7973C173.179 42.9419 173.607 43.1707 173.955 43.4839L173.538 44.4026C173.202 44.1103 172.823 43.9002 172.4 43.7726C171.987 43.6337 171.562 43.5756 171.125 43.5982C170.496 43.6307 170.029 43.7831 169.723 44.0552C169.426 44.3162 169.289 44.6491 169.31 45.0539C169.326 45.3628 169.435 45.6135 169.637 45.806C169.849 45.9873 170.166 46.1151 170.586 46.1895L172.088 46.4162C172.82 46.5386 173.371 46.7611 173.74 47.0838C174.12 47.3952 174.324 47.8333 174.353 48.3979C174.378 48.8772 174.267 49.3049 174.019 49.6808C173.771 50.0461 173.412 50.3371 172.943 50.5536C172.484 50.7696 171.935 50.8941 171.296 50.9272ZM41.5416 84.6743C40.7533 84.7151 40.1399 84.5225 39.7013 84.0966C39.2622 83.6601 39.0189 82.9837 38.9715 82.0676L38.7426 77.6415L37.1767 77.7225L37.1246 76.7159L38.6906 76.6349L38.5773 74.4458L39.8526 74.0113L39.9848 76.5679L42.2857 76.4489L42.3378 77.4556L40.0369 77.5746L40.2584 81.8569C40.2914 82.496 40.4216 82.9485 40.649 83.2145C40.8865 83.4692 41.2236 83.5853 41.6604 83.5627C41.8628 83.5523 42.043 83.5269 42.2012 83.4867C42.3587 83.4358 42.5001 83.3804 42.6251 83.3206L42.6813 84.4071C42.5355 84.4787 42.3569 84.536 42.1455 84.579C41.9453 84.6321 41.744 84.6639 41.5416 84.6743ZM44.2443 84.3904L43.9294 78.3025C43.9129 77.9829 43.8854 77.6586 43.8471 77.3294C43.8193 76.9998 43.7815 76.6813 43.7336 76.374L44.9799 76.3096L45.2405 78.2507L45.0176 78.2783C45.0994 77.7934 45.2654 77.3896 45.5157 77.0669C45.7661 76.7442 46.0685 76.4989 46.4229 76.3311C46.7769 76.1525 47.1509 76.0531 47.545 76.0327C47.7048 76.0244 47.8436 76.0226 47.9613 76.0272C48.0897 76.0312 48.2082 76.0518 48.317 76.0889L48.3605 77.2402C48.1979 77.1952 48.0471 77.171 47.9081 77.1675C47.7792 77.1528 47.6295 77.1498 47.4591 77.1587C46.9904 77.1829 46.586 77.316 46.2461 77.5578C45.9168 77.7992 45.6706 78.1003 45.5077 78.4612C45.3555 78.8215 45.2895 79.1988 45.3099 79.5929L45.5546 84.3226L44.2443 84.3904ZM53.0623 84.0785C52.3486 84.1154 51.7169 83.9825 51.1672 83.6798C50.617 83.3665 50.1767 82.9086 49.8465 82.3062C49.5269 81.7032 49.3448 80.9703 49.3002 80.1075C49.255 79.234 49.3603 78.4809 49.6159 77.8482C49.8822 77.2149 50.2732 76.7194 50.7887 76.3616C51.3043 76.0038 51.9189 75.8065 52.6326 75.7696C53.357 75.7321 53.9898 75.8863 54.531 76.2321C55.0824 76.5668 55.4595 77.0439 55.6625 77.6636L55.4707 77.6735L55.5481 75.763L56.7945 75.6985C56.7785 76.0091 56.7628 76.325 56.7474 76.6462C56.742 76.9562 56.7471 77.2604 56.7625 77.5586L57.0815 83.7264L55.7873 83.7933L55.6897 81.9079L55.8655 81.8988C55.7276 82.5361 55.4017 83.0496 54.8878 83.4393C54.3739 83.8291 53.7654 84.0421 53.0623 84.0785ZM53.2635 83.0107C54.0304 82.971 54.6241 82.6786 55.0445 82.1335C55.4644 81.5777 55.6481 80.7939 55.5958 79.7819C55.5429 78.7592 55.2793 77.9985 54.8049 77.4997C54.3299 76.9902 53.7089 76.7553 52.942 76.795C52.1856 76.8341 51.5922 77.1318 51.1617 77.6881C50.7413 78.2332 50.5576 79.0171 50.6105 80.0397C50.6628 81.0517 50.9264 81.8124 51.4014 82.3219C51.8864 82.8202 52.5071 83.0498 53.2635 83.0107ZM61.8707 83.4787L58.0205 75.6351L59.4266 75.5624L62.668 82.4762L62.2366 82.4985L64.7794 75.2855L66.1216 75.2161L63.1011 83.4151L61.8707 83.4787ZM71.456 83.1271C70.199 83.1921 69.1896 82.8812 68.4278 82.1943C67.6654 81.4967 67.2506 80.4982 67.1834 79.1986C67.1399 78.357 67.2619 77.6191 67.5495 76.9847C67.8366 76.3397 68.2589 75.8318 68.8165 75.4612C69.3736 75.0799 70.0249 74.87 70.7706 74.8314C71.5056 74.7934 72.1314 74.9159 72.6481 75.199C73.1647 75.482 73.5711 75.9042 73.8671 76.4657C74.1627 77.0165 74.3305 77.6807 74.3707 78.4583L74.3955 78.9377L68.1798 79.2592L68.1377 78.4443L73.5065 78.1666L73.2456 78.3884C73.2015 77.5362 72.9754 76.8803 72.5671 76.4208C72.1588 75.9612 71.5765 75.751 70.8202 75.7902C70.0213 75.8315 69.4127 76.146 68.9945 76.7337C68.5757 77.3108 68.3909 78.0734 68.4399 79.0214L68.4473 79.1652C68.4991 80.1666 68.7835 80.9155 69.3005 81.4122C69.8277 81.8976 70.5386 82.1172 71.4334 82.0709C71.9128 82.0461 72.3566 81.9537 72.7649 81.7937C73.1833 81.6226 73.5757 81.3619 73.9421 81.0119L74.4366 81.8995C74.1027 82.2586 73.669 82.548 73.1357 82.7679C72.6124 82.9765 72.0525 83.0963 71.456 83.1271ZM76.5768 82.7181L75.9686 70.9578L77.2628 70.8908L77.8711 82.6511L76.5768 82.7181ZM80.3842 82.5211L79.776 70.7609L81.0703 70.6939L81.6785 82.4542L80.3842 82.5211ZM87.7623 82.2837C86.5053 82.3487 85.4959 82.0378 84.7341 81.3509C83.9717 80.6533 83.5569 79.6548 83.4897 78.3552C83.4462 77.5136 83.5682 76.7757 83.8558 76.1413C84.1429 75.4963 84.5652 74.9885 85.1228 74.6178C85.6799 74.2365 86.3313 74.0266 87.0769 73.9881C87.8119 73.95 88.4378 74.0725 88.9544 74.3556C89.4711 74.6386 89.8774 75.0608 90.1735 75.6223C90.469 76.1731 90.6369 76.8373 90.6771 77.6149L90.7019 78.0943L84.4862 78.4158L84.444 77.6009L89.8128 77.3232L89.552 77.545C89.5079 76.6928 89.2817 76.0369 88.8734 75.5774C88.4651 75.1179 87.8828 74.9077 87.1265 74.9468C86.3276 74.9881 85.719 75.3026 85.3008 75.8903C84.8821 76.4674 84.6972 77.23 84.7462 78.178L84.7537 78.3218C84.8055 79.3232 85.0899 80.0721 85.6069 80.5688C86.134 81.0542 86.8449 81.2738 87.7397 81.2275C88.2191 81.2027 88.6629 81.1103 89.0712 80.9503C89.4896 80.7792 89.882 80.5186 90.2484 80.1685L90.7429 81.0561C90.409 81.4152 89.9754 81.7046 89.442 81.9245C88.9188 82.1331 88.3589 82.2529 87.7623 82.2837ZM92.8512 81.8763L92.5363 75.7885C92.5198 75.4689 92.4924 75.1445 92.454 74.8154C92.4262 74.4858 92.3884 74.1673 92.3405 73.86L93.5868 73.7955L93.8474 75.7367L93.6245 75.7642C93.7063 75.2794 93.8723 74.8756 94.1226 74.5529C94.373 74.2302 94.6754 73.9849 95.0298 73.817C95.3838 73.6385 95.7578 73.5391 96.1519 73.5187C96.3117 73.5104 96.4505 73.5086 96.5682 73.5132C96.6966 73.5172 96.8151 73.5378 96.9239 73.5749L96.9674 74.7262C96.8048 74.6812 96.6541 74.6569 96.515 74.6534C96.3861 74.6388 96.2364 74.6358 96.066 74.6446C95.5973 74.6689 95.1929 74.8019 94.853 75.0438C94.5237 75.2851 94.2775 75.5863 94.1146 75.9472C93.9624 76.3075 93.8964 76.6847 93.9168 77.0789L94.1615 81.8086L92.8512 81.8763ZM98.8699 83.3915L98.2387 82.9595C98.5109 82.6464 98.6827 82.3544 98.7542 82.0837C98.8368 81.8231 98.8713 81.5596 98.8575 81.2933L99.1592 81.5501L98.1046 81.6046L98.0203 79.9748L99.6501 79.8905L99.7096 81.041C99.7316 81.4671 99.683 81.8701 99.5639 82.2501C99.4452 82.6408 99.2139 83.0212 98.8699 83.3915ZM106.306 81.1804L105.723 69.9155L107.05 69.8469L107.632 81.1118L106.306 81.1804ZM116.605 80.6478L113.218 72.7802L114.592 72.7091L117.434 79.6436L117.019 79.6651L119.21 72.4703L120.328 72.4124L123.202 79.3452L122.803 79.3659L124.93 72.1744L126.241 72.1066L123.667 80.2825L122.421 80.3469L119.461 73.3064L120.101 73.2733L117.867 80.5825L116.605 80.6478ZM131.255 80.0342C130.541 80.0711 129.909 79.9383 129.36 79.6356C128.809 79.3223 128.369 78.8644 128.039 78.262C127.719 77.659 127.537 76.9261 127.493 76.0633C127.447 75.1898 127.553 74.4367 127.808 73.8039C128.075 73.1707 128.466 72.6751 128.981 72.3174C129.497 71.9596 130.111 71.7623 130.825 71.7253C131.549 71.6879 132.182 71.8421 132.723 72.1879C133.275 72.5225 133.652 72.9997 133.855 73.6194L133.663 73.6293L133.741 71.7187L134.987 71.6543C134.971 71.9648 134.955 72.2807 134.94 72.602C134.934 72.912 134.939 73.2161 134.955 73.5144L135.274 79.6822L133.98 79.7491L133.882 77.8636L134.058 77.8545C133.92 78.4918 133.594 79.0054 133.08 79.3951C132.566 79.7848 131.958 79.9979 131.255 80.0342ZM131.456 78.9664C132.223 78.9268 132.816 78.6344 133.237 78.0893C133.657 77.5335 133.84 76.7496 133.788 75.7376C133.735 74.715 133.472 73.9543 132.997 73.4554C132.522 72.946 131.901 72.7111 131.134 72.7507C130.378 72.7898 129.785 73.0876 129.354 73.6439C128.934 74.189 128.75 74.9729 128.803 75.9955C128.855 77.0075 129.119 77.7682 129.594 78.2777C130.079 78.776 130.699 79.0055 131.456 78.9664ZM137.776 79.5527L137.457 73.385C137.442 73.0867 137.41 72.7839 137.362 72.4767C137.324 72.1582 137.282 71.8453 137.234 71.5381L138.48 71.4736L138.731 73.223L138.539 73.2329C138.741 72.6029 139.09 72.115 139.585 71.7689C140.09 71.4117 140.683 71.2155 141.365 71.1802C142.313 71.1312 143.04 71.3499 143.545 71.8364C144.061 72.3118 144.347 73.0927 144.404 74.1792L144.663 79.1965L143.369 79.2635L143.113 74.3261C143.074 73.5698 142.891 73.0291 142.565 72.7042C142.248 72.3681 141.771 72.2166 141.132 72.2497C140.386 72.2882 139.807 72.5479 139.393 73.0285C138.98 73.5091 138.794 74.1329 138.833 74.8999L139.071 79.4858L137.776 79.5527ZM149.99 79.0652C149.202 79.106 148.589 78.9134 148.15 78.4875C147.711 78.0509 147.468 77.3746 147.42 76.4585L147.191 72.0324L145.625 72.1134L145.573 71.1067L147.139 71.0257L147.026 68.8367L148.301 68.4022L148.434 70.9588L150.735 70.8398L150.787 71.8464L148.486 71.9654L148.707 76.2477C148.74 76.8869 148.87 77.3394 149.098 77.6054C149.335 77.8601 149.672 77.9762 150.109 77.9536C150.312 77.9431 150.492 77.9178 150.65 77.8775C150.808 77.8267 150.949 77.7713 151.074 77.7114L151.13 78.798C150.984 78.8696 150.806 78.9269 150.594 78.9699C150.394 79.023 150.193 79.0547 149.99 79.0652ZM159.743 78.5608C158.955 78.6015 158.341 78.409 157.903 77.9831C157.464 77.5465 157.22 76.8702 157.173 75.954L156.944 71.528L155.378 71.609L155.326 70.6023L156.892 70.5213L156.779 68.3322L158.054 67.8978L158.186 70.4544L160.487 70.3354L160.539 71.342L158.238 71.461L158.46 75.7433C158.493 76.3824 158.623 76.835 158.85 77.1009C159.088 77.3557 159.425 77.4717 159.862 77.4492C160.064 77.4387 160.244 77.4133 160.403 77.3731C160.56 77.3223 160.701 77.2669 160.827 77.207L160.883 78.2936C160.737 78.3652 160.558 78.4225 160.347 78.4655C160.147 78.5185 159.945 78.5503 159.743 78.5608ZM165.699 78.2527C164.932 78.2924 164.252 78.162 163.66 77.8615C163.078 77.5499 162.616 77.0931 162.275 76.4912C161.934 75.8787 161.741 75.1464 161.697 74.2942C161.652 73.4313 161.768 72.683 162.045 72.0492C162.322 71.4153 162.735 70.9187 163.282 70.5593C163.84 70.1887 164.502 69.9835 165.269 69.9438C166.047 69.9036 166.726 70.0394 167.309 70.351C167.901 70.6515 168.368 71.1027 168.708 71.7045C169.06 72.3058 169.258 73.0379 169.303 73.9008C169.347 74.753 169.225 75.5016 168.938 76.1466C168.661 76.7804 168.244 77.2826 167.686 77.6533C167.139 78.0127 166.476 78.2125 165.699 78.2527ZM165.644 77.1981C166.411 77.1585 167.005 76.8661 167.425 76.321C167.845 75.7652 168.029 74.9813 167.976 73.9694C167.924 72.9467 167.655 72.1863 167.17 71.688C166.695 71.1785 166.079 70.9433 165.323 70.9825C164.566 71.0216 163.978 71.319 163.558 71.8748C163.138 72.4199 162.954 73.2038 163.007 74.2264C163.059 75.2384 163.323 75.9991 163.798 76.5086C164.272 77.0074 164.888 77.2373 165.644 77.1981ZM178.754 77.5775C178.04 77.6144 177.408 77.4815 176.859 77.1789C176.308 76.8655 175.868 76.4077 175.538 75.8053C175.218 75.2023 175.036 74.4694 174.992 73.6065C174.946 72.733 175.052 71.9799 175.307 71.3472C175.574 70.7139 175.965 70.2184 176.48 69.8607C176.996 69.5029 177.61 69.3055 178.324 69.2686C179.048 69.2312 179.681 69.3853 180.222 69.7312C180.774 70.0658 181.151 70.543 181.354 71.1626L181.162 71.1726L181.24 69.262L182.486 69.1976C182.47 69.5081 182.454 69.824 182.439 70.1453C182.433 70.4553 182.438 70.7594 182.454 71.0577L182.773 77.2254L181.479 77.2924L181.381 75.4069L181.557 75.3978C181.419 76.0351 181.093 76.5486 180.579 76.9384C180.065 77.3281 179.457 77.5411 178.754 77.5775ZM178.955 76.5097C179.722 76.47 180.315 76.1776 180.736 75.6325C181.156 75.0768 181.34 74.2929 181.287 73.2809C181.234 72.2583 180.971 71.4976 180.496 70.9987C180.021 70.4892 179.4 70.2543 178.633 70.294C177.877 70.3331 177.284 70.6308 176.853 71.1872C176.433 71.7323 176.249 72.5161 176.302 73.5388C176.354 74.5507 176.618 75.3115 177.093 75.821C177.578 76.3192 178.198 76.5488 178.955 76.5097ZM188.654 77.0654C187.866 77.1062 187.17 76.9713 186.567 76.6607C185.974 76.3496 185.501 75.8881 185.149 75.2761C184.808 74.6636 184.615 73.9259 184.57 73.0631C184.525 72.1896 184.646 71.441 184.935 70.8172C185.222 70.1829 185.645 69.691 186.204 69.3417C186.773 68.9918 187.447 68.7968 188.224 68.7565C188.736 68.7301 189.236 68.795 189.725 68.9513C190.224 69.1071 190.642 69.3418 190.979 69.6555L190.563 70.6062C190.228 70.3138 189.864 70.103 189.473 69.9737C189.092 69.8438 188.721 69.7883 188.359 69.807C187.528 69.85 186.897 70.1443 186.466 70.69C186.035 71.2356 185.845 72.0091 185.897 73.0104C185.948 74.0011 186.217 74.7562 186.703 75.2758C187.189 75.7954 187.848 76.0337 188.679 75.9907C189.03 75.9726 189.389 75.8846 189.755 75.7268C190.131 75.5685 190.476 75.321 190.79 74.9844L191.3 75.8712C190.987 76.2291 190.591 76.5113 190.11 76.7178C189.63 76.9242 189.144 77.0401 188.654 77.0654ZM196.409 76.6643C195.621 76.7051 194.925 76.5702 194.322 76.2596C193.729 75.9485 193.256 75.487 192.904 74.875C192.563 74.2625 192.37 73.5248 192.325 72.6619C192.28 71.7884 192.402 71.0398 192.69 70.4161C192.977 69.7817 193.401 69.2899 193.959 68.9406C194.529 68.5907 195.202 68.3957 195.98 68.3554C196.491 68.329 196.991 68.3939 197.48 68.5502C197.979 68.706 198.397 68.9407 198.734 69.2544L198.318 70.2051C197.983 69.9127 197.619 69.7019 197.228 69.5726C196.848 69.4427 196.476 69.3872 196.114 69.4059C195.283 69.4489 194.652 69.7432 194.221 70.2888C193.79 70.8345 193.601 71.608 193.652 72.6093C193.704 73.6 193.972 74.3551 194.458 74.8747C194.945 75.3943 195.603 75.6326 196.434 75.5896C196.786 75.5714 197.144 75.4835 197.51 75.3257C197.886 75.1674 198.231 74.9199 198.545 74.5833L199.055 75.4701C198.743 75.828 198.346 76.1102 197.865 76.3167C197.385 76.5231 196.899 76.639 196.409 76.6643ZM204.356 76.2533C203.099 76.3183 202.09 76.0074 201.328 75.3205C200.566 74.6229 200.151 73.6243 200.084 72.3247C200.04 71.4832 200.162 70.7452 200.45 70.1109C200.737 69.4659 201.159 68.958 201.717 68.5874C202.274 68.2061 202.925 67.9962 203.671 67.9576C204.406 67.9196 205.032 68.0421 205.549 68.3251C206.065 68.6082 206.472 69.0304 206.768 69.5919C207.063 70.1427 207.231 70.8069 207.271 71.5845L207.296 72.0639L201.08 72.3854L201.038 71.5704L206.407 71.2928L206.146 71.5145C206.102 70.6623 205.876 70.0065 205.468 69.547C205.059 69.0874 204.477 68.8772 203.721 68.9163C202.922 68.9577 202.313 69.2722 201.895 69.8599C201.476 70.437 201.291 71.1995 201.34 72.1476L201.348 72.2914C201.4 73.2927 201.684 74.0417 202.201 74.5383C202.728 75.0238 203.439 75.2433 204.334 75.1971C204.813 75.1723 205.257 75.0799 205.665 74.9199C206.084 74.7487 206.476 74.4881 206.843 74.1381L207.337 75.0257C207.003 75.3848 206.57 75.6742 206.036 75.8941C205.513 76.1027 204.953 76.2224 204.356 76.2533ZM212.153 75.85C211.514 75.8831 210.913 75.8287 210.35 75.6869C209.787 75.5345 209.316 75.3079 208.937 75.007L209.338 74.0731C209.748 74.3616 210.186 74.5686 210.651 74.6941C211.128 74.819 211.616 74.8685 212.117 74.8426C212.756 74.8095 213.23 74.6729 213.538 74.4326C213.856 74.1812 214.005 73.8531 213.984 73.4483C213.968 73.1394 213.848 72.8999 213.626 72.7298C213.414 72.5485 213.07 72.4167 212.596 72.3345L211.094 72.1077C210.405 71.9939 209.881 71.77 209.522 71.4361C209.162 71.0915 208.968 70.6423 208.939 70.0884C208.915 69.6196 209.016 69.2032 209.243 68.839C209.469 68.4641 209.812 68.1634 210.27 67.9368C210.728 67.6995 211.271 67.5646 211.899 67.5321C212.485 67.5018 213.028 67.5645 213.527 67.7202C214.037 67.8648 214.465 68.0936 214.812 68.4068L214.395 69.3255C214.06 69.0331 213.68 68.8231 213.257 68.6955C212.844 68.5566 212.419 68.4985 211.982 68.5211C211.354 68.5536 210.886 68.7059 210.58 68.9781C210.284 69.2391 210.146 69.572 210.167 69.9768C210.183 70.2857 210.292 70.5364 210.494 70.7289C210.707 70.9102 211.023 71.038 211.444 71.1124L212.945 71.3391C213.678 71.4614 214.229 71.6839 214.598 72.0066C214.977 72.3181 215.181 72.7562 215.211 73.3207C215.235 73.8001 215.124 74.2278 214.876 74.6037C214.628 74.969 214.27 75.2599 213.8 75.4765C213.341 75.6925 212.792 75.817 212.153 75.85ZM220.08 75.44C219.441 75.4731 218.84 75.4187 218.277 75.277C217.714 75.1245 217.243 74.8979 216.864 74.597L217.265 73.6631C217.675 73.9516 218.113 74.1586 218.578 74.2841C219.055 74.409 219.543 74.4585 220.044 74.4326C220.683 74.3995 221.157 74.2629 221.465 74.0226C221.783 73.7712 221.931 73.4431 221.91 73.0383C221.895 72.7294 221.775 72.4899 221.553 72.3198C221.341 72.1385 220.997 72.0068 220.523 71.9245L219.021 71.6977C218.332 71.5839 217.808 71.36 217.449 71.0261C217.089 70.6815 216.895 70.2323 216.866 69.6784C216.842 69.2097 216.943 68.7932 217.17 68.429C217.396 68.0541 217.739 67.7534 218.197 67.5268C218.655 67.2895 219.198 67.1546 219.826 67.1221C220.412 67.0918 220.955 67.1545 221.454 67.3102C221.963 67.4548 222.392 67.6836 222.739 67.9968L222.322 68.9155C221.987 68.6231 221.607 68.4131 221.184 68.2855C220.771 68.1466 220.346 68.0885 219.909 68.1111C219.281 68.1436 218.813 68.2959 218.507 68.5681C218.211 68.8291 218.073 69.162 218.094 69.5668C218.11 69.8757 218.219 70.1264 218.421 70.3189C218.634 70.5002 218.95 70.628 219.37 70.7024L220.872 70.9291C221.605 71.0514 222.156 71.2739 222.525 71.5966C222.904 71.9081 223.108 72.3462 223.138 72.9107C223.162 73.3901 223.051 73.8178 222.803 74.1937C222.555 74.559 222.196 74.8499 221.727 75.0665C221.268 75.2825 220.719 75.407 220.08 75.44ZM40.0846 111.642L39.4763 99.8813L40.7706 99.8144L41.3789 111.575L40.0846 111.642ZM47.191 111.418C46.4241 111.458 45.7444 111.327 45.1521 111.027C44.5699 110.715 44.1084 110.259 43.7675 109.657C43.4261 109.044 43.2333 108.312 43.1892 107.46C43.1446 106.597 43.2608 105.848 43.5377 105.215C43.8147 104.581 44.2269 104.084 44.7744 103.725C45.332 103.354 45.9943 103.149 46.7613 103.109C47.5389 103.069 48.2188 103.205 48.8011 103.517C49.3934 103.817 49.86 104.268 50.2008 104.87C50.5524 105.471 50.7504 106.203 50.7951 107.066C50.8391 107.918 50.7177 108.667 50.4306 109.312C50.1536 109.946 49.7363 110.448 49.1787 110.819C48.6312 111.178 47.9687 111.378 47.191 111.418ZM47.1365 110.364C47.9035 110.324 48.4972 110.032 48.9176 109.486C49.3374 108.931 49.5212 108.147 49.4688 107.135C49.4159 106.112 49.147 105.352 48.6619 104.853C48.187 104.344 47.5713 104.109 46.815 104.148C46.0587 104.187 45.4706 104.485 45.0508 105.04C44.6303 105.585 44.4466 106.369 44.4995 107.392C44.5518 108.404 44.8155 109.165 45.2904 109.674C45.7648 110.173 46.3802 110.403 47.1365 110.364ZM56.3994 110.942C55.6111 110.983 54.9152 110.848 54.3117 110.537C53.7188 110.226 53.2463 109.765 52.8943 109.153C52.5528 108.54 52.3598 107.802 52.3152 106.94C52.27 106.066 52.3915 105.317 52.6797 104.694C52.9673 104.059 53.3904 103.568 53.9491 103.218C54.5185 102.868 55.192 102.673 55.9696 102.633C56.4809 102.607 56.981 102.672 57.4697 102.828C57.9691 102.984 58.3871 103.218 58.7237 103.532L58.3083 104.483C57.9727 104.19 57.6094 103.979 57.2182 103.85C56.8376 103.72 56.4662 103.665 56.1041 103.684C55.2732 103.726 54.6422 104.021 54.2111 104.566C53.7801 105.112 53.5904 105.886 53.6422 106.887C53.6935 107.878 53.9622 108.633 54.4483 109.152C54.9345 109.672 55.593 109.91 56.4239 109.867C56.7754 109.849 57.134 109.761 57.4997 109.603C57.876 109.445 58.221 109.198 58.5347 108.861L59.0452 109.748C58.7326 110.106 58.336 110.388 57.8554 110.594C57.3747 110.801 56.8894 110.917 56.3994 110.942ZM63.9287 110.553C63.215 110.589 62.5833 110.457 62.0336 110.154C61.4833 109.841 61.0431 109.383 60.7128 108.78C60.3933 108.177 60.2112 107.444 60.1665 106.582C60.1214 105.708 60.2266 104.955 60.4823 104.322C60.7486 103.689 61.1395 103.193 61.655 102.836C62.1706 102.478 62.7852 102.281 63.4989 102.244C64.2233 102.206 64.8561 102.36 65.3974 102.706C65.9487 103.041 66.3259 103.518 66.5288 104.138L66.3371 104.148L66.4145 102.237L67.6608 102.173C67.6448 102.483 67.6291 102.799 67.6137 103.12C67.6084 103.43 67.6134 103.734 67.6288 104.033L67.9479 110.2L66.6536 110.267L66.5561 108.382L66.7318 108.373C66.5939 109.01 66.268 109.524 65.7541 109.913C65.2402 110.303 64.6317 110.516 63.9287 110.553ZM64.1298 109.485C64.8968 109.445 65.4905 109.153 65.9109 108.608C66.3307 108.052 66.5145 107.268 66.4621 106.256C66.4092 105.233 66.1456 104.473 65.6712 103.974C65.1962 103.464 64.5753 103.229 63.8083 103.269C63.052 103.308 62.4586 103.606 62.0281 104.162C61.6077 104.707 61.4239 105.491 61.4768 106.514C61.5291 107.526 61.7928 108.286 62.2677 108.796C62.7528 109.294 63.3735 109.524 64.1298 109.485ZM70.4503 110.071L69.842 98.3108L71.1363 98.2438L71.7445 110.004L70.4503 110.071ZM81.8029 109.628C81.0146 109.669 80.3187 109.534 79.7152 109.223C79.1224 108.912 78.6499 108.451 78.2978 107.839C77.9564 107.226 77.7634 106.489 77.7187 105.626C77.6735 104.752 77.795 104.004 78.0832 103.38C78.3708 102.745 78.794 102.254 79.3527 101.904C79.922 101.554 80.5955 101.359 81.3732 101.319C81.8845 101.293 82.3845 101.358 82.8732 101.514C83.3726 101.67 83.7906 101.904 84.1273 102.218L83.7118 103.169C83.3763 102.876 83.0129 102.666 82.6217 102.536C82.2411 102.406 81.8698 102.351 81.5076 102.37C80.6767 102.413 80.0457 102.707 79.6147 103.253C79.1836 103.798 78.994 104.572 79.0458 105.573C79.097 106.564 79.3657 107.319 79.8519 107.838C80.338 108.358 80.9965 108.596 81.8274 108.553C82.179 108.535 82.5376 108.447 82.9032 108.289C83.2796 108.131 83.6246 107.884 83.9383 107.547L84.4488 108.434C84.1362 108.792 83.7395 109.074 83.2589 109.28C82.7782 109.487 82.2929 109.603 81.8029 109.628ZM89.1709 109.247C88.2229 109.296 87.4903 109.072 86.9733 108.576C86.467 108.078 86.186 107.292 86.1303 106.216L85.8725 101.231L87.1667 101.164L87.4229 106.117C87.4609 106.852 87.6382 107.388 87.9546 107.724C88.2705 108.049 88.7427 108.196 89.3712 108.163C90.0743 108.127 90.627 107.869 91.0294 107.388C91.4318 106.908 91.6132 106.285 91.5735 105.518L91.3372 100.948L92.6314 100.881L93.0463 108.902L91.784 108.968L91.6906 107.162L91.8983 107.151C91.7066 107.781 91.3692 108.279 90.8862 108.646C90.4138 109.012 89.842 109.212 89.1709 109.247ZM95.5254 108.774L95.2105 102.686C95.194 102.367 95.1665 102.042 95.1281 101.713C95.1004 101.384 95.0626 101.065 95.0146 100.758L96.261 100.693L96.5216 102.634L96.2987 102.662C96.3804 102.177 96.5465 101.773 96.7968 101.451C97.0471 101.128 97.3495 100.883 97.704 100.715C98.0579 100.536 98.4319 100.437 98.8261 100.416C98.9859 100.408 99.1246 100.406 99.2424 100.411C99.3707 100.415 99.4893 100.436 99.598 100.473L99.6415 101.624C99.479 101.579 99.3282 101.555 99.1892 101.551C99.0602 101.537 98.9106 101.534 98.7401 101.542C98.2714 101.567 97.8671 101.7 97.5271 101.942C97.1978 102.183 96.9517 102.484 96.7888 102.845C96.6365 103.205 96.5706 103.583 96.591 103.977L96.8356 108.706L95.5254 108.774ZM101.33 108.474L101.015 102.386C100.999 102.066 100.971 101.742 100.933 101.413C100.905 101.083 100.867 100.765 100.819 100.458L102.066 100.393L102.326 102.334L102.103 102.362C102.185 101.877 102.351 101.473 102.602 101.15C102.852 100.828 103.154 100.582 103.509 100.415C103.863 100.236 104.237 100.137 104.631 100.116C104.791 100.108 104.929 100.106 105.047 100.111C105.175 100.115 105.294 100.135 105.403 100.172L105.446 101.324C105.284 101.279 105.133 101.254 104.994 101.251C104.865 101.236 104.715 101.233 104.545 101.242C104.076 101.266 103.672 101.399 103.332 101.641C103.003 101.883 102.756 102.184 102.594 102.545C102.441 102.905 102.375 103.282 102.396 103.676L102.64 108.406L101.33 108.474ZM110.644 108.136C109.387 108.201 108.377 107.89 107.616 107.204C106.853 106.506 106.438 105.507 106.371 104.208C106.328 103.366 106.45 102.628 106.737 101.994C107.024 101.349 107.447 100.841 108.004 100.47C108.561 100.089 109.213 99.8792 109.958 99.8407C110.693 99.8027 111.319 99.9252 111.836 100.208C112.353 100.491 112.759 100.913 113.055 101.475C113.351 102.026 113.518 102.69 113.559 103.468L113.583 103.947L107.368 104.268L107.326 103.453L112.694 103.176L112.433 103.398C112.389 102.545 112.163 101.89 111.755 101.43C111.347 100.97 110.764 100.76 110.008 100.799C109.209 100.841 108.601 101.155 108.182 101.743C107.764 102.32 107.579 103.083 107.628 104.031L107.635 104.174C107.687 105.176 107.971 105.925 108.488 106.421C109.016 106.907 109.726 107.126 110.621 107.08C111.101 107.055 111.544 106.963 111.953 106.803C112.371 106.632 112.764 106.371 113.13 106.021L113.624 106.909C113.291 107.268 112.857 107.557 112.324 107.777C111.8 107.986 111.24 108.105 110.644 108.136ZM115.765 107.727L115.446 101.56C115.43 101.261 115.399 100.959 115.351 100.651C115.313 100.333 115.27 100.02 115.222 99.7126L116.468 99.6482L116.719 101.398L116.527 101.407C116.73 100.778 117.078 100.29 117.573 99.9435C118.078 99.5863 118.671 99.39 119.353 99.3548C120.301 99.3057 121.028 99.5245 121.534 100.011C122.05 100.486 122.336 101.267 122.392 102.354L122.651 107.371L121.357 107.438L121.102 102.501C121.063 101.744 120.88 101.204 120.553 100.879C120.237 100.543 119.759 100.391 119.12 100.424C118.374 100.463 117.795 100.722 117.382 101.203C116.969 101.684 116.782 102.308 116.822 103.074L117.059 107.66L115.765 107.727ZM128.506 107.212C127.718 107.253 127.022 107.118 126.418 106.808C125.826 106.497 125.353 106.035 125.001 105.423C124.66 104.811 124.467 104.073 124.422 103.21C124.377 102.337 124.498 101.588 124.786 100.964C125.074 100.33 125.497 99.8381 126.056 99.4887C126.625 99.1389 127.299 98.9438 128.076 98.9036C128.588 98.8771 129.088 98.9421 129.576 99.0984C130.076 99.2541 130.494 99.4888 130.83 99.8025L130.415 100.753C130.079 100.461 129.716 100.25 129.325 100.121C128.944 99.9909 128.573 99.9353 128.211 99.9541C127.38 99.997 126.749 100.291 126.318 100.837C125.887 101.383 125.697 102.156 125.749 103.157C125.8 104.148 126.069 104.903 126.555 105.423C127.041 105.942 127.7 106.181 128.531 106.138C128.882 106.12 129.241 106.032 129.606 105.874C129.983 105.716 130.328 105.468 130.641 105.131L131.152 106.018C130.839 106.376 130.443 106.658 129.962 106.865C129.481 107.071 128.996 107.187 128.506 107.212ZM132.969 110.474L132.61 109.419C133.105 109.276 133.513 109.116 133.835 108.94C134.168 108.773 134.44 108.556 134.65 108.289C134.861 108.021 135.036 107.692 135.176 107.3L135.543 106.336L135.539 106.881L131.615 98.8647L133.022 98.792L136.278 105.689L135.863 105.71L138.358 98.516L139.717 98.4457L136.459 107.33C136.273 107.852 136.06 108.29 135.822 108.645C135.585 109.009 135.322 109.306 135.035 109.534C134.759 109.773 134.449 109.965 134.104 110.111C133.759 110.257 133.381 110.378 132.969 110.474ZM148.815 106.162C148.101 106.199 147.47 106.066 146.92 105.763C146.37 105.45 145.93 104.992 145.599 104.39C145.28 103.787 145.098 103.054 145.053 102.191C145.008 101.318 145.113 100.564 145.369 99.9318C145.635 99.2985 146.026 98.803 146.542 98.4452C147.057 98.0874 147.672 97.8901 148.385 97.8532C149.11 97.8157 149.743 97.9699 150.284 98.3157C150.835 98.6504 151.212 99.1275 151.415 99.7472L151.224 99.7571L151.301 97.8466L152.547 97.7821C152.531 98.0927 152.516 98.4086 152.5 98.7298C152.495 99.0398 152.5 99.344 152.515 99.6422L152.834 105.81L151.54 105.877L151.443 103.991L151.618 103.982C151.48 104.62 151.155 105.133 150.641 105.523C150.127 105.913 149.518 106.126 148.815 106.162ZM149.016 105.094C149.783 105.055 150.377 104.762 150.797 104.217C151.217 103.661 151.401 102.877 151.349 101.865C151.296 100.843 151.032 100.082 150.558 99.5833C150.083 99.0738 149.462 98.8389 148.695 98.8786C147.939 98.9177 147.345 99.2154 146.915 99.7717C146.494 100.317 146.31 101.101 146.363 102.123C146.416 103.135 146.679 103.896 147.154 104.406C147.639 104.904 148.26 105.133 149.016 105.094ZM158.013 105.686C157.374 105.719 156.773 105.665 156.21 105.523C155.647 105.371 155.176 105.144 154.797 104.843L155.197 103.909C155.607 104.198 156.045 104.405 156.511 104.53C156.987 104.655 157.476 104.705 157.977 104.679C158.616 104.646 159.089 104.509 159.397 104.269C159.715 104.018 159.864 103.689 159.843 103.285C159.827 102.976 159.708 102.736 159.485 102.566C159.273 102.385 158.93 102.253 158.456 102.171L156.954 101.944C156.264 101.83 155.74 101.606 155.381 101.272C155.022 100.928 154.827 100.479 154.799 99.9247C154.775 99.456 154.876 99.0395 155.103 98.6753C155.329 98.3005 155.671 97.9997 156.129 97.7731C156.587 97.5358 157.13 97.4009 157.759 97.3684C158.345 97.3381 158.887 97.4008 159.387 97.5565C159.896 97.7011 160.324 97.9299 160.672 98.2431L160.255 99.1618C159.919 98.8695 159.54 98.6594 159.117 98.5318C158.704 98.3929 158.279 98.3348 157.842 98.3574C157.213 98.3899 156.746 98.5423 156.44 98.8144C156.143 99.0754 156.006 99.4083 156.027 99.8131C156.043 100.122 156.152 100.373 156.354 100.565C156.566 100.746 156.883 100.874 157.303 100.949L158.805 101.175C159.537 101.298 160.088 101.52 160.457 101.843C160.837 102.154 161.041 102.592 161.07 103.157C161.095 103.636 160.984 104.064 160.736 104.44C160.488 104.805 160.129 105.096 159.66 105.313C159.201 105.529 158.652 105.653 158.013 105.686ZM170.106 105.061C169.467 105.094 168.866 105.04 168.303 104.898C167.74 104.745 167.269 104.519 166.89 104.218L167.29 103.284C167.7 103.572 168.138 103.779 168.604 103.905C169.081 104.03 169.569 104.079 170.07 104.053C170.709 104.02 171.183 103.884 171.491 103.643C171.809 103.392 171.957 103.064 171.936 102.659C171.92 102.35 171.801 102.111 171.579 101.941C171.366 101.759 171.023 101.628 170.549 101.545L169.047 101.319C168.358 101.205 167.833 100.981 167.474 100.647C167.115 100.302 166.921 99.8531 166.892 99.2992C166.868 98.8305 166.969 98.414 167.196 98.0498C167.422 97.675 167.764 97.3742 168.223 97.1476C168.68 96.9103 169.223 96.7754 169.852 96.7429C170.438 96.7126 170.98 96.7753 171.48 96.9311C171.989 97.0756 172.418 97.3045 172.765 97.6176L172.348 98.5364C172.012 98.244 171.633 98.034 171.21 97.9063C170.797 97.7675 170.372 97.7093 169.935 97.7319C169.307 97.7644 168.839 97.9168 168.533 98.189C168.237 98.4499 168.099 98.7828 168.12 99.1876C168.136 99.4965 168.245 99.7472 168.447 99.9397C168.659 100.121 168.976 100.249 169.396 100.323L170.898 100.55C171.631 100.672 172.181 100.895 172.551 101.217C172.93 101.529 173.134 101.967 173.163 102.532C173.188 103.011 173.077 103.439 172.829 103.815C172.581 104.18 172.222 104.471 171.753 104.687C171.294 104.903 170.745 105.028 170.106 105.061ZM178.656 104.619C177.889 104.658 177.209 104.528 176.617 104.227C176.035 103.916 175.573 103.459 175.232 102.857C174.891 102.245 174.698 101.512 174.654 100.66C174.61 99.7972 174.726 99.0489 175.003 98.4151C175.28 97.7813 175.692 97.2846 176.239 96.9252C176.797 96.5546 177.459 96.3494 178.226 96.3098C179.004 96.2695 179.684 96.4053 180.266 96.7169C180.858 97.0174 181.325 97.4686 181.666 98.0705C182.017 98.6718 182.215 99.4038 182.26 100.267C182.304 101.119 182.183 101.867 181.895 102.513C181.619 103.146 181.201 103.649 180.644 104.019C180.096 104.379 179.434 104.578 178.656 104.619ZM178.601 103.564C179.368 103.524 179.962 103.232 180.382 102.687C180.802 102.131 180.986 101.347 180.934 100.335C180.881 99.3127 180.612 98.5522 180.127 98.0539C179.652 97.5444 179.036 97.3093 178.28 97.3484C177.524 97.3875 176.936 97.6849 176.516 98.2407C176.095 98.7858 175.911 99.5697 175.964 100.592C176.017 101.604 176.28 102.365 176.755 102.875C177.23 103.373 177.845 103.603 178.601 103.564ZM187.784 104.147C187.017 104.186 186.338 104.056 185.745 103.755C185.163 103.444 184.702 102.987 184.361 102.385C184.019 101.772 183.827 101.04 183.783 100.188C183.738 99.3251 183.854 98.5768 184.131 97.9429C184.408 97.3091 184.82 96.8125 185.368 96.4531C185.925 96.0824 186.588 95.8773 187.355 95.8376C188.132 95.7974 188.812 95.9331 189.394 96.2448C189.987 96.5453 190.453 96.9965 190.794 97.5983C191.146 98.1996 191.344 98.9317 191.388 99.7946C191.432 100.647 191.311 101.395 191.024 102.04C190.747 102.674 190.33 103.176 189.772 103.547C189.225 103.906 188.562 104.106 187.784 104.147ZM187.73 103.092C188.497 103.052 189.09 102.76 189.511 102.215C189.931 101.659 190.115 100.875 190.062 99.8632C190.009 98.8405 189.74 98.0801 189.255 97.5818C188.78 97.0723 188.165 96.8371 187.408 96.8762C186.652 96.9154 186.064 97.2128 185.644 97.7686C185.224 98.3137 185.04 99.0975 185.093 100.12C185.145 101.132 185.409 101.893 185.884 102.402C186.358 102.901 186.974 103.131 187.73 103.092ZM193.614 103.701L193.295 97.5331C193.279 97.2348 193.248 96.932 193.2 96.6248C193.162 96.3063 193.119 95.9934 193.071 95.6862L194.317 95.6217L194.568 97.3711L194.376 97.381C194.579 96.751 194.927 96.263 195.422 95.917C195.927 95.5598 196.52 95.3636 197.202 95.3283C198.15 95.2793 198.877 95.498 199.383 95.9845C199.899 96.4599 200.185 97.2408 200.241 98.3273L200.501 103.345L199.206 103.412L198.951 98.4742C198.912 97.7178 198.729 97.1772 198.402 96.8523C198.086 96.5162 197.608 96.3647 196.969 96.3978C196.223 96.4363 195.644 96.6959 195.231 97.1766C194.818 97.6572 194.631 98.281 194.671 99.048L194.908 103.634L193.614 103.701ZM210.202 102.987C209.488 103.024 208.856 102.891 208.307 102.588C207.757 102.275 207.316 101.817 206.986 101.215C206.666 100.612 206.484 99.8789 206.44 99.0161C206.395 98.1426 206.5 97.3895 206.755 96.7568C207.022 96.1235 207.413 95.628 207.928 95.2702C208.444 94.9124 209.058 94.7151 209.772 94.6782C210.497 94.6407 211.129 94.7949 211.671 95.1407C212.222 95.4754 212.599 95.9525 212.802 96.5722L212.61 96.5821L212.688 94.6716L213.934 94.6071C213.918 94.9177 213.902 95.2336 213.887 95.5548C213.882 95.8648 213.887 96.169 213.902 96.4672L214.221 102.635L212.927 102.702L212.829 100.816L213.005 100.807C212.867 101.445 212.541 101.958 212.027 102.348C211.513 102.738 210.905 102.951 210.202 102.987ZM210.403 101.919C211.17 101.88 211.764 101.587 212.184 101.042C212.604 100.486 212.788 99.7024 212.735 98.6905C212.682 97.6678 212.419 96.9071 211.944 96.4083C211.469 95.8988 210.849 95.6639 210.082 95.7035C209.325 95.7427 208.732 96.0404 208.301 96.5967C207.881 97.1418 207.697 97.9257 207.75 98.9483C207.802 99.9603 208.066 100.721 208.541 101.23C209.026 101.729 209.647 101.958 210.403 101.919ZM219.399 102.511C218.76 102.544 218.159 102.49 217.597 102.348C217.033 102.196 216.562 101.969 216.184 101.668L216.584 100.734C216.994 101.023 217.432 101.23 217.898 101.355C218.374 101.48 218.863 101.53 219.363 101.504C220.002 101.471 220.476 101.334 220.784 101.094C221.102 100.843 221.251 100.514 221.23 100.11C221.214 99.8007 221.095 99.5612 220.872 99.3911C220.66 99.2098 220.317 99.0781 219.842 98.9958L218.341 98.769C217.651 98.6552 217.127 98.4313 216.768 98.0974C216.408 97.7528 216.214 97.3036 216.185 96.7497C216.161 96.281 216.263 95.8645 216.489 95.5003C216.716 95.1254 217.058 94.8247 217.516 94.5981C217.974 94.3608 218.517 94.2259 219.145 94.1934C219.731 94.1631 220.274 94.2258 220.773 94.3815C221.283 94.5261 221.711 94.7549 222.058 95.0681L221.641 95.9868C221.306 95.6944 220.926 95.4844 220.503 95.3568C220.09 95.2179 219.665 95.1598 219.229 95.1824C218.6 95.2149 218.133 95.3672 217.826 95.6394C217.53 95.9004 217.392 96.2333 217.413 96.6381C217.429 96.947 217.538 97.1977 217.741 97.3902C217.953 97.5715 218.269 97.6993 218.69 97.7737L220.191 98.0004C220.924 98.1227 221.475 98.3452 221.844 98.6679C222.223 98.9794 222.428 99.4175 222.457 99.982C222.482 100.461 222.37 100.889 222.123 101.265C221.874 101.63 221.516 101.921 221.046 102.138C220.587 102.354 220.039 102.478 219.399 102.511ZM41.623 138.598L41.0404 127.333L42.3666 127.265L42.9493 138.53L41.623 138.598ZM52.84 138.162C52.1263 138.199 51.4946 138.066 50.9449 137.764C50.3946 137.45 49.9544 136.992 49.6241 136.39C49.3046 135.787 49.1225 135.054 49.0778 134.191C49.0327 133.318 49.1379 132.565 49.3936 131.932C49.6599 131.299 50.0508 130.803 50.5663 130.445C51.0819 130.088 51.6965 129.89 52.4102 129.853C53.1346 129.816 53.7674 129.97 54.3087 130.316C54.86 130.65 55.2372 131.128 55.4401 131.747L55.2484 131.757L55.3258 129.847L56.5721 129.782C56.5561 130.093 56.5404 130.409 56.525 130.73C56.5197 131.04 56.5247 131.344 56.5402 131.642L56.8592 137.81L55.5649 137.877L55.4674 135.992L55.6431 135.982C55.5052 136.62 55.1793 137.133 54.6654 137.523C54.1515 137.913 53.543 138.126 52.84 138.162ZM53.0411 137.094C53.8081 137.055 54.4018 136.762 54.8222 136.217C55.242 135.661 55.4258 134.878 55.3734 133.866C55.3205 132.843 55.0569 132.082 54.5825 131.583C54.1075 131.074 53.4866 130.839 52.7196 130.879C51.9633 130.918 51.3699 131.215 50.9394 131.772C50.519 132.317 50.3352 133.101 50.3881 134.123C50.4404 135.135 50.7041 135.896 51.179 136.406C51.6641 136.904 52.2848 137.133 53.0411 137.094ZM59.3296 137.682L59.0147 131.594C58.9982 131.275 58.9707 130.951 58.9324 130.621C58.9046 130.292 58.8668 129.973 58.8189 129.666L60.0652 129.602L60.3258 131.543L60.1029 131.57C60.1847 131.085 60.3507 130.682 60.601 130.359C60.8514 130.036 61.1538 129.791 61.5082 129.623C61.8622 129.444 62.2362 129.345 62.6303 129.325C62.7901 129.316 62.9289 129.315 63.0466 129.319C63.175 129.323 63.2935 129.344 63.4023 129.381L63.4458 130.532C63.2832 130.487 63.1324 130.463 62.9934 130.459C62.8645 130.445 62.7148 130.442 62.5444 130.451C62.0757 130.475 61.6713 130.608 61.3314 130.85C61.0021 131.091 60.7559 131.392 60.593 131.753C60.4408 132.113 60.3748 132.491 60.3952 132.885L60.6399 137.615L59.3296 137.682ZM65.1343 137.382L64.8195 131.294C64.8029 130.975 64.7755 130.65 64.7371 130.321C64.7094 129.991 64.6715 129.673 64.6236 129.366L65.8699 129.301L66.1305 131.242L65.9077 131.27C65.9894 130.785 66.1554 130.381 66.4058 130.059C66.6561 129.736 66.9585 129.491 67.313 129.323C67.6669 129.144 68.0409 129.045 68.4351 129.024C68.5948 129.016 68.7336 129.014 68.8513 129.019C68.9797 129.023 69.0983 129.044 69.207 129.081L69.2505 130.232C69.088 130.187 68.9372 130.163 68.7982 130.159C68.6692 130.144 68.5195 130.142 68.3491 130.15C67.8804 130.175 67.4761 130.308 67.1361 130.55C66.8068 130.791 66.5607 131.092 66.3978 131.453C66.2455 131.813 66.1796 132.19 66.2 132.585L66.4446 137.314L65.1343 137.382ZM70.971 137.08L70.5562 129.059L71.8504 128.992L72.2653 137.013L70.971 137.08ZM70.3022 127.246L70.227 125.792L71.8248 125.709L71.9 127.163L70.3022 127.246ZM77.1433 136.761L73.293 128.917L74.6991 128.845L77.9406 135.758L77.5092 135.781L80.052 128.568L81.3942 128.498L78.3737 136.697L77.1433 136.761ZM86.7286 136.409C85.4716 136.474 84.4622 136.163 83.7003 135.477C82.9379 134.779 82.5231 133.78 82.4559 132.481C82.4124 131.639 82.5345 130.901 82.8221 130.267C83.1091 129.622 83.5315 129.114 84.0891 128.743C84.6461 128.362 85.2975 128.152 86.0431 128.114C86.7782 128.076 87.404 128.198 87.9206 128.481C88.4373 128.764 88.8436 129.186 89.1397 129.748C89.4352 130.299 89.6031 130.963 89.6433 131.741L89.6681 132.22L83.4524 132.541L83.4102 131.727L88.7791 131.449L88.5182 131.671C88.4741 130.818 88.2479 130.163 87.8396 129.703C87.4314 129.244 86.8491 129.033 86.0927 129.072C85.2938 129.114 84.6852 129.428 84.267 130.016C83.8483 130.593 83.6634 131.356 83.7125 132.304L83.7199 132.447C83.7717 133.449 84.0561 134.198 84.5731 134.694C85.1002 135.18 85.8112 135.399 86.706 135.353C87.1853 135.328 87.6291 135.236 88.0374 135.076C88.4558 134.905 88.8482 134.644 89.2146 134.294L89.7091 135.182C89.3752 135.541 88.9416 135.83 88.4082 136.05C87.885 136.259 87.3251 136.379 86.7286 136.409ZM92.359 137.8L91.7279 137.368C92.0001 137.055 92.1719 136.763 92.2433 136.493C92.326 136.232 92.3604 135.969 92.3467 135.702L92.6483 135.959L91.5937 136.014L91.5094 134.384L93.1393 134.299L93.1988 135.45C93.2208 135.876 93.1722 136.279 93.053 136.659C92.9344 137.05 92.703 137.43 92.359 137.8ZM102.327 135.603C101.688 135.636 101.087 135.581 100.524 135.439C99.9612 135.287 99.4902 135.06 99.1115 134.76L99.5118 133.826C99.9219 134.114 100.36 134.321 100.826 134.447C101.302 134.571 101.791 134.621 102.291 134.595C102.93 134.562 103.404 134.425 103.712 134.185C104.03 133.934 104.179 133.606 104.158 133.201C104.142 132.892 104.023 132.652 103.8 132.482C103.588 132.301 103.245 132.169 102.77 132.087L101.269 131.86C100.579 131.746 100.055 131.523 99.6958 131.189C99.3362 130.844 99.1421 130.395 99.1134 129.841C99.0892 129.372 99.1905 128.956 99.4173 128.592C99.6436 128.217 99.9858 127.916 100.444 127.689C100.902 127.452 101.445 127.317 102.073 127.285C102.659 127.254 103.202 127.317 103.701 127.473C104.211 127.617 104.639 127.846 104.986 128.159L104.569 129.078C104.234 128.786 103.854 128.576 103.431 128.448C103.018 128.309 102.593 128.251 102.157 128.274C101.528 128.306 101.061 128.458 100.754 128.731C100.458 128.992 100.32 129.325 100.341 129.729C100.357 130.038 100.466 130.289 100.669 130.481C100.881 130.663 101.197 130.791 101.618 130.865L103.119 131.092C103.852 131.214 104.403 131.436 104.772 131.759C105.151 132.071 105.356 132.509 105.385 133.073C105.41 133.553 105.298 133.98 105.051 134.356C104.802 134.722 104.444 135.012 103.974 135.229C103.515 135.445 102.966 135.57 102.327 135.603ZM110.877 135.16C110.11 135.2 109.431 135.07 108.838 134.769C108.256 134.457 107.795 134.001 107.454 133.399C107.112 132.786 106.92 132.054 106.876 131.202C106.831 130.339 106.947 129.591 107.224 128.957C107.501 128.323 107.913 127.826 108.461 127.467C109.018 127.096 109.681 126.891 110.448 126.851C111.225 126.811 111.905 126.947 112.487 127.259C113.08 127.559 113.546 128.01 113.887 128.612C114.239 129.213 114.437 129.946 114.481 130.808C114.525 131.661 114.404 132.409 114.117 133.054C113.84 133.688 113.423 134.19 112.865 134.561C112.318 134.92 111.655 135.12 110.877 135.16ZM110.823 134.106C111.59 134.066 112.184 133.774 112.604 133.229C113.024 132.673 113.208 131.889 113.155 130.877C113.102 129.854 112.833 129.094 112.348 128.596C111.873 128.086 111.258 127.851 110.501 127.89C109.745 127.929 109.157 128.227 108.737 128.782C108.317 129.328 108.133 130.111 108.186 131.134C108.238 132.146 108.502 132.907 108.977 133.416C109.451 133.915 110.067 134.145 110.823 134.106ZM123.725 134.496C122.936 134.537 122.323 134.344 121.884 133.918C121.445 133.482 121.202 132.805 121.155 131.889L120.926 127.463L119.36 127.544L119.308 126.537L120.874 126.456L120.76 124.267L122.036 123.833L122.168 126.389L124.469 126.27L124.521 127.277L122.22 127.396L122.441 131.678C122.475 132.318 122.605 132.77 122.832 133.036C123.07 133.291 123.407 133.407 123.843 133.384C124.046 133.374 124.226 133.348 124.384 133.308C124.542 133.257 124.683 133.202 124.808 133.142L124.864 134.229C124.719 134.3 124.54 134.358 124.329 134.401C124.128 134.454 123.927 134.485 123.725 134.496ZM126.459 134.21L125.851 122.45L127.145 122.383L127.431 127.896L127.223 127.906C127.414 127.266 127.762 126.773 128.268 126.426C128.783 126.069 129.387 125.872 130.08 125.836C131.038 125.786 131.766 126.011 132.261 126.508C132.756 126.995 133.031 127.761 133.085 128.805L133.346 133.854L132.052 133.921L131.795 128.952C131.756 128.206 131.579 127.67 131.263 127.345C130.958 127.019 130.48 126.873 129.831 126.906C129.085 126.945 128.5 127.205 128.077 127.686C127.663 128.167 127.476 128.78 127.515 129.525L127.754 134.143L126.459 134.21ZM138.881 133.712C138.168 133.749 137.536 133.616 136.986 133.313C136.436 133 135.996 132.542 135.665 131.94C135.346 131.337 135.164 130.604 135.119 129.741C135.074 128.867 135.179 128.114 135.435 127.482C135.701 126.848 136.092 126.353 136.608 125.995C137.123 125.637 137.738 125.44 138.451 125.403C139.176 125.366 139.809 125.52 140.35 125.866C140.901 126.2 141.278 126.677 141.481 127.297L141.29 127.307L141.367 125.396L142.613 125.332C142.597 125.643 142.582 125.958 142.566 126.28C142.561 126.59 142.566 126.894 142.581 127.192L142.9 133.36L141.606 133.427L141.509 131.541L141.684 131.532C141.546 132.17 141.221 132.683 140.707 133.073C140.193 133.463 139.584 133.676 138.881 133.712ZM139.082 132.644C139.849 132.604 140.443 132.312 140.863 131.767C141.283 131.211 141.467 130.427 141.415 129.415C141.362 128.393 141.098 127.632 140.624 127.133C140.149 126.624 139.528 126.389 138.761 126.428C138.005 126.468 137.411 126.765 136.981 127.322C136.56 127.867 136.376 128.651 136.429 129.673C136.482 130.685 136.745 131.446 137.22 131.955C137.705 132.454 138.326 132.683 139.082 132.644ZM148.254 133.227C147.466 133.268 146.853 133.075 146.414 132.649C145.975 132.213 145.732 131.537 145.684 130.62L145.455 126.194L143.89 126.275L143.837 125.269L145.403 125.188L145.29 122.999L146.565 122.564L146.698 125.121L148.999 125.002L149.051 126.008L146.75 126.127L146.971 130.41C147.004 131.049 147.134 131.501 147.362 131.767C147.599 132.022 147.936 132.138 148.373 132.116C148.576 132.105 148.756 132.08 148.914 132.04C149.072 131.989 149.213 131.933 149.338 131.873L149.394 132.96C149.248 133.032 149.07 133.089 148.858 133.132C148.658 133.185 148.457 133.217 148.254 133.227ZM155.299 132.719L154.717 121.454L156.043 121.385L156.625 132.65L155.299 132.719ZM166.5 132.283C165.797 132.32 165.171 132.187 164.621 131.884C164.071 131.571 163.631 131.113 163.3 130.51C162.981 129.907 162.799 129.175 162.754 128.312C162.709 127.438 162.814 126.685 163.07 126.052C163.336 125.419 163.727 124.924 164.243 124.566C164.758 124.208 165.367 124.011 166.07 123.975C166.795 123.937 167.427 124.086 167.968 124.421C168.519 124.756 168.902 125.227 169.115 125.836L168.923 125.846L168.633 120.237L169.927 120.17L170.535 131.931L169.257 131.997L169.158 130.079L169.334 130.07C169.196 130.718 168.871 131.242 168.358 131.643C167.844 132.032 167.225 132.246 166.5 132.283ZM166.717 131.215C167.474 131.176 168.067 130.883 168.498 130.338C168.929 129.781 169.118 128.997 169.066 127.985C169.013 126.963 168.744 126.202 168.259 125.704C167.773 125.195 167.152 124.96 166.396 124.999C165.639 125.038 165.046 125.336 164.616 125.892C164.195 126.437 164.011 127.221 164.064 128.244C164.117 129.256 164.38 130.017 164.855 130.526C165.34 131.024 165.961 131.254 166.717 131.215ZM176.337 131.775C175.57 131.814 174.89 131.684 174.298 131.383C173.716 131.072 173.254 130.615 172.913 130.013C172.572 129.401 172.379 128.668 172.335 127.816C172.29 126.953 172.407 126.205 172.683 125.571C172.96 124.937 173.373 124.441 173.92 124.081C174.478 123.711 175.14 123.505 175.907 123.466C176.685 123.426 177.365 123.561 177.947 123.873C178.539 124.173 179.006 124.625 179.347 125.226C179.698 125.828 179.896 126.56 179.941 127.423C179.985 128.275 179.863 129.024 179.576 129.669C179.299 130.302 178.882 130.805 178.324 131.175C177.777 131.535 177.114 131.734 176.337 131.775ZM176.282 130.72C177.049 130.68 177.643 130.388 178.063 129.843C178.483 129.287 178.667 128.503 178.615 127.491C178.562 126.469 178.293 125.708 177.808 125.21C177.333 124.7 176.717 124.465 175.961 124.504C175.204 124.544 174.616 124.841 174.196 125.397C173.776 125.942 173.592 126.726 173.645 127.748C173.698 128.76 173.961 129.521 174.436 130.031C174.911 130.529 175.526 130.759 176.282 130.72ZM182.166 131.329L181.847 125.161C181.832 124.863 181.8 124.56 181.752 124.253C181.714 123.934 181.671 123.622 181.623 123.314L182.87 123.25L183.12 124.999L182.929 125.009C183.131 124.379 183.48 123.891 183.975 123.545C184.479 123.188 185.073 122.992 185.754 122.956C186.703 122.907 187.429 123.126 187.935 123.613C188.451 124.088 188.737 124.869 188.793 125.956L189.053 130.973L187.759 131.04L187.503 126.102C187.464 125.346 187.281 124.805 186.955 124.481C186.638 124.144 186.161 123.993 185.521 124.026C184.776 124.065 184.196 124.324 183.783 124.805C183.37 125.285 183.184 125.909 183.223 126.676L183.46 131.262L182.166 131.329ZM191.255 124.002L190.69 119.593L192.208 119.515L192.134 123.956L191.255 124.002ZM197.907 130.659C197.119 130.7 196.505 130.507 196.067 130.081C195.627 129.645 195.384 128.968 195.337 128.052L195.108 123.626L193.542 123.707L193.49 122.701L195.056 122.62L194.943 120.431L196.218 119.996L196.35 122.553L198.651 122.434L198.703 123.44L196.402 123.559L196.624 127.842C196.657 128.481 196.787 128.933 197.014 129.199C197.252 129.454 197.589 129.57 198.026 129.547C198.228 129.537 198.408 129.512 198.566 129.471C198.724 129.421 198.865 129.365 198.99 129.305L199.047 130.392C198.901 130.463 198.722 130.521 198.511 130.564C198.311 130.617 198.109 130.649 197.907 130.659ZM42.8738 165.57L42.2656 153.809L43.5598 153.742L43.845 159.255L43.6372 159.266C43.8284 158.626 44.1768 158.132 44.6822 157.786C45.1977 157.428 45.8017 157.231 46.4941 157.195C47.4528 157.146 48.1801 157.37 48.6758 157.868C49.1709 158.355 49.4455 159.12 49.4995 160.164L49.7606 165.213L48.4664 165.28L48.2093 160.311C48.1708 159.565 47.9935 159.03 47.6776 158.704C47.3724 158.378 46.8949 158.232 46.2451 158.266C45.4994 158.304 44.9147 158.564 44.491 159.045C44.0779 159.526 43.8907 160.139 43.9293 160.885L44.1681 165.503L42.8738 165.57ZM55.2957 165.071C54.582 165.108 53.9503 164.975 53.4006 164.673C52.8503 164.359 52.4101 163.901 52.0798 163.299C51.7603 162.696 51.5782 161.963 51.5335 161.1C51.4884 160.227 51.5936 159.474 51.8493 158.841C52.1156 158.208 52.5065 157.712 53.022 157.354C53.5376 156.997 54.1522 156.799 54.8659 156.762C55.5903 156.725 56.2231 156.879 56.7644 157.225C57.3157 157.56 57.6929 158.037 57.8958 158.656L57.7041 158.666L57.7815 156.756L59.0278 156.691C59.0118 157.002 58.9961 157.318 58.9807 157.639C58.9754 157.949 58.9804 158.253 58.9959 158.551L59.3149 164.719L58.0206 164.786L57.9231 162.901L58.0988 162.892C57.9609 163.529 57.635 164.042 57.1211 164.432C56.6072 164.822 55.9987 165.035 55.2957 165.071ZM55.4968 164.003C56.2638 163.964 56.8575 163.671 57.2779 163.126C57.6977 162.57 57.8815 161.787 57.8291 160.775C57.7762 159.752 57.5126 158.991 57.0382 158.492C56.5632 157.983 55.9423 157.748 55.1753 157.788C54.419 157.827 53.8256 158.125 53.3951 158.681C52.9747 159.226 52.7909 160.01 52.8438 161.032C52.8961 162.044 53.1598 162.805 53.6347 163.315C54.1198 163.813 54.7405 164.043 55.4968 164.003ZM64.1041 164.471L60.2538 156.628L61.6599 156.555L64.9014 163.469L64.4699 163.491L67.0128 156.278L68.355 156.209L65.3344 164.408L64.1041 164.471ZM73.6893 164.12C72.4324 164.185 71.4229 163.874 70.6611 163.187C69.8987 162.489 69.4839 161.491 69.4167 160.191C69.3732 159.35 69.4952 158.612 69.7829 157.977C70.0699 157.332 70.4923 156.825 71.0499 156.454C71.6069 156.073 72.2583 155.863 73.0039 155.824C73.739 155.786 74.3648 155.909 74.8814 156.192C75.3981 156.475 75.8044 156.897 76.1005 157.458C76.396 158.009 76.5639 158.673 76.6041 159.451L76.6289 159.93L70.4132 160.252L70.371 159.437L75.7399 159.159L75.479 159.381C75.4349 158.529 75.2087 157.873 74.8004 157.414C74.3921 156.954 73.8098 156.744 73.0535 156.783C72.2546 156.824 71.646 157.139 71.2278 157.726C70.8091 158.304 70.6242 159.066 70.6732 160.014L70.6807 160.158C70.7325 161.159 71.0169 161.908 71.5339 162.405C72.061 162.89 72.772 163.11 73.6668 163.064C74.1461 163.039 74.5899 162.946 74.9982 162.786C75.4166 162.615 75.809 162.355 76.1754 162.005L76.6699 162.892C76.336 163.251 75.9024 163.541 75.369 163.761C74.8458 163.969 74.2859 164.089 73.6893 164.12ZM85.8281 163.492C85.0398 163.533 84.4264 163.34 83.9878 162.914C83.5487 162.478 83.3054 161.801 83.258 160.885L83.0291 156.459L81.4632 156.54L81.4111 155.534L82.9771 155.453L82.8638 153.263L84.1391 152.829L84.2713 155.386L86.5722 155.267L86.6243 156.273L84.3234 156.392L84.5449 160.675C84.5779 161.314 84.7081 161.766 84.9355 162.032C85.173 162.287 85.5101 162.403 85.9469 162.38C86.1493 162.37 86.3295 162.345 86.4877 162.304C86.6452 162.254 86.7866 162.198 86.9116 162.138L86.9678 163.225C86.822 163.296 86.6434 163.354 86.432 163.397C86.2318 163.45 86.0305 163.482 85.8281 163.492ZM91.7838 163.184C91.0168 163.224 90.3372 163.093 89.7449 162.793C89.1626 162.481 88.7011 162.024 88.3602 161.422C88.0188 160.81 87.826 160.078 87.782 159.225C87.7373 158.363 87.8535 157.614 88.1305 156.98C88.4074 156.347 88.8197 155.85 89.3672 155.491C89.9248 155.12 90.5871 154.915 91.354 154.875C92.1317 154.835 92.8116 154.971 93.3938 155.282C93.9861 155.583 94.4527 156.034 94.7936 156.636C95.1451 157.237 95.3432 157.969 95.3878 158.832C95.4319 159.684 95.3104 160.433 95.0233 161.078C94.7464 161.712 94.3291 162.214 93.7715 162.585C93.224 162.944 92.5614 163.144 91.7838 163.184ZM91.7292 162.129C92.4962 162.09 93.0899 161.797 93.5103 161.252C93.9302 160.696 94.1139 159.913 94.0616 158.901C94.0087 157.878 93.7397 157.118 93.2547 156.619C92.7797 156.11 92.1641 155.875 91.4078 155.914C90.6514 155.953 90.0633 156.25 89.6435 156.806C89.2231 157.351 89.0393 158.135 89.0922 159.158C89.1446 160.17 89.4082 160.93 89.8832 161.44C90.3576 161.939 90.9729 162.169 91.7292 162.129ZM101.958 165.974L101.46 156.355C101.445 156.057 101.413 155.754 101.365 155.447C101.328 155.128 101.285 154.815 101.237 154.508L102.483 154.444L102.757 156.336L102.565 156.346C102.703 155.709 103.024 155.195 103.527 154.806C104.03 154.406 104.643 154.188 105.368 154.15C106.092 154.113 106.724 154.246 107.263 154.549C107.813 154.852 108.253 155.304 108.583 155.907C108.913 156.509 109.101 157.247 109.146 158.12C109.191 158.983 109.08 159.731 108.813 160.365C108.558 160.997 108.172 161.498 107.657 161.866C107.142 162.224 106.522 162.422 105.798 162.459C105.084 162.496 104.457 162.347 103.916 162.012C103.375 161.677 103.003 161.199 102.8 160.579L102.976 160.57L103.252 165.907L101.958 165.974ZM105.487 161.418C106.254 161.378 106.848 161.086 107.268 160.541C107.699 159.984 107.888 159.2 107.836 158.188C107.783 157.166 107.514 156.405 107.029 155.907C106.554 155.397 105.933 155.162 105.166 155.202C104.41 155.241 103.816 155.539 103.386 156.095C102.965 156.64 102.781 157.424 102.834 158.447C102.887 159.459 103.15 160.22 103.625 160.729C104.11 161.227 104.731 161.457 105.487 161.418ZM111.36 162.027L110.752 150.267L112.046 150.2L112.655 161.96L111.36 162.027ZM118.227 161.816C117.513 161.853 116.882 161.72 116.332 161.418C115.782 161.104 115.342 160.646 115.011 160.044C114.692 159.441 114.51 158.708 114.465 157.845C114.42 156.972 114.525 156.219 114.781 155.586C115.047 154.953 115.438 154.457 115.954 154.099C116.469 153.742 117.084 153.544 117.797 153.507C118.522 153.47 119.155 153.624 119.696 153.97C120.247 154.305 120.624 154.782 120.827 155.401L120.636 155.411L120.713 153.501L121.959 153.436C121.943 153.747 121.928 154.063 121.912 154.384C121.907 154.694 121.912 154.998 121.927 155.296L122.246 161.464L120.952 161.531L120.855 159.646L121.03 159.637C120.892 160.274 120.566 160.787 120.053 161.177C119.539 161.567 118.93 161.78 118.227 161.816ZM118.428 160.748C119.195 160.709 119.789 160.416 120.209 159.871C120.629 159.316 120.813 158.532 120.761 157.52C120.708 156.497 120.444 155.736 119.97 155.238C119.495 154.728 118.874 154.493 118.107 154.533C117.35 154.572 116.757 154.87 116.327 155.426C115.906 155.971 115.722 156.755 115.775 157.778C115.828 158.79 116.091 159.55 116.566 160.06C117.051 160.558 117.672 160.788 118.428 160.748ZM124.749 161.335L124.43 155.167C124.414 154.869 124.383 154.566 124.335 154.259C124.297 153.94 124.254 153.627 124.206 153.32L125.452 153.256L125.703 155.005L125.511 155.015C125.714 154.385 126.062 153.897 126.557 153.551C127.062 153.194 127.655 152.998 128.337 152.962C129.285 152.913 130.012 153.132 130.518 153.619C131.034 154.094 131.32 154.875 131.376 155.961L131.636 160.979L130.341 161.046L130.086 156.108C130.047 155.352 129.864 154.811 129.537 154.486C129.221 154.15 128.743 153.999 128.104 154.032C127.358 154.07 126.779 154.33 126.366 154.811C125.953 155.291 125.766 155.915 125.806 156.682L126.043 161.268L124.749 161.335ZM141.337 160.621C140.623 160.658 139.991 160.525 139.442 160.222C138.892 159.909 138.451 159.451 138.121 158.849C137.802 158.246 137.619 157.513 137.575 156.65C137.53 155.777 137.635 155.023 137.891 154.391C138.157 153.757 138.548 153.262 139.063 152.904C139.579 152.546 140.193 152.349 140.907 152.312C141.632 152.275 142.264 152.429 142.806 152.775C143.357 153.109 143.734 153.586 143.937 154.206L143.745 154.216L143.823 152.306L145.069 152.241C145.053 152.552 145.037 152.868 145.022 153.189C145.017 153.499 145.022 153.803 145.037 154.101L145.356 160.269L144.062 160.336L143.964 158.45L144.14 158.441C144.002 159.079 143.676 159.592 143.162 159.982C142.648 160.372 142.04 160.585 141.337 160.621ZM141.538 159.553C142.305 159.514 142.899 159.221 143.319 158.676C143.739 158.12 143.923 157.336 143.87 156.324C143.817 155.302 143.554 154.541 143.079 154.042C142.604 153.533 141.984 153.298 141.217 153.338C140.46 153.377 139.867 153.674 139.436 154.231C139.016 154.776 138.832 155.56 138.885 156.582C138.937 157.594 139.201 158.355 139.676 158.864C140.161 159.363 140.782 159.592 141.538 159.553ZM147.859 160.14L147.25 148.379L148.545 148.312L148.83 153.825L148.622 153.836C148.813 153.196 149.161 152.702 149.667 152.356C150.182 151.998 150.786 151.801 151.479 151.765C152.438 151.716 153.165 151.94 153.66 152.438C154.156 152.925 154.43 153.69 154.484 154.734L154.745 159.783L153.451 159.85L153.194 154.881C153.155 154.135 152.978 153.6 152.662 153.274C152.357 152.948 151.88 152.802 151.23 152.836C150.484 152.874 149.899 153.134 149.476 153.615C149.063 154.096 148.875 154.709 148.914 155.455L149.153 160.073L147.859 160.14ZM160.792 159.615C159.535 159.68 158.525 159.369 157.763 158.682C157.001 157.984 156.586 156.986 156.519 155.686C156.476 154.845 156.598 154.107 156.885 153.472C157.172 152.827 157.595 152.32 158.152 151.949C158.709 151.568 159.361 151.358 160.106 151.319C160.841 151.281 161.467 151.404 161.984 151.687C162.5 151.97 162.907 152.392 163.203 152.953C163.498 153.504 163.666 154.168 163.706 154.946L163.731 155.425L157.516 155.747L157.473 154.932L162.842 154.654L162.581 154.876C162.537 154.024 162.311 153.368 161.903 152.908C161.494 152.449 160.912 152.239 160.156 152.278C159.357 152.319 158.748 152.634 158.33 153.221C157.911 153.798 157.727 154.561 157.776 155.509L157.783 155.653C157.835 156.654 158.119 157.403 158.636 157.9C159.163 158.385 159.874 158.605 160.769 158.559C161.248 158.534 161.692 158.441 162.101 158.281C162.519 158.11 162.911 157.85 163.278 157.5L163.772 158.387C163.438 158.746 163.005 159.036 162.471 159.256C161.948 159.464 161.388 159.584 160.792 159.615ZM168.972 159.192C168.258 159.229 167.626 159.096 167.077 158.793C166.526 158.48 166.086 158.022 165.756 157.419C165.436 156.816 165.254 156.084 165.21 155.221C165.165 154.347 165.27 153.594 165.525 152.961C165.792 152.328 166.183 151.833 166.698 151.475C167.214 151.117 167.828 150.92 168.542 150.883C169.266 150.845 169.899 151 170.441 151.345C170.992 151.68 171.369 152.157 171.572 152.777L171.38 152.787L171.458 150.876L172.704 150.812C172.688 151.122 172.672 151.438 172.657 151.759C172.652 152.069 172.657 152.374 172.672 152.672L172.991 158.84L171.697 158.907L171.599 157.021L171.775 157.012C171.637 157.649 171.311 158.163 170.797 158.553C170.283 158.942 169.675 159.155 168.972 159.192ZM169.173 158.124C169.94 158.084 170.534 157.792 170.954 157.247C171.374 156.691 171.558 155.907 171.505 154.895C171.452 153.872 171.189 153.112 170.714 152.613C170.239 152.103 169.618 151.869 168.851 151.908C168.095 151.947 167.502 152.245 167.071 152.801C166.651 153.346 166.467 154.13 166.52 155.153C166.572 156.165 166.836 156.926 167.311 157.435C167.796 157.933 168.417 158.163 169.173 158.124ZM178.537 158.697C177.834 158.733 177.207 158.6 176.658 158.298C176.107 157.984 175.667 157.526 175.337 156.924C175.017 156.321 174.835 155.588 174.791 154.725C174.745 153.852 174.851 153.099 175.106 152.466C175.373 151.833 175.764 151.337 176.279 150.979C176.795 150.622 177.404 150.424 178.107 150.388C178.831 150.351 179.464 150.499 180.005 150.835C180.556 151.169 180.938 151.641 181.151 152.249L180.96 152.259L180.669 146.651L181.964 146.584L182.572 158.344L181.294 158.41L181.195 156.493L181.37 156.484C181.233 157.132 180.908 157.656 180.394 158.056C179.88 158.446 179.261 158.66 178.537 158.697ZM178.754 157.628C179.51 157.589 180.104 157.297 180.535 156.751C180.965 156.195 181.155 155.411 181.102 154.399C181.049 153.376 180.78 152.616 180.295 152.117C179.81 151.608 179.189 151.374 178.432 151.413C177.676 151.452 177.083 151.75 176.652 152.306C176.232 152.851 176.048 153.635 176.101 154.657C176.153 155.669 176.417 156.43 176.892 156.94C177.377 157.438 177.998 157.667 178.754 157.628ZM184.819 158.228L184.734 156.598L186.364 156.514L186.449 158.144L184.819 158.228ZM188.436 151.184L187.872 146.775L189.39 146.696L189.315 151.138L188.436 151.184ZM191.169 151.042L190.604 146.634L192.122 146.555L192.047 150.997L191.169 151.042Z" fill="#363636"/>
<defs>
<filter id="filter0_f_202_699" x="5.98594" y="8.49326" width="271.779" height="244.707" filterUnits="userSpaceOnUse" color-interpolation-filters="sRGB">
<feFlood flood-opacity="0" result="BackgroundImageFix"/>
<feBlend mode="normal" in="SourceGraphic" in2="BackgroundImageFix" result="shape"/>
<feGaussianBlur stdDeviation="4.05" result="effect1_foregroundBlur_202_699"/>
</filter>
</defs>
</svg>
