<svg width="285" height="263" viewBox="0 0 285 263" fill="none" xmlns="http://www.w3.org/2000/svg">
<g opacity="0.32" filter="url(#filter0_f_202_706)">
<path fill-rule="evenodd" clip-rule="evenodd" d="M234.41 17.0975L269.092 235.447L14.5801 244.59L15.4803 27.8516L234.407 17.0952L234.41 17.0975Z" fill="#2E3436"/>
<path fill-rule="evenodd" clip-rule="evenodd" d="M234.41 17.0975L269.092 235.447L14.5801 244.59L15.4803 27.8516L234.407 17.0952L234.41 17.0975Z" stroke="#363636" stroke-width="0.984377"/>
</g>
<path fill-rule="evenodd" clip-rule="evenodd" d="M7.27912 18.7545L247.249 5.35303C252.82 81.4836 258.981 157.738 264.552 232.184C199.576 242.423 94.897 242.437 5.94043 248.369C10.9439 171.831 11.0949 95.2946 7.27734 18.7527L7.27912 18.7545Z" fill="#80D577"/>
<path fill-rule="evenodd" clip-rule="evenodd" d="M6.86213 17.1534L246.832 3.75195C252.403 79.8825 258.564 156.137 264.135 230.583C199.159 240.822 94.48 240.836 5.52344 246.768C10.5269 170.23 10.6779 93.6935 6.86035 17.1516L6.86213 17.1534Z" fill="#C5FFBF"/>
<path d="M37.0215 50.8707L36.4571 46.462L37.975 46.3834L37.9004 50.8252L37.0215 50.8707ZM39.7539 50.7294L39.1894 46.3206L40.7074 46.2421L40.6327 50.6839L39.7539 50.7294ZM42.5779 57.4405L46.9646 45.9185L48.1151 45.859L53.747 56.8628L52.3728 56.9338L50.8006 53.7949L51.4092 54.0998L44.5224 54.456L45.1442 54.0874L43.9361 57.3702L42.5779 57.4405ZM47.6024 47.4075L45.3279 53.6133L44.9296 53.3455L50.8736 53.0381L50.6009 53.3406L47.6344 47.4059L47.6024 47.4075ZM57.8848 56.793C57.2456 56.826 56.6447 56.7716 56.082 56.6299C55.5187 56.4774 55.0477 56.2508 54.669 55.9499L55.0692 55.016C55.4794 55.3045 55.9173 55.5115 56.3831 55.637C56.8595 55.7619 57.348 55.8114 57.8487 55.7855C58.4878 55.7524 58.9614 55.6158 59.2694 55.3755C59.5875 55.1241 59.7361 54.796 59.7152 54.3912C59.6992 54.0823 59.58 53.8428 59.3576 53.6727C59.1453 53.4914 58.802 53.3597 58.3278 53.2774L56.8261 53.0506C56.1366 52.9368 55.6123 52.7129 55.2533 52.379C54.8937 52.0344 54.6995 51.5852 54.6709 51.0313C54.6467 50.5626 54.7479 50.1461 54.9748 49.7819C55.201 49.407 55.5433 49.1063 56.0015 48.8797C56.4592 48.6424 57.0023 48.5075 57.6308 48.475C58.2167 48.4447 58.7593 48.5074 59.2587 48.6631C59.7682 48.8077 60.1966 49.0365 60.5439 49.3497L60.1268 50.2684C59.7912 49.976 59.4119 49.766 58.9887 49.6384C58.5757 49.4995 58.1508 49.4414 57.714 49.464C57.0855 49.4965 56.6181 49.6488 56.3117 49.921C56.0155 50.182 55.8778 50.5149 55.8988 50.9197C55.9147 51.2286 56.0238 51.4793 56.2261 51.6718C56.4384 51.8531 56.7547 51.9809 57.1751 52.0553L58.6768 52.282C59.4095 52.4043 59.9604 52.6268 60.3295 52.9495C60.7088 53.261 60.913 53.6991 60.9422 54.2637C60.967 54.743 60.8556 55.1707 60.608 55.5466C60.3599 55.9119 60.0011 56.2029 59.5317 56.4194C59.0729 56.6354 58.5239 56.7599 57.8848 56.793ZM70.3615 56.1476C69.6478 56.1846 69.0161 56.0517 68.4664 55.749C67.9161 55.4357 67.4759 54.9778 67.1457 54.3754C66.8261 53.7724 66.644 53.0395 66.5994 52.1767C66.5542 51.3032 66.6594 50.5501 66.9151 49.9173C67.1814 49.2841 67.5723 48.7885 68.0879 48.4308C68.6034 48.073 69.218 47.8757 69.9317 47.8387C70.6561 47.8013 71.2889 47.9555 71.8302 48.3013C72.3815 48.6359 72.7587 49.1131 72.9616 49.7328L72.7699 49.7427L72.8473 47.8321L74.0936 47.7677C74.0776 48.0783 74.0619 48.3942 74.0465 48.7154C74.0412 49.0254 74.0462 49.3295 74.0617 49.6278L74.3807 55.7956L73.0864 55.8625L72.9889 53.977L73.1646 53.9679C73.0267 54.6052 72.7008 55.1188 72.1869 55.5085C71.673 55.8982 71.0645 56.1113 70.3615 56.1476ZM70.5626 55.0798C71.3296 55.0402 71.9233 54.7478 72.3437 54.2027C72.7635 53.6469 72.9473 52.863 72.8949 51.851C72.842 50.8284 72.5784 50.0677 72.104 49.5689C71.6291 49.0594 71.0081 48.8245 70.2411 48.8641C69.4848 48.9033 68.8914 49.201 68.4609 49.7573C68.0405 50.3024 67.8567 51.0863 67.9096 52.1089C67.9619 53.1209 68.2256 53.8816 68.7005 54.3911C69.1856 54.8894 69.8063 55.1189 70.5626 55.0798ZM83.885 55.4482C82.937 55.4972 82.2044 55.2734 81.6874 54.7768C81.1811 54.2796 80.9001 53.4931 80.8444 52.4172L80.5866 47.4319L81.8808 47.3649L82.137 52.3183C82.1751 53.0533 82.3523 53.5889 82.6687 53.925C82.9846 54.2504 83.4568 54.3969 84.0853 54.3644C84.7884 54.328 85.3411 54.0698 85.7435 53.5897C86.1459 53.1096 86.3273 52.4861 86.2876 51.7191L86.0513 47.1492L87.3455 47.0823L87.7604 55.1035L86.4981 55.1688L86.4047 53.3632L86.6124 53.3525C86.4207 53.9819 86.0833 54.48 85.6003 54.8468C85.1279 55.213 84.5561 55.4135 83.885 55.4482ZM92.9473 54.9795C92.3082 55.0125 91.7072 54.9582 91.1445 54.8164C90.5812 54.6639 90.1102 54.4373 89.7315 54.1364L90.1318 53.2025C90.5419 53.4911 90.9798 53.698 91.4456 53.8235C91.922 53.9484 92.4105 53.9979 92.9112 53.972C93.5504 53.9389 94.0239 53.8023 94.3319 53.5621C94.65 53.3106 94.7986 52.9825 94.7777 52.5777C94.7617 52.2688 94.6425 52.0293 94.4201 51.8592C94.2078 51.678 93.8645 51.5462 93.3903 51.4639L91.8886 51.2372C91.1991 51.1233 90.6749 50.8994 90.3158 50.5655C89.9562 50.2209 89.7621 49.7717 89.7334 49.2178C89.7092 48.7491 89.8104 48.3326 90.0373 47.9684C90.2635 47.5936 90.6058 47.2928 91.064 47.0662C91.5217 46.8289 92.0648 46.694 92.6933 46.6615C93.2792 46.6312 93.8218 46.6939 94.3212 46.8496C94.8307 46.9942 95.2591 47.223 95.6064 47.5362L95.1893 48.455C94.8537 48.1626 94.4744 47.9525 94.0512 47.8249C93.6382 47.686 93.2133 47.6279 92.7765 47.6505C92.148 47.683 91.6806 47.8354 91.3742 48.1075C91.078 48.3685 90.9403 48.7014 90.9613 49.1062C90.9773 49.4151 91.0863 49.6658 91.2886 49.8583C91.5009 50.0396 91.8172 50.1674 92.2376 50.2418L93.7394 50.4685C94.472 50.5909 95.0229 50.8134 95.392 51.1361C95.7713 51.4475 95.9755 51.8856 96.0047 52.4502C96.0295 52.9295 95.9181 53.3572 95.6706 53.7331C95.4224 54.0984 95.0636 54.3894 94.5942 54.6059C94.1354 54.8219 93.5864 54.9464 92.9473 54.9795ZM101.769 54.5232C100.512 54.5882 99.5026 54.2773 98.7408 53.5904C97.9784 52.8928 97.5636 51.8942 97.4964 50.5946C97.4529 49.7531 97.5749 49.0151 97.8625 48.3808C98.1496 47.7358 98.5719 47.2279 99.1295 46.8573C99.6866 46.476 100.338 46.2661 101.084 46.2275C101.819 46.1895 102.444 46.312 102.961 46.595C103.478 46.8781 103.884 47.3003 104.18 47.8618C104.476 48.4126 104.644 49.0768 104.684 49.8544L104.709 50.3338L98.4928 50.6553L98.4507 49.8403L103.82 49.5627L103.559 49.7844C103.515 48.9322 103.288 48.2764 102.88 47.8168C102.472 47.3573 101.89 47.1471 101.133 47.1862C100.334 47.2276 99.7257 47.5421 99.3075 48.1298C98.8887 48.7069 98.7039 49.4694 98.7529 50.4175L98.7603 50.5613C98.8121 51.5626 99.0965 52.3116 99.6135 52.8082C100.141 53.2937 100.852 53.5132 101.746 53.4669C102.226 53.4422 102.67 53.3498 103.078 53.1898C103.496 53.0186 103.889 52.758 104.255 52.408L104.75 53.2956C104.416 53.6547 103.982 53.9441 103.449 54.164C102.925 54.3726 102.366 54.4923 101.769 54.5232ZM106.858 54.1158L106.543 48.0279C106.526 47.7084 106.499 47.384 106.461 47.0549C106.433 46.7252 106.395 46.4067 106.347 46.0995L107.593 46.035L107.854 47.9761L107.631 48.0037C107.713 47.5188 107.879 47.115 108.129 46.7923C108.38 46.4697 108.682 46.2244 109.037 46.0565C109.39 45.878 109.764 45.7785 110.159 45.7581C110.318 45.7499 110.457 45.748 110.575 45.7526C110.703 45.7567 110.822 45.7773 110.931 45.8144L110.974 46.9656C110.812 46.9206 110.661 46.8964 110.522 46.8929C110.393 46.8782 110.243 46.8753 110.073 46.8841C109.604 46.9083 109.2 47.0414 108.86 47.2833C108.53 47.5246 108.284 47.8257 108.121 48.1866C107.969 48.547 107.903 48.9242 107.924 49.3183L108.168 54.048L106.858 54.1158ZM119.002 53.4877L115.615 45.6201L116.989 45.549L119.831 52.4835L119.416 52.505L121.607 45.3102L122.726 45.2524L125.6 52.1852L125.2 52.2058L127.327 45.0143L128.638 44.9466L126.065 53.1224L124.818 53.1869L121.859 46.1463L122.498 46.1133L120.264 53.4224L119.002 53.4877ZM130.749 52.8801L130.334 44.8589L131.628 44.7919L132.043 52.8132L130.749 52.8801ZM130.08 43.0456L130.004 41.5915L131.602 41.5089L131.678 42.9629L130.08 43.0456ZM137.408 52.6799C136.619 52.7207 136.006 52.5281 135.567 52.1022C135.128 51.6656 134.885 50.9893 134.838 50.0732L134.609 45.6471L133.043 45.7281L132.991 44.7214L134.557 44.6404L134.443 42.4514L135.719 42.0169L135.851 44.5735L138.152 44.4545L138.204 45.4611L135.903 45.5802L136.124 49.8624C136.157 50.5016 136.288 50.9541 136.515 51.2201C136.752 51.4748 137.09 51.5909 137.526 51.5683C137.729 51.5578 137.909 51.5325 138.067 51.4923C138.225 51.4414 138.366 51.386 138.491 51.3261L138.547 52.4127C138.402 52.4843 138.223 52.5416 138.011 52.5846C137.811 52.6377 137.61 52.6694 137.408 52.6799ZM140.142 52.3943L139.534 40.634L140.828 40.5671L141.113 46.0797L140.906 46.0904C141.097 45.4504 141.445 44.957 141.951 44.6105C142.466 44.2527 143.07 44.0559 143.763 44.0201C144.721 43.9705 145.448 44.1946 145.944 44.6923C146.439 45.1794 146.714 45.9449 146.768 46.9888L147.029 52.0381L145.735 52.105L145.478 47.1357C145.439 46.39 145.262 45.8544 144.946 45.529C144.641 45.203 144.163 45.0568 143.514 45.0904C142.768 45.129 142.183 45.3888 141.759 45.87C141.346 46.3507 141.159 46.9638 141.198 47.7095L141.437 52.3273L140.142 52.3943ZM153.671 51.6945L153.063 39.9343L154.357 39.8673L154.965 51.6276L153.671 51.6945ZM160.778 51.4712C160.011 51.5108 159.331 51.3804 158.739 51.08C158.156 50.7683 157.695 50.3115 157.354 49.7097C157.013 49.0971 156.82 48.3648 156.776 47.5126C156.731 46.6498 156.847 45.9014 157.124 45.2676C157.401 44.6338 157.813 44.1372 158.361 43.7777C158.918 43.4071 159.581 43.202 160.348 43.1623C161.125 43.1221 161.805 43.2578 162.388 43.5695C162.98 43.8699 163.446 44.3211 163.787 44.923C164.139 45.5243 164.337 46.2564 164.382 47.1192C164.426 47.9714 164.304 48.72 164.017 49.365C163.74 49.9989 163.323 50.5011 162.765 50.8717C162.218 51.2311 161.555 51.431 160.778 51.4712ZM160.723 50.4166C161.49 50.3769 162.084 50.0845 162.504 49.5394C162.924 48.9837 163.108 48.1998 163.055 47.1878C163.002 46.1652 162.733 45.4047 162.248 44.9064C161.773 44.397 161.158 44.1618 160.401 44.2009C159.645 44.24 159.057 44.5375 158.637 45.0932C158.217 45.6383 158.033 46.4222 158.086 47.4448C158.138 48.4568 158.402 49.2175 158.877 49.727C159.351 50.2259 159.967 50.4557 160.723 50.4166ZM168.639 50.9204L165.252 43.0528L166.626 42.9818L169.468 49.9162L169.053 49.9377L171.244 42.7429L172.362 42.6851L175.236 49.6179L174.837 49.6385L176.964 42.447L178.274 42.3793L175.701 50.5551L174.455 50.6196L171.495 43.579L172.135 43.546L169.901 50.8551L168.639 50.9204ZM187.403 50.0941C186.615 50.1348 186.002 49.9423 185.563 49.5163C185.124 49.0798 184.881 48.4034 184.833 47.4873L184.604 43.0612L183.038 43.1422L182.986 42.1356L184.552 42.0546L184.439 39.8655L185.714 39.4311L185.846 41.9876L188.147 41.8686L188.199 42.8753L185.899 42.9943L186.12 47.2766C186.153 47.9157 186.283 48.3683 186.511 48.6342C186.748 48.889 187.085 49.005 187.522 48.9824C187.724 48.972 187.905 48.9466 188.063 48.9064C188.22 48.8555 188.362 48.8002 188.487 48.7403L188.543 49.8268C188.397 49.8985 188.219 49.9558 188.007 49.9987C187.807 50.0518 187.606 50.0836 187.403 50.0941ZM193.631 49.772C192.374 49.837 191.364 49.526 190.602 48.8391C189.84 48.1416 189.425 47.143 189.358 45.8434C189.314 45.0019 189.436 44.2639 189.724 43.6295C190.011 42.9845 190.434 42.4767 190.991 42.1061C191.548 41.7248 192.2 41.5149 192.945 41.4763C193.68 41.4383 194.306 41.5608 194.823 41.8438C195.339 42.1268 195.746 42.5491 196.042 43.1105C196.337 43.6613 196.505 44.3256 196.545 45.1032L196.57 45.5825L190.354 45.904L190.312 45.0891L195.681 44.8114L195.42 45.0332C195.376 44.181 195.15 43.5251 194.742 43.0656C194.333 42.6061 193.751 42.3959 192.995 42.435C192.196 42.4763 191.587 42.7909 191.169 43.3786C190.75 43.9556 190.565 44.7182 190.614 45.6663L190.622 45.8101C190.674 46.8114 190.958 47.5604 191.475 48.057C192.002 48.5424 192.713 48.762 193.608 48.7157C194.087 48.6909 194.531 48.5986 194.939 48.4386C195.358 48.2674 195.75 48.0068 196.117 47.6567L196.611 48.5444C196.277 48.9034 195.844 49.1929 195.31 49.4127C194.787 49.6214 194.227 49.7411 193.631 49.772ZM202.13 49.3323C201.342 49.3731 200.646 49.2382 200.043 48.9276C199.45 48.6165 198.977 48.155 198.625 47.543C198.284 46.9305 198.091 46.1928 198.046 45.33C198.001 44.4565 198.122 43.7079 198.411 43.0841C198.698 42.4498 199.121 41.9579 199.68 41.6086C200.249 41.2587 200.923 41.0637 201.701 41.0235C202.212 40.997 202.712 41.0619 203.201 41.2182C203.7 41.374 204.118 41.6087 204.455 41.9224L204.039 42.8731C203.704 42.5807 203.34 42.3699 202.949 42.2406C202.569 42.1107 202.197 42.0552 201.835 42.0739C201.004 42.1169 200.373 42.4112 199.942 42.9569C199.511 43.5025 199.321 44.276 199.373 45.2773C199.424 46.268 199.693 47.0232 200.179 47.5427C200.665 48.0623 201.324 48.3006 202.155 48.2576C202.506 48.2395 202.865 48.1515 203.231 47.9937C203.607 47.8354 203.952 47.5879 204.266 47.2513L204.776 48.1381C204.464 48.496 204.067 48.7782 203.586 48.9847C203.106 49.1911 202.62 49.307 202.13 49.3323ZM206.663 48.9537L206.054 37.1935L207.349 37.1265L207.634 42.6391L207.426 42.6499C207.617 42.0098 207.966 41.5165 208.471 41.1699C208.987 40.8122 209.591 40.6154 210.283 40.5796C211.242 40.53 211.969 40.754 212.465 41.2518C212.96 41.7388 213.234 42.5043 213.288 43.5483L213.55 48.5975L212.255 48.6645L211.998 43.6951C211.96 42.9495 211.782 42.4139 211.467 42.0884C211.161 41.7624 210.684 41.6162 210.034 41.6499C209.288 41.6884 208.704 41.9483 208.28 42.4295C207.867 42.9101 207.68 43.5233 207.718 44.269L207.957 48.8868L206.663 48.9537ZM215.714 44.6244L215.659 43.5539L220.213 43.3183L220.268 44.3889L215.714 44.6244ZM41.3659 84.6834C40.7267 84.7165 40.1258 84.6621 39.563 84.5203C38.9997 84.3679 38.5287 84.1412 38.15 83.8404L38.5503 82.9065C38.9604 83.195 39.3984 83.402 39.8641 83.5275C40.3406 83.6523 40.8291 83.7018 41.3298 83.6759C41.9689 83.6429 42.4425 83.5062 42.7505 83.266C43.0686 83.0146 43.2172 82.6865 43.1962 82.2817C43.1803 81.9728 43.0611 81.7333 42.8387 81.5632C42.6263 81.3819 42.2831 81.2501 41.8089 81.1679L40.3071 80.9411C39.6177 80.8272 39.0934 80.6034 38.7343 80.2695C38.3747 79.9249 38.1806 79.4757 38.152 78.9217C38.1277 78.453 38.229 78.0366 38.4558 77.6724C38.6821 77.2975 39.0244 76.9968 39.4826 76.7701C39.9403 76.5328 40.4834 76.3979 41.1119 76.3654C41.6978 76.3351 42.2404 76.3979 42.7398 76.5536C43.2492 76.6982 43.6776 76.927 44.0249 77.2401L43.6078 78.1589C43.2723 77.8665 42.8929 77.6565 42.4698 77.5289C42.0567 77.39 41.6318 77.3319 41.1951 77.3545C40.5666 77.387 40.0992 77.5393 39.7928 77.8115C39.4966 78.0725 39.3589 78.4054 39.3798 78.8102C39.3958 79.1191 39.5049 79.3698 39.7071 79.5623C39.9194 79.7435 40.2358 79.8714 40.6562 79.9458L42.1579 80.1725C42.8905 80.2948 43.4414 80.5173 43.8106 80.84C44.1899 81.1515 44.3941 81.5895 44.4233 82.1541C44.4481 82.6335 44.3367 83.0611 44.0891 83.4371C43.841 83.8024 43.4822 84.0933 43.0128 84.3099C42.554 84.5258 42.005 84.6504 41.3659 84.6834ZM49.6762 84.2536C48.9625 84.2905 48.3308 84.1576 47.7811 83.855C47.2309 83.5416 46.7906 83.0838 46.4604 82.4813C46.1408 81.8784 45.9587 81.1455 45.9141 80.2826C45.8689 79.4091 45.9742 78.656 46.2298 78.0233C46.4961 77.39 46.8871 76.8945 47.4026 76.5367C47.9182 76.179 48.5328 75.9816 49.2465 75.9447C49.9709 75.9072 50.6037 76.0614 51.1449 76.4073C51.6963 76.7419 52.0734 77.2191 52.2764 77.8387L52.0846 77.8487L52.162 75.9381L53.4084 75.8736C53.3924 76.1842 53.3767 76.5001 53.3613 76.8213C53.3559 77.1314 53.361 77.4355 53.3764 77.7338L53.6954 83.9015L52.4012 83.9685L52.3036 82.083L52.4794 82.0739C52.3415 82.7112 52.0156 83.2247 51.5017 83.6145C50.9878 84.0042 50.3793 84.2172 49.6762 84.2536ZM49.8774 83.1858C50.6443 83.1461 51.238 82.8537 51.6584 82.3086C52.0783 81.7529 52.262 80.969 52.2097 79.957C52.1568 78.9344 51.8932 78.1736 51.4188 77.6748C50.9438 77.1653 50.3228 76.9304 49.5559 76.9701C48.7995 77.0092 48.2061 77.3069 47.7756 77.8632C47.3552 78.4084 47.1715 79.1922 47.2244 80.2149C47.2767 81.2268 47.5403 81.9876 48.0153 82.497C48.5003 82.9953 49.121 83.2249 49.8774 83.1858ZM58.4846 83.6538L54.6344 75.8102L56.0405 75.7375L59.2819 82.6513L58.8505 82.6736L61.3933 75.4606L62.7355 75.3912L59.715 83.5902L58.4846 83.6538ZM67.1605 83.2051L63.3103 75.3615L64.7164 75.2888L67.9578 82.2026L67.5264 82.2249L70.0692 75.0119L71.4114 74.9425L68.3909 83.1415L67.1605 83.2051ZM73.2844 82.8884L72.8695 74.8671L74.1638 74.8001L74.5786 82.8214L73.2844 82.8884ZM72.6155 73.0538L72.5403 71.5997L74.1381 71.5171L74.2134 72.9711L72.6155 73.0538ZM77.0918 82.6914L76.7728 76.5237C76.7573 76.2254 76.7257 75.9226 76.6777 75.6154C76.6399 75.2969 76.597 74.984 76.5491 74.6768L77.7954 74.6123L78.0461 76.3617L77.8544 76.3716C78.0568 75.7416 78.4053 75.2537 78.9001 74.9076C79.405 74.5504 79.9983 74.3542 80.6801 74.3189C81.6282 74.2699 82.3551 74.4886 82.8609 74.9751C83.3768 75.4505 83.6629 76.2314 83.7191 77.3179L83.9786 82.3352L82.6843 82.4022L82.4289 77.4648C82.3898 76.7085 82.207 76.1678 81.8804 75.8429C81.564 75.5068 81.0862 75.3553 80.447 75.3884C79.7014 75.4269 79.122 75.6866 78.7089 76.1672C78.2959 76.6478 78.1092 77.2716 78.1489 78.0386L78.386 82.6245L77.0918 82.6914ZM90.0249 82.1667C88.7679 82.2317 87.7585 81.9208 86.9967 81.2339C86.2343 80.5363 85.8195 79.5377 85.7523 78.2382C85.7088 77.3966 85.8308 76.6587 86.1184 76.0243C86.4055 75.3793 86.8278 74.8714 87.3854 74.5008C87.9425 74.1195 88.5939 73.9096 89.3395 73.871C90.0745 73.833 90.7004 73.9555 91.217 74.2385C91.7337 74.5216 92.14 74.9438 92.4361 75.5053C92.7316 76.0561 92.8995 76.7203 92.9397 77.4979L92.9645 77.9773L86.7488 78.2988L86.7066 77.4839L92.0754 77.2062L91.8146 77.4279C91.7705 76.5757 91.5443 75.9199 91.136 75.4604C90.7277 75.0008 90.1454 74.7906 89.3891 74.8298C88.5902 74.8711 87.9816 75.1856 87.5634 75.7733C87.1447 76.3504 86.9598 77.1129 87.0088 78.061L87.0163 78.2048C87.0681 79.2061 87.3525 79.9551 87.8695 80.4517C88.3966 80.9372 89.1075 81.1567 90.0023 81.1105C90.4817 81.0857 90.9255 80.9933 91.3338 80.8333C91.7522 80.6621 92.1446 80.4015 92.511 80.0515L93.0055 80.9391C92.6716 81.2982 92.238 81.5876 91.7046 81.8075C91.1814 82.0161 90.6215 82.1358 90.0249 82.1667ZM97.8216 81.7634C97.1825 81.7965 96.5815 81.7421 96.0188 81.6003C95.4555 81.4479 94.9845 81.2213 94.6058 80.9204L95.0061 79.9865C95.4162 80.275 95.8542 80.482 96.3199 80.6075C96.7963 80.7324 97.2849 80.7819 97.7856 80.756C98.4247 80.7229 98.8983 80.5863 99.2063 80.346C99.5244 80.0946 99.673 79.7665 99.652 79.3617C99.636 79.0528 99.5169 78.8133 99.2944 78.6432C99.0821 78.4619 98.7389 78.3302 98.2646 78.2479L96.7629 78.0211C96.0735 77.9073 95.5492 77.6834 95.1901 77.3495C94.8305 77.0049 94.6364 76.5557 94.6077 76.0018C94.5835 75.5331 94.6848 75.1166 94.9116 74.7524C95.1379 74.3775 95.4801 74.0768 95.9384 73.8502C96.3961 73.6129 96.9392 73.478 97.5677 73.4455C98.1535 73.4152 98.6962 73.4779 99.1955 73.6336C99.705 73.7782 100.133 74.007 100.481 74.3202L100.064 75.2389C99.7281 74.9465 99.3487 74.7365 98.9256 74.6089C98.5125 74.47 98.0876 74.4119 97.6509 74.4345C97.0224 74.467 96.5549 74.6193 96.2486 74.8915C95.9523 75.1525 95.8147 75.4854 95.8356 75.8902C95.8516 76.1991 95.9607 76.4498 96.1629 76.6423C96.3752 76.8236 96.6916 76.9514 97.112 77.0258L98.6137 77.2525C99.3463 77.3748 99.8972 77.5973 100.266 77.92C100.646 78.2315 100.85 78.6696 100.879 79.2341C100.904 79.7135 100.792 80.1412 100.545 80.5171C100.297 80.8824 99.938 81.1733 99.4685 81.3899C99.0098 81.6059 98.4608 81.7304 97.8216 81.7634ZM105.749 81.3535C105.109 81.3865 104.508 81.3321 103.946 81.1904C103.382 81.0379 102.911 80.8113 102.533 80.5104L102.933 79.5765C103.343 79.865 103.781 80.072 104.247 80.1975C104.723 80.3224 105.212 80.3719 105.712 80.346C106.352 80.3129 106.825 80.1763 107.133 79.936C107.451 79.6846 107.6 79.3565 107.579 78.9517C107.563 78.6428 107.444 78.4033 107.221 78.2332C107.009 78.0519 106.666 77.9202 106.192 77.8379L104.69 77.6111C104 77.4973 103.476 77.2734 103.117 76.9395C102.757 76.5949 102.563 76.1457 102.535 75.5918C102.51 75.1231 102.612 74.7066 102.839 74.3424C103.065 73.9675 103.407 73.6668 103.865 73.4402C104.323 73.2029 104.866 73.068 105.495 73.0355C106.08 73.0052 106.623 73.0679 107.122 73.2236C107.632 73.3682 108.06 73.597 108.408 73.9102L107.991 74.8289C107.655 74.5365 107.276 74.3265 106.852 74.1989C106.439 74.06 106.015 74.0019 105.578 74.0245C104.949 74.057 104.482 74.2093 104.175 74.4815C103.879 74.7425 103.742 75.0754 103.763 75.4802C103.779 75.7891 103.888 76.0398 104.09 76.2323C104.302 76.4136 104.618 76.5414 105.039 76.6158L106.541 76.8425C107.273 76.9648 107.824 77.1873 108.193 77.51C108.573 77.8215 108.777 78.2596 108.806 78.8242C108.831 79.3035 108.719 79.7312 108.472 80.1071C108.224 80.4724 107.865 80.7634 107.395 80.9799C106.937 81.1959 106.388 81.3204 105.749 81.3535ZM111.431 82.7418L110.8 82.3098C111.072 81.9967 111.244 81.7047 111.316 81.434C111.398 81.1734 111.433 80.9099 111.419 80.6436L111.72 80.9004L110.666 80.9549L110.582 79.3251L112.211 79.2408L112.271 80.3913C112.293 80.8174 112.244 81.2204 112.125 81.6004C112.007 81.9911 111.775 82.3715 111.431 82.7418ZM118.867 80.5307L118.285 69.2658L119.611 69.1972L120.194 80.4621L118.867 80.5307ZM129.166 79.9981L125.779 72.1305L127.153 72.0594L129.995 78.9939L129.58 79.0154L131.771 71.8206L132.89 71.7627L135.764 78.6955L135.364 78.7162L137.492 71.5247L138.802 71.457L136.229 79.6328L134.982 79.6972L132.023 72.6567L132.662 72.6237L130.428 79.9328L129.166 79.9981ZM143.816 79.3845C143.102 79.4215 142.471 79.2886 141.921 78.9859C141.371 78.6726 140.93 78.2147 140.6 77.6123C140.281 77.0093 140.099 76.2764 140.054 75.4136C140.009 74.5401 140.114 73.787 140.37 73.1542C140.636 72.521 141.027 72.0255 141.542 71.6677C142.058 71.3099 142.673 71.1126 143.386 71.0756C144.111 71.0382 144.743 71.1924 145.285 71.5382C145.836 71.8728 146.213 72.35 146.416 72.9697L146.224 72.9796L146.302 71.069L147.548 71.0046C147.532 71.3152 147.516 71.6311 147.501 71.9523C147.496 72.2623 147.501 72.5664 147.516 72.8647L147.835 79.0325L146.541 79.0994L146.443 77.2139L146.619 77.2048C146.481 77.8422 146.155 78.3557 145.641 78.7454C145.128 79.1351 144.519 79.3482 143.816 79.3845ZM144.017 78.3167C144.784 78.2771 145.378 77.9847 145.798 77.4396C146.218 76.8838 146.402 76.0999 146.349 75.0879C146.297 74.0653 146.033 73.3046 145.559 72.8058C145.084 72.2963 144.463 72.0614 143.696 72.101C142.939 72.1402 142.346 72.4379 141.915 72.9942C141.495 73.5393 141.311 74.3232 141.364 75.3458C141.416 76.3578 141.68 77.1185 142.155 77.628C142.64 78.1263 143.261 78.3558 144.017 78.3167ZM150.338 78.903L150.019 72.7353C150.003 72.437 149.972 72.1343 149.924 71.827C149.886 71.5085 149.843 71.1956 149.795 70.8884L151.041 70.8239L151.292 72.5733L151.1 72.5832C151.303 71.9533 151.651 71.4653 152.146 71.1192C152.651 70.762 153.244 70.5658 153.926 70.5305C154.874 70.4815 155.601 70.7002 156.107 71.1868C156.623 71.6621 156.909 72.443 156.965 73.5296L157.224 78.5468L155.93 78.6138L155.675 73.6764C155.636 72.9201 155.453 72.3795 155.126 72.0546C154.81 71.7185 154.332 71.5669 153.693 71.6C152.947 71.6386 152.368 71.8982 151.955 72.3788C151.542 72.8594 151.355 73.4833 151.395 74.2502L151.632 78.8361L150.338 78.903ZM162.552 78.4155C161.763 78.4563 161.15 78.2637 160.711 77.8378C160.272 77.4012 160.029 76.7249 159.982 75.8088L159.753 71.3827L158.187 71.4637L158.135 70.457L159.701 70.376L159.587 68.187L160.863 67.7525L160.995 70.3091L163.296 70.1901L163.348 71.1967L161.047 71.3157L161.268 75.598C161.302 76.2372 161.432 76.6897 161.659 76.9557C161.897 77.2104 162.234 77.3265 162.67 77.3039C162.873 77.2934 163.053 77.2681 163.211 77.2279C163.369 77.177 163.51 77.1216 163.635 77.0617L163.691 78.1483C163.546 78.2199 163.367 78.2772 163.156 78.3202C162.955 78.3733 162.754 78.405 162.552 78.4155ZM172.512 77.9003C171.798 77.9373 171.167 77.8044 170.617 77.5017C170.067 77.1884 169.626 76.7305 169.296 76.1281C168.977 75.5251 168.795 74.7922 168.75 73.9294C168.705 73.0559 168.81 72.3028 169.066 71.67C169.332 71.0368 169.723 70.5413 170.238 70.1835C170.754 69.8257 171.369 69.6284 172.082 69.5914C172.807 69.554 173.439 69.7082 173.981 70.054C174.532 70.3886 174.909 70.8658 175.112 71.4855L174.92 71.4954L174.998 69.5848L176.244 69.5204C176.228 69.831 176.213 70.1469 176.197 70.4681C176.192 70.7781 176.197 71.0822 176.212 71.3805L176.531 77.5483L175.237 77.6152L175.139 75.7297L175.315 75.7206C175.177 76.3579 174.851 76.8715 174.337 77.2612C173.824 77.6509 173.215 77.864 172.512 77.9003ZM172.713 76.8325C173.48 76.7929 174.074 76.5005 174.494 75.9554C174.914 75.3996 175.098 74.6157 175.046 73.6037C174.993 72.5811 174.729 71.8204 174.255 71.3216C173.78 70.8121 173.159 70.5772 172.392 70.6168C171.635 70.656 171.042 70.9537 170.611 71.51C170.191 72.0551 170.007 72.839 170.06 73.8616C170.113 74.8736 170.376 75.6343 170.851 76.1438C171.336 76.6421 171.957 76.8716 172.713 76.8325ZM42.7605 111.647C42.1213 111.68 41.5204 111.626 40.9576 111.484C40.3943 111.332 39.9233 111.105 39.5446 110.804L39.9449 109.87C40.355 110.159 40.793 110.366 41.2588 110.491C41.7352 110.616 42.2237 110.666 42.7244 110.64C43.3635 110.607 43.8371 110.47 44.1451 110.23C44.4632 109.979 44.6118 109.65 44.5909 109.246C44.5749 108.937 44.4557 108.697 44.2333 108.527C44.021 108.346 43.6777 108.214 43.2035 108.132L41.7018 107.905C41.0123 107.791 40.488 107.567 40.129 107.233C39.7694 106.889 39.5752 106.44 39.5466 105.886C39.5223 105.417 39.6236 105.001 39.8504 104.636C40.0767 104.261 40.419 103.961 40.8772 103.734C41.3349 103.497 41.878 103.362 42.5065 103.329C43.0924 103.299 43.635 103.362 44.1344 103.518C44.6439 103.662 45.0723 103.891 45.4196 104.204L45.0025 105.123C44.6669 104.83 44.2876 104.62 43.8644 104.493C43.4513 104.354 43.0264 104.296 42.5897 104.318C41.9612 104.351 41.4938 104.503 41.1874 104.775C40.8912 105.036 40.7535 105.369 40.7745 105.774C40.7904 106.083 40.8995 106.334 41.1017 106.526C41.314 106.708 41.6304 106.835 42.0508 106.91L43.5525 107.136C44.2852 107.259 44.8361 107.481 45.2052 107.804C45.5845 108.115 45.7887 108.554 45.8179 109.118C45.8427 109.597 45.7313 110.025 45.4837 110.401C45.2356 110.766 44.8768 111.057 44.4074 111.274C43.9486 111.49 43.3996 111.614 42.7605 111.647ZM48.0115 111.232L47.5966 103.21L48.8909 103.143L49.3058 111.165L48.0115 111.232ZM47.3426 101.397L47.2674 99.943L48.8653 99.8603L48.9405 101.314L47.3426 101.397ZM51.8189 111.035L51.4999 104.867C51.4845 104.569 51.4528 104.266 51.4049 103.959C51.367 103.64 51.3241 103.327 51.2762 103.02L52.5225 102.956L52.7732 104.705L52.5815 104.715C52.7631 104.097 53.0745 103.611 53.5154 103.257C53.9671 102.902 54.5231 102.708 55.1835 102.674C55.8546 102.639 56.4062 102.771 56.8382 103.069C57.2808 103.366 57.594 103.847 57.7779 104.51L57.5382 104.523C57.7092 103.905 58.0412 103.407 58.5344 103.029C59.0275 102.651 59.615 102.445 60.2967 102.409C61.1809 102.364 61.8599 102.585 62.3337 103.073C62.807 103.55 63.0718 104.332 63.1279 105.419L63.3875 110.436L62.0932 110.503L61.8378 105.566C61.7987 104.81 61.6372 104.268 61.3532 103.941C61.0687 103.603 60.6335 103.449 60.0477 103.48C59.3766 103.514 58.8561 103.776 58.4862 104.265C58.1264 104.743 57.9666 105.371 58.0068 106.149L58.2423 110.702L56.9481 110.769L56.6927 105.832C56.6536 105.076 56.492 104.534 56.2081 104.207C55.9236 103.869 55.4884 103.715 54.9025 103.746C54.2314 103.78 53.7163 104.042 53.357 104.531C52.9972 105.008 52.8374 105.636 52.8776 106.414L53.1132 110.968L51.8189 111.035ZM66.0255 113.761L65.528 104.141C65.5126 103.843 65.4809 103.54 65.433 103.233C65.3952 102.915 65.3523 102.602 65.3043 102.294L66.5507 102.23L66.8248 104.122L66.633 104.132C66.771 103.495 67.0916 102.982 67.5948 102.593C68.0975 102.193 68.711 101.974 69.4354 101.937C70.1597 101.899 70.7914 102.032 71.3305 102.335C71.8802 102.638 72.3202 103.09 72.6504 103.693C72.9806 104.295 73.1683 105.033 73.2135 105.907C73.2581 106.77 73.1473 107.518 72.881 108.151C72.6253 108.784 72.24 109.284 71.725 109.653C71.2094 110.01 70.5895 110.208 69.8651 110.245C69.1514 110.282 68.5242 110.133 67.9835 109.798C67.4428 109.463 67.071 108.985 66.868 108.366L67.0438 108.357L67.3198 113.694L66.0255 113.761ZM69.5549 109.204C70.3219 109.164 70.9156 108.872 71.336 108.327C71.7665 107.771 71.9556 106.986 71.9032 105.975C71.8503 104.952 71.5814 104.191 71.0963 103.693C70.6214 103.184 70.0004 102.949 69.2334 102.988C68.4771 103.028 67.8837 103.325 67.4532 103.882C67.0328 104.427 66.849 105.211 66.9019 106.233C66.9543 107.245 67.2179 108.006 67.6929 108.515C68.1779 109.014 68.7986 109.243 69.5549 109.204ZM75.428 109.814L74.8197 98.0533L76.114 97.9864L76.7223 109.747L75.428 109.814ZM82.8061 109.576C81.5491 109.641 80.5397 109.33 79.7778 108.643C79.0155 107.946 78.6007 106.947 78.5334 105.648C78.4899 104.806 78.612 104.068 78.8996 103.434C79.1866 102.789 79.609 102.281 80.1666 101.91C80.7236 101.529 81.375 101.319 82.1207 101.28C82.8557 101.242 83.4815 101.365 83.9981 101.648C84.5148 101.931 84.9211 102.353 85.2172 102.915C85.5127 103.466 85.6806 104.13 85.7208 104.907L85.7456 105.387L79.5299 105.708L79.4878 104.893L84.8566 104.616L84.5957 104.837C84.5516 103.985 84.3254 103.329 83.9172 102.87C83.5089 102.41 82.9266 102.2 82.1702 102.239C81.3713 102.281 80.7627 102.595 80.3445 103.183C79.9258 103.76 79.7409 104.522 79.79 105.47L79.7974 105.614C79.8492 106.616 80.1336 107.365 80.6506 107.861C81.1777 108.347 81.8887 108.566 82.7835 108.52C83.2628 108.495 83.7067 108.403 84.1149 108.243C84.5333 108.072 84.9257 107.811 85.2921 107.461L85.7866 108.349C85.4527 108.708 85.0191 108.997 84.4858 109.217C83.9625 109.426 83.4026 109.545 82.8061 109.576ZM92.0932 108.952L91.6783 100.93L92.9726 100.863L93.3875 108.885L92.0932 108.952ZM91.4243 99.117L91.3491 97.663L92.947 97.5803L93.0222 99.0344L91.4243 99.117ZM95.9006 108.755L95.5816 102.587C95.5662 102.289 95.5345 101.986 95.4866 101.679C95.4487 101.36 95.4058 101.047 95.3579 100.74L96.6042 100.676L96.8549 102.425L96.6632 102.435C96.8656 101.805 97.2142 101.317 97.709 100.971C98.2139 100.614 98.8072 100.417 99.4889 100.382C100.437 100.333 101.164 100.552 101.67 101.038C102.186 101.514 102.472 102.295 102.528 103.381L102.787 108.399L101.493 108.465L101.238 103.528C101.199 102.772 101.016 102.231 100.689 101.906C100.373 101.57 99.895 101.419 99.2559 101.452C98.5102 101.49 97.9308 101.75 97.5178 102.23C97.1047 102.711 96.918 103.335 96.9577 104.102L97.1949 108.688L95.9006 108.755ZM108.115 108.267C107.326 108.308 106.713 108.115 106.274 107.689C105.835 107.253 105.592 106.577 105.545 105.66L105.316 101.234L103.75 101.315L103.698 100.309L105.264 100.228L105.15 98.0386L106.426 97.6042L106.558 100.161L108.859 100.042L108.911 101.048L106.61 101.167L106.831 105.45C106.865 106.089 106.995 106.541 107.222 106.807C107.46 107.062 107.797 107.178 108.233 107.156C108.436 107.145 108.616 107.12 108.774 107.08C108.932 107.029 109.073 106.973 109.198 106.913L109.254 108C109.109 108.072 108.93 108.129 108.719 108.172C108.518 108.225 108.317 108.257 108.115 108.267ZM114.342 107.945C113.085 108.01 112.076 107.699 111.314 107.012C110.551 106.315 110.137 105.316 110.069 104.017C110.026 103.175 110.148 102.437 110.436 101.803C110.723 101.158 111.145 100.65 111.703 100.279C112.26 99.8979 112.911 99.688 113.657 99.6494C114.392 99.6114 115.017 99.7339 115.534 100.017C116.051 100.3 116.457 100.722 116.753 101.284C117.049 101.834 117.217 102.499 117.257 103.276L117.282 103.756L111.066 104.077L111.024 103.262L116.393 102.985L116.132 103.206C116.088 102.354 115.861 101.698 115.453 101.239C115.045 100.779 114.463 100.569 113.706 100.608C112.907 100.649 112.299 100.964 111.881 101.552C111.462 102.129 111.277 102.891 111.326 103.839L111.333 103.983C111.385 104.985 111.67 105.733 112.187 106.23C112.714 106.716 113.425 106.935 114.319 106.889C114.799 106.864 115.243 106.772 115.651 106.612C116.069 106.441 116.462 106.18 116.828 105.83L117.323 106.717C116.989 107.077 116.555 107.366 116.022 107.586C115.498 107.794 114.939 107.914 114.342 107.945ZM119.431 107.538L119.116 101.45C119.1 101.13 119.072 100.806 119.034 100.477C119.006 100.147 118.968 99.8286 118.92 99.5214L120.167 99.4569L120.427 101.398L120.204 101.426C120.286 100.941 120.452 100.537 120.702 100.214C120.953 99.8915 121.255 99.6463 121.61 99.4784C121.963 99.2999 122.337 99.2004 122.732 99.18C122.891 99.1718 123.03 99.1699 123.148 99.1745C123.276 99.1786 123.395 99.1991 123.504 99.2362L123.547 100.388C123.385 100.343 123.234 100.318 123.095 100.315C122.966 100.3 122.816 100.297 122.646 100.306C122.177 100.33 121.773 100.463 121.433 100.705C121.103 100.946 120.857 101.248 120.694 101.609C120.542 101.969 120.476 102.346 120.497 102.74L120.741 107.47L119.431 107.538ZM126.104 107.193L125.742 100.178L124.176 100.259L124.124 99.2522L126.041 99.1531L125.707 99.5068L125.637 98.1646C125.591 97.2591 125.784 96.5549 126.217 96.0518C126.65 95.5488 127.293 95.2752 128.145 95.2311C128.358 95.2201 128.578 95.2301 128.804 95.2612C129.04 95.281 129.234 95.319 129.386 95.3752L129.442 96.4458C129.311 96.3991 129.149 96.3648 128.956 96.3428C128.772 96.3095 128.585 96.2978 128.393 96.3078C128.063 96.3248 127.784 96.4087 127.557 96.5593C127.329 96.6992 127.164 96.9054 127.06 97.1778C126.957 97.4501 126.916 97.794 126.937 98.2095L126.998 99.3759L126.776 99.115L129.221 98.9886L129.273 99.9952L127.036 100.111L127.399 107.126L126.104 107.193ZM134.069 106.925C133.356 106.962 132.724 106.829 132.174 106.526C131.624 106.213 131.184 105.755 130.853 105.152C130.534 104.55 130.352 103.817 130.307 102.954C130.262 102.08 130.367 101.327 130.623 100.694C130.889 100.061 131.28 99.5657 131.796 99.2079C132.311 98.8501 132.926 98.6528 133.64 98.6159C134.364 98.5784 134.997 98.7326 135.538 99.0784C136.089 99.413 136.466 99.8902 136.669 100.51L136.478 100.52L136.555 98.6093L137.801 98.5448C137.785 98.8554 137.77 99.1713 137.754 99.4925C137.749 99.8025 137.754 100.107 137.769 100.405L138.088 106.573L136.794 106.64L136.697 104.754L136.872 104.745C136.735 105.382 136.409 105.896 135.895 106.286C135.381 106.675 134.772 106.888 134.069 106.925ZM134.27 105.857C135.037 105.817 135.631 105.525 136.051 104.98C136.471 104.424 136.655 103.64 136.603 102.628C136.55 101.606 136.286 100.845 135.812 100.346C135.337 99.8365 134.716 99.6016 133.949 99.6412C133.193 99.6804 132.599 99.9781 132.169 100.534C131.748 101.08 131.565 101.863 131.617 102.886C131.67 103.898 131.933 104.659 132.408 105.168C132.893 105.666 133.514 105.896 134.27 105.857ZM143.97 106.413C143.182 106.453 142.486 106.319 141.882 106.008C141.289 105.697 140.817 105.235 140.465 104.623C140.123 104.011 139.93 103.273 139.886 102.41C139.84 101.537 139.962 100.788 140.25 100.164C140.538 99.5301 140.961 99.0383 141.52 98.6889C142.089 98.3391 142.762 98.144 143.54 98.1038C144.051 98.0773 144.551 98.1423 145.04 98.2986C145.54 98.4543 145.958 98.689 146.294 99.0027L145.879 99.9535C145.543 99.6611 145.18 99.4502 144.789 99.3209C144.408 99.1911 144.037 99.1355 143.674 99.1542C142.844 99.1972 142.213 99.4915 141.782 100.037C141.351 100.583 141.161 101.356 141.213 102.358C141.264 103.348 141.533 104.103 142.019 104.623C142.505 105.143 143.163 105.381 143.994 105.338C144.346 105.32 144.704 105.232 145.07 105.074C145.446 104.916 145.791 104.668 146.105 104.332L146.616 105.218C146.303 105.576 145.906 105.859 145.426 106.065C144.945 106.271 144.46 106.387 143.97 106.413ZM151.917 106.002C150.66 106.067 149.65 105.756 148.889 105.069C148.126 104.371 147.711 103.373 147.644 102.073C147.601 101.232 147.723 100.494 148.01 99.8592C148.297 99.2142 148.72 98.7064 149.277 98.3358C149.834 97.9545 150.486 97.7445 151.231 97.706C151.966 97.668 152.592 97.7905 153.109 98.0735C153.626 98.3565 154.032 98.7788 154.328 99.3402C154.623 99.891 154.791 100.555 154.832 101.333L154.856 101.812L148.641 102.134L148.599 101.319L153.967 101.041L153.706 101.263C153.662 100.411 153.436 99.7548 153.028 99.2953C152.62 98.8358 152.037 98.6256 151.281 98.6647C150.482 98.706 149.873 99.0205 149.455 99.6083C149.037 100.185 148.852 100.948 148.901 101.896L148.908 102.04C148.96 103.041 149.244 103.79 149.761 104.287C150.288 104.772 150.999 104.992 151.894 104.945C152.374 104.921 152.817 104.828 153.226 104.668C153.644 104.497 154.036 104.236 154.403 103.886L154.897 104.774C154.563 105.133 154.13 105.423 153.596 105.642C153.073 105.851 152.513 105.971 151.917 106.002ZM157.547 107.393L156.916 106.961C157.188 106.648 157.36 106.356 157.432 106.085C157.514 105.824 157.549 105.561 157.535 105.295L157.837 105.551L156.782 105.606L156.698 103.976L158.328 103.892L158.387 105.042C158.409 105.468 158.36 105.871 158.241 106.251C158.123 106.642 157.891 107.022 157.547 107.393ZM167.516 105.195C166.876 105.228 166.275 105.174 165.713 105.032C165.149 104.879 164.678 104.653 164.3 104.352L164.7 103.418C165.11 103.706 165.548 103.913 166.014 104.039C166.49 104.164 166.979 104.213 167.479 104.187C168.119 104.154 168.592 104.018 168.9 103.777C169.218 103.526 169.367 103.198 169.346 102.793C169.33 102.484 169.211 102.245 168.988 102.075C168.776 101.893 168.433 101.762 167.959 101.679L166.457 101.453C165.767 101.339 165.243 101.115 164.884 100.781C164.524 100.436 164.33 99.9871 164.302 99.4332C164.277 98.9645 164.379 98.548 164.606 98.1838C164.832 97.809 165.174 97.5082 165.632 97.2816C166.09 97.0443 166.633 96.9094 167.262 96.8769C167.847 96.8466 168.39 96.9093 168.889 97.065C169.399 97.2096 169.827 97.4384 170.175 97.7516L169.758 98.6703C169.422 98.3779 169.043 98.1679 168.62 98.0403C168.206 97.9014 167.782 97.8433 167.345 97.8659C166.716 97.8984 166.249 98.0507 165.943 98.3229C165.646 98.5839 165.509 98.9168 165.53 99.3216C165.546 99.6305 165.655 99.8812 165.857 100.074C166.069 100.255 166.386 100.383 166.806 100.457L168.308 100.684C169.04 100.806 169.591 101.029 169.96 101.351C170.34 101.663 170.544 102.101 170.573 102.666C170.598 103.145 170.486 103.573 170.239 103.949C169.991 104.314 169.632 104.605 169.162 104.821C168.704 105.037 168.155 105.162 167.516 105.195ZM176.066 104.753C175.299 104.792 174.619 104.662 174.027 104.361C173.445 104.05 172.983 103.593 172.642 102.991C172.301 102.379 172.108 101.646 172.064 100.794C172.019 99.9312 172.135 99.1829 172.412 98.5491C172.689 97.9152 173.102 97.4186 173.649 97.0592C174.207 96.6886 174.869 96.4834 175.636 96.4437C176.414 96.4035 177.093 96.5392 177.676 96.8509C178.268 97.1514 178.735 97.6026 179.075 98.2044C179.427 98.8057 179.625 99.5378 179.67 100.401C179.714 101.253 179.592 102.001 179.305 102.646C179.028 103.28 178.611 103.783 178.053 104.153C177.506 104.513 176.843 104.712 176.066 104.753ZM176.011 103.698C176.778 103.658 177.372 103.366 177.792 102.821C178.212 102.265 178.396 101.481 178.343 100.469C178.291 99.4466 178.022 98.6862 177.537 98.1879C177.062 97.6784 176.446 97.4432 175.69 97.4824C174.933 97.5215 174.345 97.8189 173.925 98.3747C173.505 98.9198 173.321 99.7037 173.374 100.726C173.426 101.738 173.69 102.499 174.165 103.008C174.639 103.507 175.255 103.737 176.011 103.698ZM188.913 104.088C188.125 104.129 187.511 103.936 187.073 103.51C186.634 103.074 186.39 102.398 186.343 101.481L186.114 97.0553L184.548 97.1363L184.496 96.1297L186.062 96.0487L185.949 93.8596L187.224 93.4252L187.356 95.9817L189.657 95.8627L189.709 96.8694L187.408 96.9884L187.63 101.271C187.663 101.91 187.793 102.362 188.02 102.628C188.258 102.883 188.595 102.999 189.032 102.977C189.234 102.966 189.414 102.941 189.573 102.9C189.73 102.85 189.871 102.794 189.997 102.734L190.053 103.821C189.907 103.893 189.728 103.95 189.517 103.993C189.317 104.046 189.115 104.078 188.913 104.088ZM191.648 103.803L191.039 92.0422L192.334 91.9753L192.619 97.4879L192.411 97.4987C192.602 96.8586 192.951 96.3653 193.456 96.0187C193.972 95.6609 194.576 95.4642 195.268 95.4283C196.227 95.3788 196.954 95.6028 197.45 96.1006C197.945 96.5876 198.219 97.3531 198.273 98.3971L198.534 103.446L197.24 103.513L196.983 98.5439C196.945 97.7982 196.767 97.2627 196.451 96.9372C196.146 96.6112 195.669 96.465 195.019 96.4986C194.273 96.5372 193.689 96.7971 193.265 97.2783C192.852 97.7589 192.664 98.3721 192.703 99.1177L192.942 103.736L191.648 103.803ZM204.069 103.304C203.356 103.341 202.724 103.208 202.174 102.906C201.624 102.592 201.184 102.134 200.854 101.532C200.534 100.929 200.352 100.196 200.307 99.3333C200.262 98.4598 200.367 97.7066 200.623 97.0739C200.889 96.4407 201.28 95.9451 201.796 95.5874C202.311 95.2296 202.926 95.0323 203.64 94.9953C204.364 94.9579 204.997 95.1121 205.538 95.4579C206.09 95.7925 206.467 96.2697 206.67 96.8894L206.478 96.8993L206.555 94.9887L207.802 94.9243C207.786 95.2348 207.77 95.5507 207.754 95.872C207.749 96.182 207.754 96.4861 207.77 96.7844L208.089 102.952L206.794 103.019L206.697 101.134L206.873 101.125C206.735 101.762 206.409 102.275 205.895 102.665C205.381 103.055 204.773 103.268 204.069 103.304ZM204.271 102.236C205.038 102.197 205.631 101.904 206.052 101.359C206.472 100.803 206.655 100.02 206.603 99.0076C206.55 97.985 206.286 97.2243 205.812 96.7254C205.337 96.216 204.716 95.9811 203.949 96.0207C203.193 96.0598 202.599 96.3576 202.169 96.9139C201.748 97.459 201.565 98.2429 201.618 99.2655C201.67 100.277 201.934 101.038 202.409 101.548C202.894 102.046 203.514 102.276 204.271 102.236ZM213.443 102.819C212.654 102.86 212.041 102.668 211.602 102.242C211.163 101.805 210.92 101.129 210.873 100.213L210.644 95.7866L209.078 95.8676L209.026 94.861L210.592 94.78L210.478 92.5909L211.754 92.1564L211.886 94.713L214.187 94.594L214.239 95.6007L211.938 95.7197L212.159 100.002C212.193 100.641 212.323 101.094 212.55 101.36C212.788 101.614 213.125 101.73 213.561 101.708C213.764 101.697 213.944 101.672 214.102 101.632C214.26 101.581 214.401 101.526 214.526 101.466L214.582 102.552C214.437 102.624 214.258 102.681 214.047 102.724C213.846 102.777 213.645 102.809 213.443 102.819ZM220.487 102.311L219.905 91.0459L221.231 90.9773L221.814 102.242L220.487 102.311ZM44.8581 138.575C44.0699 138.616 43.374 138.481 42.7705 138.17C42.1776 137.859 41.7051 137.398 41.353 136.786C41.0116 136.173 40.8186 135.435 40.774 134.573C40.7288 133.699 40.8503 132.95 41.1384 132.327C41.4261 131.692 41.8492 131.201 42.4079 130.851C42.9773 130.501 43.6508 130.306 44.4284 130.266C44.9397 130.24 45.4397 130.305 45.9285 130.461C46.4278 130.617 46.8459 130.851 47.1825 131.165L46.7671 132.116C46.4315 131.823 46.0681 131.613 45.6769 131.483C45.2964 131.353 44.925 131.298 44.5628 131.317C43.7319 131.36 43.101 131.654 42.6699 132.199C42.2389 132.745 42.0492 133.519 42.101 134.52C42.1523 135.511 42.421 136.266 42.9071 136.785C43.3933 137.305 44.0518 137.543 44.8827 137.5C45.2342 137.482 45.5928 137.394 45.9585 137.236C46.3348 137.078 46.6798 136.831 46.9935 136.494L47.504 137.381C47.1914 137.739 46.7948 138.021 46.3141 138.227C45.8335 138.434 45.3482 138.55 44.8581 138.575ZM52.3875 138.186C51.6737 138.222 51.042 138.09 50.4923 137.787C49.9421 137.474 49.5018 137.016 49.1716 136.413C48.8521 135.81 48.67 135.077 48.6253 134.215C48.5801 133.341 48.6854 132.588 48.941 131.955C49.2074 131.322 49.5983 130.826 50.1138 130.469C50.6294 130.111 51.244 129.914 51.9577 129.877C52.6821 129.839 53.3149 129.993 53.8561 130.339C54.4075 130.674 54.7846 131.151 54.9876 131.771L54.7958 131.781L54.8733 129.87L56.1196 129.806C56.1036 130.116 56.0879 130.432 56.0725 130.753C56.0672 131.063 56.0722 131.367 56.0876 131.666L56.4066 137.833L55.1124 137.9L55.0148 136.015L55.1906 136.006C55.0527 136.643 54.7268 137.157 54.2129 137.546C53.699 137.936 53.0905 138.149 52.3875 138.186ZM52.5886 137.118C53.3555 137.078 53.9492 136.786 54.3696 136.241C54.7895 135.685 54.9733 134.901 54.9209 133.889C54.868 132.866 54.6044 132.106 54.13 131.607C53.655 131.097 53.0341 130.862 52.2671 130.902C51.5108 130.941 50.9174 131.239 50.4868 131.795C50.0664 132.34 49.8827 133.124 49.9356 134.147C49.9879 135.159 50.2516 135.92 50.7265 136.429C51.2116 136.927 51.8322 137.157 52.5886 137.118ZM58.909 137.704L58.59 131.536C58.5746 131.238 58.5429 130.935 58.495 130.628C58.4572 130.31 58.4143 129.997 58.3663 129.689L59.6127 129.625L59.8634 131.374L59.6716 131.384C59.874 130.754 60.2226 130.266 60.7174 129.92C61.2223 129.563 61.8156 129.367 62.4974 129.332C63.4454 129.282 64.1724 129.501 64.6782 129.988C65.1941 130.463 65.4801 131.244 65.5363 132.331L65.7958 137.348L64.5016 137.415L64.2462 132.477C64.2071 131.721 64.0242 131.18 63.6977 130.856C63.3812 130.519 62.9034 130.368 62.2643 130.401C61.5186 130.44 60.9393 130.699 60.5262 131.18C60.1132 131.66 59.9265 132.284 59.9661 133.051L60.2033 137.637L58.909 137.704ZM75.8168 136.974C75.0285 137.015 74.3326 136.88 73.7291 136.569C73.1362 136.258 72.6637 135.796 72.3117 135.184C71.9702 134.572 71.7772 133.834 71.7326 132.971C71.6874 132.098 71.8089 131.349 72.0971 130.726C72.3847 130.091 72.8078 129.599 73.3665 129.25C73.9359 128.9 74.6094 128.705 75.387 128.665C75.8983 128.638 76.3984 128.703 76.8871 128.86C77.3865 129.015 77.8045 129.25 78.1411 129.564L77.7257 130.515C77.3901 130.222 77.0268 130.011 76.6356 129.882C76.255 129.752 75.8836 129.697 75.5215 129.715C74.6906 129.758 74.0596 130.053 73.6285 130.598C73.1975 131.144 73.0078 131.917 73.0596 132.919C73.1109 133.909 73.3796 134.665 73.8657 135.184C74.3519 135.704 75.0104 135.942 75.8413 135.899C76.1928 135.881 76.5514 135.793 76.9171 135.635C77.2934 135.477 77.6384 135.229 77.9521 134.893L78.4626 135.779C78.15 136.137 77.7534 136.42 77.2728 136.626C76.7921 136.833 76.3068 136.948 75.8168 136.974ZM83.4921 136.577C82.7252 136.616 82.0455 136.486 81.4532 136.186C80.871 135.874 80.4095 135.417 80.0686 134.815C79.7271 134.203 79.5344 133.47 79.4903 132.618C79.4457 131.755 79.5619 131.007 79.8388 130.373C80.1158 129.739 80.528 129.243 81.0755 128.883C81.6331 128.513 82.2954 128.308 83.0624 128.268C83.84 128.228 84.5199 128.363 85.1021 128.675C85.6944 128.976 86.161 129.427 86.5019 130.029C86.8534 130.63 87.0515 131.362 87.0962 132.225C87.1402 133.077 87.0187 133.826 86.7317 134.471C86.4547 135.104 86.0374 135.607 85.4798 135.977C84.9323 136.337 84.2698 136.537 83.4921 136.577ZM83.4376 135.522C84.2046 135.483 84.7983 135.19 85.2187 134.645C85.6385 134.089 85.8223 133.305 85.7699 132.293C85.717 131.271 85.4481 130.51 84.963 130.012C84.4881 129.503 83.8724 129.267 83.1161 129.306C82.3598 129.346 81.7717 129.643 81.3518 130.199C80.9314 130.744 80.7477 131.528 80.8006 132.55C80.8529 133.562 81.1166 134.323 81.5915 134.833C82.0659 135.331 82.6813 135.561 83.4376 135.522ZM89.3215 136.131L89.0025 129.963C88.9871 129.665 88.9554 129.362 88.9075 129.055C88.8696 128.737 88.8267 128.424 88.7788 128.116L90.0251 128.052L90.2758 129.801L90.0841 129.811C90.2657 129.193 90.5771 128.707 91.018 128.353C91.4697 127.999 92.0257 127.804 92.6861 127.77C93.3572 127.735 93.9088 127.867 94.3408 128.165C94.7834 128.463 95.0966 128.943 95.2805 129.607L95.0408 129.619C95.2118 129.001 95.5438 128.503 96.037 128.126C96.5301 127.748 97.1176 127.541 97.7993 127.506C98.6835 127.46 99.3625 127.681 99.8363 128.169C100.31 128.647 100.574 129.429 100.631 130.515L100.89 135.533L99.5958 135.6L99.3404 130.662C99.3013 129.906 99.1398 129.364 98.8558 129.037C98.5713 128.699 98.1361 128.546 97.5503 128.576C96.8792 128.611 96.3587 128.873 95.9888 129.362C95.629 129.84 95.4692 130.467 95.5094 131.245L95.7449 135.799L94.4507 135.866L94.1953 130.928C94.1562 130.172 93.9946 129.63 93.7107 129.303C93.4262 128.965 92.991 128.812 92.4051 128.842C91.734 128.877 91.2189 129.138 90.8596 129.627C90.4998 130.105 90.34 130.733 90.3803 131.51L90.6158 136.064L89.3215 136.131ZM103.528 138.857L103.031 129.238C103.015 128.939 102.984 128.637 102.936 128.329C102.898 128.011 102.855 127.698 102.807 127.391L104.053 127.326L104.327 129.219L104.136 129.229C104.274 128.591 104.594 128.078 105.097 127.689C105.6 127.289 106.214 127.07 106.938 127.033C107.662 126.996 108.294 127.128 108.833 127.432C109.383 127.734 109.823 128.187 110.153 128.789C110.483 129.392 110.671 130.13 110.716 131.003C110.761 131.866 110.65 132.614 110.384 133.247C110.128 133.88 109.743 134.381 109.228 134.749C108.712 135.107 108.092 135.304 107.368 135.342C106.654 135.379 106.027 135.23 105.486 134.894C104.945 134.559 104.574 134.082 104.371 133.462L104.546 133.453L104.822 138.79L103.528 138.857ZM107.058 134.301C107.824 134.261 108.418 133.968 108.839 133.423C109.269 132.867 109.458 132.083 109.406 131.071C109.353 130.048 109.084 129.288 108.599 128.79C108.124 128.28 107.503 128.045 106.736 128.085C105.98 128.124 105.386 128.422 104.956 128.978C104.535 129.523 104.352 130.307 104.405 131.33C104.457 132.342 104.721 133.102 105.195 133.612C105.681 134.11 106.301 134.34 107.058 134.301ZM112.931 134.91L112.322 123.15L113.617 123.083L114.225 134.843L112.931 134.91ZM120.309 134.673C119.052 134.738 118.042 134.427 117.28 133.74C116.518 133.042 116.103 132.044 116.036 130.744C115.993 129.902 116.115 129.165 116.402 128.53C116.689 127.885 117.112 127.377 117.669 127.007C118.226 126.625 118.878 126.415 119.623 126.377C120.358 126.339 120.984 126.461 121.501 126.744C122.017 127.027 122.424 127.45 122.72 128.011C123.015 128.562 123.183 129.226 123.223 130.004L123.248 130.483L117.033 130.805L116.99 129.99L122.359 129.712L122.098 129.934C122.054 129.082 121.828 128.426 121.42 127.966C121.011 127.507 120.429 127.296 119.673 127.336C118.874 127.377 118.265 127.691 117.847 128.279C117.428 128.856 117.244 129.619 117.293 130.567L117.3 130.711C117.352 131.712 117.636 132.461 118.153 132.958C118.68 133.443 119.391 133.663 120.286 133.616C120.765 133.592 121.209 133.499 121.618 133.339C122.036 133.168 122.428 132.907 122.795 132.557L123.289 133.445C122.955 133.804 122.522 134.093 121.988 134.313C121.465 134.522 120.905 134.642 120.309 134.673ZM128.281 134.26C127.493 134.301 126.879 134.108 126.441 133.682C126.002 133.246 125.758 132.57 125.711 131.653L125.482 127.227L123.916 127.308L123.864 126.302L125.43 126.221L125.317 124.032L126.592 123.597L126.724 126.154L129.025 126.035L129.077 127.041L126.776 127.16L126.998 131.443C127.031 132.082 127.161 132.534 127.389 132.8C127.626 133.055 127.963 133.171 128.4 133.149C128.602 133.138 128.783 133.113 128.941 133.073C129.098 133.022 129.24 132.966 129.365 132.906L129.421 133.993C129.275 134.065 129.096 134.122 128.885 134.165C128.685 134.218 128.484 134.25 128.281 134.26ZM134.508 133.938C133.251 134.003 132.242 133.692 131.48 133.005C130.718 132.308 130.303 131.309 130.236 130.01C130.192 129.168 130.314 128.43 130.602 127.796C130.889 127.151 131.311 126.643 131.869 126.272C132.426 125.891 133.077 125.681 133.823 125.642C134.558 125.604 135.184 125.727 135.701 126.01C136.217 126.293 136.624 126.715 136.92 127.277C137.215 127.827 137.383 128.492 137.423 129.269L137.448 129.749L131.232 130.07L131.19 129.255L136.559 128.978L136.298 129.199C136.254 128.347 136.028 127.691 135.62 127.232C135.211 126.772 134.629 126.562 133.873 126.601C133.074 126.642 132.465 126.957 132.047 127.545C131.628 128.122 131.443 128.884 131.492 129.832L131.5 129.976C131.552 130.978 131.836 131.727 132.353 132.223C132.88 132.709 133.591 132.928 134.486 132.882C134.965 132.857 135.409 132.765 135.817 132.605C136.236 132.434 136.628 132.173 136.995 131.823L137.489 132.711C137.155 133.07 136.721 133.359 136.188 133.579C135.665 133.788 135.105 133.907 134.508 133.938ZM45.7255 165.566C44.9372 165.607 44.3238 165.414 43.8852 164.988C43.446 164.552 43.2028 163.876 43.1554 162.959L42.9265 158.533L41.3606 158.614L41.3085 157.608L42.8744 157.527L42.7612 155.338L44.0364 154.903L44.1687 157.46L46.4696 157.341L46.5217 158.347L44.2207 158.466L44.4422 162.749C44.4753 163.388 44.6055 163.84 44.8329 164.106C45.0704 164.361 45.4075 164.477 45.8442 164.455C46.0466 164.444 46.2269 164.419 46.385 164.379C46.5426 164.328 46.6839 164.272 46.809 164.212L46.8652 165.299C46.7194 165.371 46.5407 165.428 46.3294 165.471C46.1292 165.524 45.9279 165.556 45.7255 165.566ZM48.4282 165.282L48.1133 159.194C48.0968 158.875 48.0693 158.55 48.0309 158.221C48.0032 157.892 47.9654 157.573 47.9174 157.266L49.1637 157.201L49.4244 159.143L49.2015 159.17C49.2832 158.685 49.4493 158.281 49.6996 157.959C49.9499 157.636 50.2523 157.391 50.6068 157.223C50.9607 157.044 51.3347 156.945 51.7289 156.925C51.8887 156.916 52.0274 156.914 52.1451 156.919C52.2735 156.923 52.3921 156.944 52.5008 156.981L52.5443 158.132C52.3818 158.087 52.231 158.063 52.092 158.059C51.963 158.045 51.8134 158.042 51.6429 158.051C51.1742 158.075 50.7699 158.208 50.4299 158.45C50.1006 158.691 49.8545 158.992 49.6916 159.353C49.5393 159.713 49.4734 160.091 49.4938 160.485L49.7384 165.214L48.4282 165.282ZM57.2462 164.97C56.5325 165.007 55.9008 164.874 55.3511 164.572C54.8008 164.258 54.3606 163.8 54.0304 163.198C53.7108 162.595 53.5287 161.862 53.4841 160.999C53.4389 160.126 53.5441 159.373 53.7998 158.74C54.0661 158.107 54.457 157.611 54.9726 157.253C55.4881 156.896 56.1027 156.698 56.8164 156.661C57.5408 156.624 58.1736 156.778 58.7149 157.124C59.2662 157.459 59.6434 157.936 59.8463 158.555L59.6546 158.565L59.732 156.655L60.9783 156.59C60.9624 156.901 60.9466 157.217 60.9312 157.538C60.9259 157.848 60.9309 158.152 60.9464 158.451L61.2654 164.618L59.9711 164.685L59.8736 162.8L60.0494 162.791C59.9114 163.428 59.5855 163.941 59.0716 164.331C58.5577 164.721 57.9493 164.934 57.2462 164.97ZM57.4473 163.903C58.2143 163.863 58.808 163.57 59.2284 163.025C59.6482 162.47 59.832 161.686 59.7796 160.674C59.7268 159.651 59.4631 158.89 58.9887 158.392C58.5138 157.882 57.8928 157.647 57.1258 157.687C56.3695 157.726 55.7761 158.024 55.3456 158.58C54.9252 159.125 54.7414 159.909 54.7943 160.932C54.8467 161.944 55.1103 162.704 55.5852 163.214C56.0703 163.712 56.691 163.942 57.4473 163.903ZM63.7678 164.489L63.4488 158.321C63.4333 158.023 63.4017 157.72 63.3537 157.413C63.3159 157.094 63.273 156.781 63.2251 156.474L64.4714 156.41L64.7221 158.159L64.5304 158.169C64.7328 157.539 65.0814 157.051 65.5761 156.705C66.081 156.348 66.6744 156.152 67.3561 156.116C68.3042 156.067 69.0311 156.286 69.5369 156.773C70.0528 157.248 70.3389 158.029 70.3951 159.115L70.6546 164.133L69.3603 164.2L69.1049 159.262C69.0658 158.506 68.883 157.965 68.5564 157.64C68.24 157.304 67.7622 157.153 67.123 157.186C66.3774 157.224 65.798 157.484 65.3849 157.965C64.9719 158.445 64.7852 159.069 64.8249 159.836L65.0621 164.422L63.7678 164.489ZM75.8061 164.01C75.167 164.043 74.566 163.989 74.0033 163.847C73.44 163.695 72.969 163.468 72.5903 163.167L72.9906 162.233C73.4007 162.522 73.8387 162.729 74.3044 162.854C74.7808 162.979 75.2694 163.029 75.7701 163.003C76.4092 162.97 76.8828 162.833 77.1908 162.593C77.5089 162.342 77.6575 162.013 77.6365 161.609C77.6205 161.3 77.5014 161.06 77.2789 160.89C77.0666 160.709 76.7234 160.577 76.2491 160.495L74.7474 160.268C74.058 160.154 73.5337 159.93 73.1746 159.596C72.815 159.252 72.6209 158.803 72.5922 158.249C72.568 157.78 72.6693 157.364 72.8961 156.999C73.1224 156.624 73.4646 156.324 73.9229 156.097C74.3806 155.86 74.9237 155.725 75.5522 155.692C76.138 155.662 76.6807 155.725 77.18 155.881C77.6895 156.025 78.1179 156.254 78.4652 156.567L78.0481 157.486C77.7126 157.193 77.3332 156.983 76.9101 156.856C76.497 156.717 76.0721 156.659 75.6354 156.681C75.0069 156.714 74.5394 156.866 74.2331 157.138C73.9368 157.399 73.7992 157.732 73.8201 158.137C73.8361 158.446 73.9452 158.697 74.1474 158.889C74.3597 159.071 74.6761 159.198 75.0965 159.273L76.5982 159.499C77.3308 159.622 77.8817 159.844 78.2509 160.167C78.6301 160.478 78.8344 160.917 78.8636 161.481C78.8884 161.96 78.777 162.388 78.5294 162.764C78.2813 163.129 77.9225 163.42 77.453 163.637C76.9943 163.853 76.4453 163.977 75.8061 164.01ZM84.1165 163.581C83.4028 163.617 82.7711 163.485 82.2214 163.182C81.6712 162.869 81.2309 162.411 80.9007 161.808C80.5811 161.205 80.399 160.472 80.3544 159.61C80.3092 158.736 80.4145 157.983 80.6701 157.35C80.9364 156.717 81.3274 156.221 81.8429 155.864C82.3584 155.506 82.9731 155.309 83.6868 155.272C84.4111 155.234 85.044 155.388 85.5852 155.734C86.1366 156.069 86.5137 156.546 86.7167 157.166L86.5249 157.176L86.6023 155.265L87.8487 155.201C87.8327 155.511 87.817 155.827 87.8016 156.148C87.7962 156.458 87.8013 156.762 87.8167 157.061L88.1357 163.228L86.8414 163.295L86.7439 161.41L86.9197 161.401C86.7818 162.038 86.4558 162.552 85.942 162.941C85.4281 163.331 84.8196 163.544 84.1165 163.581ZM84.3176 162.513C85.0846 162.473 85.6783 162.181 86.0987 161.636C86.5186 161.08 86.7023 160.296 86.65 159.284C86.5971 158.261 86.3334 157.501 85.859 157.002C85.3841 156.492 84.7631 156.257 83.9962 156.297C83.2398 156.336 82.6464 156.634 82.2159 157.19C81.7955 157.735 81.6118 158.519 81.6646 159.542C81.717 160.554 81.9806 161.315 82.4556 161.824C82.9406 162.322 83.5613 162.552 84.3176 162.513ZM94.017 163.068C93.2288 163.109 92.5329 162.974 91.9294 162.664C91.3365 162.353 90.864 161.891 90.5119 161.279C90.1705 160.667 89.9775 159.929 89.9329 159.066C89.8877 158.193 90.0092 157.444 90.2973 156.82C90.585 156.186 91.0081 155.694 91.5668 155.345C92.1362 154.995 92.8097 154.8 93.5873 154.76C94.0986 154.733 94.5986 154.798 95.0874 154.954C95.5867 155.11 96.0048 155.345 96.3414 155.659L95.926 156.609C95.5904 156.317 95.227 156.106 94.8358 155.977C94.4553 155.847 94.0839 155.791 93.7217 155.81C92.8908 155.853 92.2599 156.147 91.8288 156.693C91.3978 157.239 91.2081 158.012 91.2599 159.013C91.3112 160.004 91.5798 160.759 92.066 161.279C92.5522 161.798 93.2107 162.037 94.0416 161.994C94.3931 161.976 94.7517 161.888 95.1174 161.73C95.4937 161.572 95.8387 161.324 96.1524 160.987L96.6629 161.874C96.3503 162.232 95.9537 162.514 95.473 162.721C94.9924 162.927 94.5071 163.043 94.017 163.068ZM101.401 162.687C100.613 162.727 99.9993 162.535 99.5608 162.109C99.1216 161.672 98.8784 160.996 98.831 160.08L98.6021 155.654L97.0361 155.735L96.9841 154.728L98.55 154.647L98.4368 152.458L99.712 152.024L99.8443 154.58L102.145 154.461L102.197 155.468L99.8963 155.587L100.118 159.869C100.151 160.508 100.281 160.961 100.508 161.227C100.746 161.481 101.083 161.598 101.52 161.575C101.722 161.564 101.902 161.539 102.061 161.499C102.218 161.448 102.359 161.393 102.485 161.333L102.541 162.419C102.395 162.491 102.216 162.548 102.005 162.591C101.805 162.644 101.603 162.676 101.401 162.687ZM104.136 162.401L103.721 154.38L105.015 154.313L105.43 162.334L104.136 162.401ZM103.467 152.566L103.392 151.112L104.989 151.03L105.065 152.484L103.467 152.566ZM111.242 162.178C110.475 162.217 109.796 162.087 109.203 161.786C108.621 161.475 108.159 161.018 107.819 160.416C107.477 159.804 107.284 159.071 107.24 158.219C107.196 157.356 107.312 156.608 107.589 155.974C107.866 155.34 108.278 154.844 108.826 154.484C109.383 154.114 110.045 153.908 110.812 153.869C111.59 153.828 112.27 153.964 112.852 154.276C113.444 154.576 113.911 155.028 114.252 155.629C114.603 156.231 114.802 156.963 114.846 157.826C114.89 158.678 114.769 159.426 114.482 160.071C114.205 160.705 113.787 161.207 113.23 161.578C112.682 161.938 112.02 162.137 111.242 162.178ZM111.188 161.123C111.955 161.083 112.548 160.791 112.969 160.246C113.389 159.69 113.572 158.906 113.52 157.894C113.467 156.872 113.198 156.111 112.713 155.613C112.238 155.103 111.622 154.868 110.866 154.907C110.11 154.946 109.522 155.244 109.102 155.8C108.681 156.345 108.498 157.129 108.551 158.151C108.603 159.163 108.867 159.924 109.342 160.433C109.816 160.932 110.431 161.162 111.188 161.123ZM117.072 161.732L116.753 155.564C116.737 155.266 116.705 154.963 116.657 154.656C116.62 154.337 116.577 154.024 116.529 153.717L117.775 153.653L118.026 155.402L117.834 155.412C118.037 154.782 118.385 154.294 118.88 153.948C119.385 153.591 119.978 153.395 120.66 153.359C121.608 153.31 122.335 153.529 122.841 154.016C123.357 154.491 123.643 155.272 123.699 156.358L123.958 161.376L122.664 161.443L122.409 156.505C122.37 155.749 122.187 155.208 121.86 154.883C121.544 154.547 121.066 154.396 120.427 154.429C119.681 154.467 119.102 154.727 118.689 155.208C118.276 155.688 118.089 156.312 118.129 157.079L118.366 161.665L117.072 161.732ZM129.11 161.253C128.471 161.286 127.87 161.232 127.307 161.09C126.744 160.938 126.273 160.711 125.894 160.41L126.294 159.476C126.704 159.765 127.142 159.972 127.608 160.097C128.085 160.222 128.573 160.272 129.074 160.246C129.713 160.213 130.187 160.076 130.495 159.836C130.813 159.585 130.961 159.256 130.94 158.852C130.924 158.543 130.805 158.303 130.583 158.133C130.37 157.952 130.027 157.82 129.553 157.738L128.051 157.511C127.362 157.397 126.837 157.173 126.478 156.839C126.119 156.495 125.925 156.046 125.896 155.492C125.872 155.023 125.973 154.607 126.2 154.242C126.426 153.868 126.768 153.567 127.227 153.34C127.684 153.103 128.227 152.968 128.856 152.935C129.442 152.905 129.984 152.968 130.484 153.124C130.993 153.268 131.422 153.497 131.769 153.81L131.352 154.729C131.016 154.437 130.637 154.227 130.214 154.099C129.801 153.96 129.376 153.902 128.939 153.924C128.311 153.957 127.843 154.109 127.537 154.382C127.241 154.642 127.103 154.975 127.124 155.38C127.14 155.689 127.249 155.94 127.451 156.132C127.663 156.314 127.98 156.441 128.4 156.516L129.902 156.743C130.635 156.865 131.185 157.087 131.555 157.41C131.934 157.722 132.138 158.16 132.167 158.724C132.192 159.203 132.081 159.631 131.833 160.007C131.585 160.372 131.226 160.663 130.757 160.88C130.298 161.096 129.749 161.22 129.11 161.253ZM140.668 160.511L137.281 152.644L138.656 152.573L141.498 159.507L141.082 159.529L143.273 152.334L144.392 152.276L147.266 159.209L146.866 159.23L148.994 152.038L150.304 151.97L147.731 160.146L146.485 160.211L143.525 153.17L144.164 153.137L141.931 160.446L140.668 160.511ZM152.415 159.904L152 151.883L153.294 151.816L153.709 159.837L152.415 159.904ZM151.746 150.069L151.671 148.615L153.269 148.533L153.344 149.987L151.746 150.069ZM159.074 159.704C158.286 159.744 157.672 159.552 157.234 159.126C156.795 158.689 156.551 158.013 156.504 157.097L156.275 152.671L154.709 152.752L154.657 151.745L156.223 151.664L156.11 149.475L157.385 149.041L157.517 151.597L159.818 151.478L159.87 152.485L157.569 152.604L157.791 156.886C157.824 157.525 157.954 157.978 158.181 158.244C158.419 158.499 158.756 158.615 159.193 158.592C159.395 158.582 159.575 158.556 159.733 158.516C159.891 158.465 160.032 158.41 160.157 158.35L160.214 159.436C160.068 159.508 159.889 159.565 159.678 159.608C159.478 159.661 159.276 159.693 159.074 159.704ZM161.809 159.418L161.2 147.658L162.495 147.591L162.78 153.103L162.572 153.114C162.763 152.474 163.112 151.981 163.617 151.634C164.133 151.276 164.736 151.08 165.429 151.044C166.388 150.994 167.115 151.218 167.611 151.716C168.106 152.203 168.38 152.969 168.434 154.013L168.695 159.062L167.401 159.129L167.144 154.159C167.106 153.414 166.928 152.878 166.612 152.553C166.307 152.227 165.83 152.081 165.18 152.114C164.434 152.153 163.849 152.413 163.426 152.894C163.013 153.374 162.825 153.988 162.864 154.733L163.103 159.351L161.809 159.418ZM174.47 158.907C173.703 158.947 173.024 158.817 172.431 158.516C171.849 158.204 171.387 157.748 171.047 157.146C170.705 156.533 170.512 155.801 170.468 154.949C170.424 154.086 170.54 153.338 170.817 152.704C171.094 152.07 171.506 151.573 172.054 151.214C172.611 150.843 173.273 150.638 174.04 150.598C174.818 150.558 175.498 150.694 176.08 151.006C176.672 151.306 177.139 151.757 177.48 152.359C177.831 152.96 178.03 153.693 178.074 154.555C178.118 155.408 177.997 156.156 177.71 156.801C177.433 157.435 177.015 157.937 176.458 158.308C175.91 158.667 175.248 158.867 174.47 158.907ZM174.416 157.853C175.183 157.813 175.776 157.521 176.197 156.976C176.617 156.42 176.8 155.636 176.748 154.624C176.695 153.601 176.426 152.841 175.941 152.343C175.466 151.833 174.85 151.598 174.094 151.637C173.338 151.676 172.75 151.974 172.33 152.529C171.909 153.074 171.726 153.858 171.779 154.881C171.831 155.893 172.095 156.654 172.57 157.163C173.044 157.662 173.659 157.892 174.416 157.853ZM183.135 158.459C182.187 158.508 181.455 158.284 180.938 157.788C180.431 157.291 180.15 156.504 180.095 155.428L179.837 150.443L181.131 150.376L181.387 155.329C181.425 156.064 181.602 156.6 181.919 156.936C182.235 157.261 182.707 157.408 183.335 157.375C184.039 157.339 184.591 157.081 184.994 156.601C185.396 156.121 185.577 155.497 185.538 154.73L185.301 150.16L186.596 150.093L187.011 158.115L185.748 158.18L185.655 156.374L185.863 156.363C185.671 156.993 185.333 157.491 184.85 157.858C184.378 158.224 183.806 158.424 183.135 158.459ZM192.373 157.981C191.585 158.022 190.971 157.83 190.533 157.404C190.094 156.967 189.851 156.291 189.803 155.375L189.574 150.949L188.008 151.03L187.956 150.023L189.522 149.942L189.409 147.753L190.684 147.318L190.816 149.875L193.117 149.756L193.169 150.763L190.868 150.882L191.09 155.164C191.123 155.803 191.253 156.256 191.481 156.522C191.718 156.776 192.055 156.892 192.492 156.87C192.694 156.859 192.875 156.834 193.033 156.794C193.19 156.743 193.332 156.687 193.457 156.628L193.513 157.714C193.367 157.786 193.188 157.843 192.977 157.886C192.777 157.939 192.576 157.971 192.373 157.981ZM44.6839 192.512L44.3211 185.497L42.7552 185.578L42.7031 184.572L44.6206 184.473L44.2864 184.826L44.217 183.484C44.1701 182.579 44.3633 181.874 44.7966 181.371C45.2299 180.868 45.8726 180.595 46.7248 180.551C46.9378 180.54 47.1573 180.55 47.3832 180.581C47.6192 180.6 47.8134 180.638 47.9659 180.695L48.0213 181.765C47.8907 181.719 47.7287 181.684 47.5353 181.662C47.352 181.629 47.1645 181.617 46.9727 181.627C46.6425 181.644 46.3638 181.728 46.1366 181.879C45.9089 182.019 45.7433 182.225 45.6399 182.497C45.5365 182.77 45.4955 183.114 45.517 183.529L45.5773 184.695L45.3556 184.435L47.8003 184.308L47.8524 185.315L45.6154 185.43L45.9782 192.445L44.6839 192.512ZM53.0197 192.225C51.7627 192.29 50.7533 191.979 49.9915 191.292C49.2291 190.595 48.8143 189.596 48.7471 188.296C48.7036 187.455 48.8256 186.717 49.1132 186.083C49.4003 185.438 49.8226 184.93 50.3802 184.559C50.9373 184.178 51.5886 183.968 52.3343 183.929C53.0693 183.891 53.6951 184.014 54.2118 184.297C54.7284 184.58 55.1348 185.002 55.4308 185.564C55.7264 186.114 55.8942 186.779 55.9344 187.556L55.9592 188.036L49.7435 188.357L49.7014 187.542L55.0702 187.264L54.8093 187.486C54.7652 186.634 54.5391 185.978 54.1308 185.519C53.7225 185.059 53.1402 184.849 52.3839 184.888C51.585 184.929 50.9764 185.244 50.5582 185.832C50.1394 186.409 49.9546 187.171 50.0036 188.119L50.011 188.263C50.0628 189.264 50.3472 190.013 50.8642 190.51C51.3914 190.995 52.1023 191.215 52.9971 191.169C53.4765 191.144 53.9203 191.052 54.3286 190.892C54.747 190.72 55.1394 190.46 55.5058 190.11L56.0003 190.997C55.6664 191.356 55.2327 191.646 54.6994 191.866C54.1761 192.074 53.6162 192.194 53.0197 192.225ZM61.7112 191.775C60.4542 191.841 59.4448 191.53 58.683 190.843C57.9206 190.145 57.5058 189.147 57.4386 187.847C57.3951 187.005 57.5171 186.267 57.8047 185.633C58.0918 184.988 58.5141 184.48 59.0717 184.11C59.6288 183.728 60.2801 183.518 61.0258 183.48C61.7608 183.442 62.3867 183.564 62.9033 183.847C63.4199 184.13 63.8263 184.553 64.1223 185.114C64.4179 185.665 64.5857 186.329 64.6259 187.107L64.6507 187.586L58.435 187.908L58.3929 187.093L63.7617 186.815L63.5008 187.037C63.4568 186.185 63.2306 185.529 62.8223 185.069C62.414 184.61 61.8317 184.399 61.0754 184.439C60.2765 184.48 59.6679 184.794 59.2497 185.382C58.8309 185.959 58.6461 186.722 58.6951 187.67L58.7026 187.814C58.7543 188.815 59.0387 189.564 59.5558 190.061C60.0829 190.546 60.7938 190.766 61.6886 190.719C62.168 190.694 62.6118 190.602 63.0201 190.442C63.4385 190.271 63.8309 190.01 64.1973 189.66L64.6918 190.548C64.3579 190.907 63.9243 191.196 63.3909 191.416C62.8676 191.625 62.3077 191.745 61.7112 191.775ZM66.832 191.366L66.2238 179.606L67.5181 179.539L68.1263 191.299L66.832 191.366ZM70.6395 191.17L70.2246 183.148L71.5189 183.081L71.9337 191.103L70.6395 191.17ZM69.9706 181.335L69.8954 179.881L71.4932 179.798L71.5684 181.252L69.9706 181.335ZM74.4469 190.973L74.1279 184.805C74.1124 184.507 74.0807 184.204 74.0328 183.897C73.995 183.578 73.9521 183.265 73.9042 182.958L75.1505 182.893L75.4012 184.643L75.2094 184.653C75.4118 184.023 75.7604 183.535 76.2552 183.189C76.7601 182.832 77.3534 182.635 78.0352 182.6C78.9833 182.551 79.7102 182.77 80.216 183.256C80.7319 183.732 81.018 184.513 81.0742 185.599L81.3337 190.616L80.0394 190.683L79.784 185.746C79.7449 184.99 79.5621 184.449 79.2355 184.124C78.9191 183.788 78.4413 183.636 77.8021 183.67C77.0565 183.708 76.4771 183.968 76.064 184.448C75.651 184.929 75.4643 185.553 75.5039 186.32L75.7411 190.906L74.4469 190.973ZM87.5249 193.869C86.8325 193.905 86.189 193.853 85.5943 193.712C84.9996 193.572 84.4588 193.339 83.9719 193.011L84.305 192.017C84.6473 192.234 84.9818 192.404 85.3086 192.526C85.6353 192.648 85.9708 192.732 86.315 192.778C86.6597 192.835 87.0238 192.853 87.4073 192.834C88.1956 192.793 88.7814 192.554 89.1647 192.118C89.548 191.682 89.7198 191.08 89.6801 190.313L89.5586 187.964L89.7184 187.956C89.5805 188.593 89.2549 189.112 88.7415 189.512C88.2276 189.902 87.6138 190.115 86.9001 190.152C86.1651 190.19 85.5177 190.064 84.9579 189.772C84.4082 189.469 83.9688 189.027 83.6397 188.446C83.3206 187.854 83.1399 187.148 83.0975 186.328C83.0556 185.518 83.1631 184.807 83.4198 184.196C83.6872 183.584 84.079 183.105 84.5951 182.757C85.1213 182.399 85.7519 182.201 86.4869 182.163C87.2113 182.125 87.8438 182.274 88.3845 182.61C88.9358 182.944 89.3133 183.427 89.5168 184.057L89.3487 183.905L89.4024 182.156L90.6648 182.091C90.6381 182.402 90.6224 182.718 90.6176 183.039C90.6123 183.349 90.6174 183.653 90.6328 183.951L90.9493 190.071C91.011 191.264 90.7487 192.18 90.1622 192.819C89.5864 193.458 88.7073 193.808 87.5249 193.869ZM87.0852 189.085C87.8629 189.045 88.4622 188.758 88.8831 188.223C89.3035 187.678 89.4895 186.937 89.441 185.999C89.3925 185.062 89.1314 184.349 88.6575 183.861C88.1837 183.373 87.5579 183.149 86.7803 183.189C86.0133 183.229 85.414 183.516 84.9824 184.051C84.5508 184.586 84.3592 185.322 84.4077 186.26C84.4562 187.197 84.723 187.915 85.208 188.413C85.6925 188.901 86.3183 189.125 87.0852 189.085ZM100.902 189.748C100.135 189.788 99.4558 189.658 98.8635 189.357C98.2813 189.046 97.8198 188.589 97.4789 187.987C97.1375 187.374 96.9447 186.642 96.9006 185.79C96.856 184.927 96.9722 184.179 97.2491 183.545C97.5261 182.911 97.9383 182.414 98.4858 182.055C99.0434 181.684 99.7057 181.479 100.473 181.44C101.25 181.399 101.93 181.535 102.512 181.847C103.105 182.147 103.571 182.598 103.912 183.2C104.264 183.802 104.462 184.534 104.506 185.396C104.551 186.249 104.429 186.997 104.142 187.642C103.865 188.276 103.448 188.778 102.89 189.149C102.343 189.508 101.68 189.708 100.902 189.748ZM100.848 188.694C101.615 188.654 102.209 188.362 102.629 187.817C103.049 187.261 103.233 186.477 103.18 185.465C103.127 184.442 102.858 183.682 102.373 183.184C101.898 182.674 101.283 182.439 100.526 182.478C99.7701 182.517 99.182 182.815 98.7622 183.37C98.3417 183.916 98.158 184.699 98.2109 185.722C98.2632 186.734 98.5269 187.495 99.0018 188.004C99.4762 188.503 100.092 188.733 100.848 188.694ZM108.987 189.186L105.137 181.343L106.543 181.27L109.785 188.184L109.353 188.206L111.896 180.993L113.238 180.923L110.218 189.122L108.987 189.186ZM118.573 188.835C117.316 188.9 116.306 188.589 115.544 187.902C114.782 187.204 114.367 186.206 114.3 184.906C114.257 184.064 114.379 183.326 114.666 182.692C114.953 182.047 115.376 181.539 115.933 181.169C116.49 180.787 117.142 180.577 117.887 180.539C118.622 180.501 119.248 180.623 119.765 180.906C120.281 181.189 120.688 181.612 120.984 182.173C121.279 182.724 121.447 183.388 121.487 184.166L121.512 184.645L115.297 184.967L115.254 184.152L120.623 183.874L120.362 184.096C120.318 183.244 120.092 182.588 119.684 182.128C119.276 181.669 118.693 181.458 117.937 181.498C117.138 181.539 116.529 181.853 116.111 182.441C115.692 183.018 115.508 183.781 115.557 184.729L115.564 184.873C115.616 185.874 115.9 186.623 116.417 187.12C116.944 187.605 117.655 187.825 118.55 187.778C119.029 187.753 119.473 187.661 119.882 187.501C120.3 187.33 120.692 187.069 121.059 186.719L121.553 187.607C121.219 187.966 120.786 188.255 120.252 188.475C119.729 188.684 119.169 188.804 118.573 188.835ZM123.662 188.427L123.347 182.339C123.33 182.02 123.303 181.695 123.264 181.366C123.237 181.037 123.199 180.718 123.151 180.411L124.397 180.346L124.658 182.287L124.435 182.315C124.517 181.83 124.683 181.426 124.933 181.104C125.183 180.781 125.486 180.536 125.84 180.368C126.194 180.189 126.568 180.09 126.962 180.069C127.122 180.061 127.261 180.059 127.379 180.064C127.507 180.068 127.625 180.089 127.734 180.126L127.778 181.277C127.615 181.232 127.464 181.208 127.325 181.204C127.196 181.19 127.047 181.187 126.876 181.195C126.408 181.22 126.003 181.353 125.663 181.595C125.334 181.836 125.088 182.137 124.925 182.498C124.773 182.858 124.707 183.236 124.727 183.63L124.972 188.359L123.662 188.427ZM132.123 187.989L128.736 180.122L130.11 180.051L132.952 186.985L132.537 187.007L134.728 179.812L135.847 179.754L138.721 186.687L138.321 186.708L140.449 179.516L141.759 179.448L139.186 187.624L137.939 187.689L134.98 180.648L135.619 180.615L133.385 187.924L132.123 187.989ZM143.87 187.382L143.261 175.622L144.556 175.555L144.841 181.067L144.633 181.078C144.824 180.438 145.173 179.945 145.678 179.598C146.194 179.24 146.798 179.044 147.49 179.008C148.449 178.958 149.176 179.182 149.672 179.68C150.167 180.167 150.441 180.933 150.495 181.976L150.756 187.026L149.462 187.093L149.205 182.123C149.167 181.378 148.989 180.842 148.673 180.517C148.368 180.191 147.891 180.044 147.241 180.078C146.495 180.117 145.911 180.376 145.487 180.858C145.074 181.338 144.887 181.951 144.925 182.697L145.164 187.315L143.87 187.382ZM156.803 186.857C155.546 186.922 154.536 186.611 153.775 185.924C153.012 185.227 152.597 184.228 152.53 182.929C152.487 182.087 152.609 181.349 152.896 180.715C153.183 180.07 153.606 179.562 154.163 179.191C154.72 178.81 155.372 178.6 156.117 178.562C156.852 178.524 157.478 178.646 157.995 178.929C158.512 179.212 158.918 179.634 159.214 180.196C159.51 180.747 159.677 181.411 159.718 182.188L159.742 182.668L153.527 182.989L153.485 182.174L158.853 181.897L158.592 182.118C158.548 181.266 158.322 180.61 157.914 180.151C157.506 179.691 156.923 179.481 156.167 179.52C155.368 179.562 154.76 179.876 154.341 180.464C153.923 181.041 153.738 181.803 153.787 182.752L153.794 182.895C153.846 183.897 154.13 184.646 154.647 185.142C155.175 185.628 155.885 185.847 156.78 185.801C157.26 185.776 157.703 185.684 158.112 185.524C158.53 185.353 158.923 185.092 159.289 184.742L159.783 185.63C159.45 185.989 159.016 186.278 158.483 186.498C157.959 186.707 157.399 186.826 156.803 186.857ZM161.924 186.448L161.315 174.688L162.61 174.621L163.218 186.381L161.924 186.448ZM165.731 186.251L165.412 180.083C165.397 179.785 165.365 179.482 165.317 179.175C165.279 178.857 165.236 178.544 165.188 178.237L166.435 178.172L166.685 179.921L166.494 179.931C166.675 179.313 166.987 178.827 167.428 178.473C167.879 178.119 168.435 177.924 169.096 177.89C169.767 177.856 170.318 177.987 170.75 178.285C171.193 178.583 171.506 179.063 171.69 179.727L171.45 179.739C171.621 179.121 171.953 178.624 172.447 178.246C172.94 177.868 173.527 177.661 174.209 177.626C175.093 177.58 175.772 177.801 176.246 178.289C176.719 178.767 176.984 179.549 177.04 180.636L177.3 185.653L176.005 185.72L175.75 180.782C175.711 180.026 175.549 179.484 175.265 179.157C174.981 178.82 174.546 178.666 173.96 178.696C173.289 178.731 172.768 178.993 172.398 179.482C172.039 179.96 171.879 180.587 171.919 181.365L172.155 185.919L170.86 185.986L170.605 181.049C170.566 180.292 170.404 179.751 170.12 179.423C169.836 179.086 169.401 178.932 168.815 178.962C168.144 178.997 167.628 179.259 167.269 179.747C166.909 180.225 166.75 180.853 166.79 181.63L167.025 186.184L165.731 186.251ZM183.33 185.485C182.073 185.55 181.063 185.239 180.302 184.552C179.539 183.855 179.124 182.856 179.057 181.557C179.014 180.715 179.136 179.977 179.423 179.343C179.71 178.698 180.133 178.19 180.69 177.819C181.247 177.438 181.899 177.228 182.644 177.19C183.38 177.151 184.005 177.274 184.522 177.557C185.039 177.84 185.445 178.262 185.741 178.824C186.037 179.375 186.204 180.039 186.245 180.816L186.269 181.296L180.054 181.617L180.012 180.802L185.38 180.525L185.12 180.746C185.075 179.894 184.849 179.238 184.441 178.779C184.033 178.319 183.45 178.109 182.694 178.148C181.895 178.19 181.287 178.504 180.868 179.092C180.45 179.669 180.265 180.431 180.314 181.379L180.321 181.523C180.373 182.525 180.657 183.274 181.174 183.77C181.702 184.256 182.413 184.475 183.307 184.429C183.787 184.404 184.23 184.312 184.639 184.152C185.057 183.981 185.45 183.72 185.816 183.37L186.31 184.258C185.977 184.617 185.543 184.906 185.01 185.126C184.486 185.335 183.926 185.454 183.33 185.485ZM191.494 185.063C190.791 185.099 190.165 184.966 189.615 184.663C189.065 184.35 188.624 183.892 188.294 183.29C187.975 182.687 187.793 181.954 187.748 181.091C187.703 180.218 187.808 179.465 188.064 178.832C188.33 178.199 188.721 177.703 189.236 177.345C189.752 176.987 190.361 176.79 191.064 176.754C191.789 176.717 192.421 176.865 192.962 177.201C193.513 177.535 193.896 178.007 194.109 178.615L193.917 178.625L193.627 173.017L194.921 172.95L195.529 184.71L194.251 184.776L194.152 182.859L194.328 182.85C194.19 183.498 193.865 184.022 193.351 184.422C192.838 184.812 192.218 185.025 191.494 185.063ZM191.711 183.994C192.468 183.955 193.061 183.663 193.492 183.117C193.923 182.561 194.112 181.777 194.06 180.765C194.007 179.742 193.738 178.982 193.253 178.483C192.767 177.974 192.146 177.739 191.39 177.779C190.633 177.818 190.04 178.115 189.609 178.672C189.189 179.217 189.005 180.001 189.058 181.023C189.111 182.035 189.374 182.796 189.849 183.306C190.334 183.804 190.955 184.033 191.711 183.994ZM197.776 184.594L197.692 182.964L199.322 182.88L199.406 184.51L197.776 184.594ZM201.394 177.55L200.829 173.141L202.347 173.062L202.272 177.504L201.394 177.55ZM204.126 177.408L203.561 173L205.079 172.921L205.005 177.363L204.126 177.408Z" fill="#363636"/>
<defs>
<filter id="filter0_f_202_706" x="5.98594" y="8.49326" width="271.779" height="244.707" filterUnits="userSpaceOnUse" color-interpolation-filters="sRGB">
<feFlood flood-opacity="0" result="BackgroundImageFix"/>
<feBlend mode="normal" in="SourceGraphic" in2="BackgroundImageFix" result="shape"/>
<feGaussianBlur stdDeviation="4.05" result="effect1_foregroundBlur_202_706"/>
</filter>
</defs>
</svg>
